<svg width="1092" height="980" viewBox="0 0 1092 980" fill="none" xmlns="http://www.w3.org/2000/svg">
<g clip-path="url(#clip0_78_661)">
<path d="M925.657 191.084C1012.71 264.47 1075.38 344.651 1089.31 427.55C1103.24 510.449 1066.68 596.066 1016.19 685.76C965.7 776.813 901.283 870.584 795.082 919.508C688.881 968.432 540.896 971.15 427.731 927.662C314.566 884.174 236.221 793.121 159.617 697.991C84.7541 602.861 11.6321 502.295 4.66808 389.498C-2.29592 276.701 55.1571 153.032 168.322 82.364C281.487 13.055 450.364 -1.89402 589.644 23.927C728.924 51.107 840.348 117.698 925.657 191.084Z" fill="url(#paint0_linear_78_661)"/>
</g>
<defs>
<linearGradient id="paint0_linear_78_661" x1="4.10205" y1="958.359" x2="941.237" y2="-119.3" gradientUnits="userSpaceOnUse">
<stop stop-color="#134E4A"/>
<stop offset="1" stop-color="#10B981"/>
</linearGradient>
<clipPath id="clip0_78_661">
<rect width="1092" height="980" fill="white"/>
</clipPath>
</defs>
</svg>
