<svg fill="none" height="980" viewBox="0 0 1092 980" width="1092" xmlns="http://www.w3.org/2000/svg" xmlns:xlink="http://www.w3.org/1999/xlink"><linearGradient id="a" gradientUnits="userSpaceOnUse" x1="4.10205" x2="941.237" y1="958.359" y2="-119.3"><stop offset="0" stop-color="#134e4a"/><stop offset="1" stop-color="#10b981"/></linearGradient><clipPath id="b"><path d="m0 0h1092v980h-1092z"/></clipPath><g clip-path="url(#b)"><path d="m925.657 191.084c87.053 73.386 149.723 153.567 163.653 236.466s-22.63 168.516-73.12 258.21c-50.49 91.053-114.907 184.824-221.108 233.748s-254.186 51.642-367.351 8.154-191.51-134.541-268.114-229.671c-74.8629-95.13-147.9849-195.696-154.94892-308.493-6.964-112.797 50.48902-236.466 163.65392-307.134 113.165-69.309 282.042-84.25802 421.322-58.437 139.28 27.18 250.704 93.771 336.013 167.157z" fill="url(#a)"/></g></svg>