<!--?xml version="1.0" standalone="no"?-->
              <svg id="sw-js-blob-svg" viewBox="0 0 100 100" xmlns="http://www.w3.org/2000/svg" version="1.1">
                    <defs> 
                        <linearGradient id="sw-gradient" x1="0" x2="1" y1="1" y2="0">
                            <stop id="stop1" stop-color="rgba(19, 78, 74, 1)" offset="0%"></stop>
                            <stop id="stop2" stop-color="rgba(16, 185, 129, 1)" offset="100%"></stop>
                        </linearGradient>
                    </defs>
                <path fill="url(#sw-gradient)" d="M17.7,-22.4C22.7,-17,26.3,-11.1,27.1,-5C27.9,1.1,25.8,7.4,22.9,14C20,20.7,16.3,27.6,10.2,31.2C4.1,34.8,-4.4,35,-10.9,31.8C-17.4,28.6,-21.9,21.9,-26.3,14.9C-30.6,7.9,-34.8,0.5,-35.2,-7.8C-35.6,-16.1,-32.3,-25.2,-25.8,-30.4C-19.3,-35.5,-9.6,-36.6,-1.6,-34.7C6.4,-32.7,12.8,-27.8,17.7,-22.4Z" width="100%" height="100%" transform="translate(50 50)" stroke-width="0" style="transition: all 0.3s ease 0s;" stroke="url(#sw-gradient)"></path>
              </svg>