<svg width="645" height="163" viewBox="0 0 645 163" fill="none" xmlns="http://www.w3.org/2000/svg">
<path d="M20 100.5V82L44 99.5L81 72H105L44 118.5L20 100.5Z" fill="#10B981" stroke="#10B981"/>
<path d="M1 43V127.5H17V73.5L44 94.5L86 62.5V43.5L44 76L1 43Z" fill="black" stroke="black"/>
<path d="M71 127V102.5L86.5 91V127H71Z" fill="black" stroke="black"/>
<path d="M109.875 95V57.575H122.325L122.4 95H109.875ZM109.725 52.1V42.875H122.475V52.1H109.725ZM154.567 96.125C151.867 96.125 149.542 95.825 147.592 95.225C145.642 94.625 143.867 94.025 142.267 93.425V82.775C143.167 83.425 144.267 84.125 145.567 84.875C146.917 85.575 148.392 86.175 149.992 86.675C151.642 87.175 153.392 87.425 155.242 87.425C156.842 87.425 157.917 87.175 158.467 86.675C159.017 86.125 159.292 85.5 159.292 84.8C159.292 84.1 158.917 83.525 158.167 83.075C157.417 82.575 156.442 82.15 155.242 81.8C154.042 81.45 152.767 81.15 151.417 80.9C150.267 80.7 149.117 80.35 147.967 79.85C146.867 79.3 145.842 78.575 144.892 77.675C143.992 76.725 143.267 75.575 142.717 74.225C142.217 72.825 141.967 71.2 141.967 69.35C141.967 66.8 142.442 64.7 143.392 63.05C144.392 61.35 145.692 60 147.292 59C148.942 57.95 150.692 57.2 152.542 56.75C154.392 56.3 156.192 56.1 157.942 56.15C161.242 56.25 163.817 56.6 165.667 57.2C167.517 57.8 169.167 58.575 170.617 59.525L170.692 68.9C169.042 68 167.342 67.125 165.592 66.275C163.892 65.425 161.942 65 159.742 65C157.892 65 156.617 65.275 155.917 65.825C155.217 66.375 154.867 67.075 154.867 67.925C154.867 68.775 155.117 69.45 155.617 69.95C156.167 70.4 156.867 70.775 157.717 71.075C158.617 71.325 159.567 71.6 160.567 71.9C161.817 72.2 163.117 72.55 164.467 72.95C165.817 73.35 167.067 73.95 168.217 74.75C169.367 75.55 170.292 76.65 170.992 78.05C171.742 79.45 172.117 81.3 172.117 83.6C172.067 86.75 171.217 89.25 169.567 91.1C167.967 92.9 165.842 94.2 163.192 95C160.542 95.75 157.667 96.125 154.567 96.125ZM202.365 96.125C199.665 96.125 197.34 95.825 195.39 95.225C193.44 94.625 191.665 94.025 190.065 93.425V82.775C190.965 83.425 192.065 84.125 193.365 84.875C194.715 85.575 196.19 86.175 197.79 86.675C199.44 87.175 201.19 87.425 203.04 87.425C204.64 87.425 205.715 87.175 206.265 86.675C206.815 86.125 207.09 85.5 207.09 84.8C207.09 84.1 206.715 83.525 205.965 83.075C205.215 82.575 204.24 82.15 203.04 81.8C201.84 81.45 200.565 81.15 199.215 80.9C198.065 80.7 196.915 80.35 195.765 79.85C194.665 79.3 193.64 78.575 192.69 77.675C191.79 76.725 191.065 75.575 190.515 74.225C190.015 72.825 189.765 71.2 189.765 69.35C189.765 66.8 190.24 64.7 191.19 63.05C192.19 61.35 193.49 60 195.09 59C196.74 57.95 198.49 57.2 200.34 56.75C202.19 56.3 203.99 56.1 205.74 56.15C209.04 56.25 211.615 56.6 213.465 57.2C215.315 57.8 216.965 58.575 218.415 59.525L218.49 68.9C216.84 68 215.14 67.125 213.39 66.275C211.69 65.425 209.74 65 207.54 65C205.69 65 204.415 65.275 203.715 65.825C203.015 66.375 202.665 67.075 202.665 67.925C202.665 68.775 202.915 69.45 203.415 69.95C203.965 70.4 204.665 70.775 205.515 71.075C206.415 71.325 207.365 71.6 208.365 71.9C209.615 72.2 210.915 72.55 212.265 72.95C213.615 73.35 214.865 73.95 216.015 74.75C217.165 75.55 218.09 76.65 218.79 78.05C219.54 79.45 219.915 81.3 219.915 83.6C219.865 86.75 219.015 89.25 217.365 91.1C215.765 92.9 213.64 94.2 210.99 95C208.34 95.75 205.465 96.125 202.365 96.125ZM238.913 95V57.575H251.363L251.438 95H238.913ZM238.763 52.1V42.875H251.513V52.1H238.763ZM289.68 96.125C283.13 96.125 278.205 94.425 274.905 91.025C271.655 87.625 270.03 82.55 270.03 75.8C270.03 68.45 271.68 63.25 274.98 60.2C278.28 57.1 283.18 55.55 289.68 55.55C293.98 55.55 297.605 56.25 300.555 57.65C303.505 59 305.73 61.175 307.23 64.175C308.78 67.125 309.555 71 309.555 75.8C309.555 82.5 307.83 87.575 304.38 91.025C300.98 94.425 296.08 96.125 289.68 96.125ZM289.68 86.3C291.28 86.3 292.63 85.925 293.73 85.175C294.88 84.425 295.755 83.275 296.355 81.725C296.955 80.125 297.255 78.15 297.255 75.8C297.255 73 296.955 70.85 296.355 69.35C295.755 67.8 294.88 66.725 293.73 66.125C292.63 65.525 291.28 65.225 289.68 65.225C288.03 65.225 286.655 65.55 285.555 66.2C284.455 66.8 283.63 67.875 283.08 69.425C282.58 70.925 282.33 73.05 282.33 75.8C282.33 79.45 282.93 82.125 284.13 83.825C285.33 85.475 287.18 86.3 289.68 86.3ZM327.987 60.2C328.887 59.7 330.137 59.2 331.737 58.7C333.337 58.2 335.112 57.75 337.062 57.35C339.012 56.9 340.987 56.55 342.987 56.3C344.987 56 346.812 55.85 348.462 55.85C351.812 55.85 354.712 56.25 357.162 57.05C359.612 57.85 361.487 59.225 362.787 61.175C364.137 63.125 364.812 65.8 364.812 69.2V95H352.437V72.05C352.437 71.05 352.287 70.175 351.987 69.425C351.737 68.625 351.337 67.975 350.787 67.475C350.287 66.975 349.587 66.6 348.687 66.35C347.837 66.1 346.812 65.975 345.612 65.975C344.562 65.975 343.512 66.125 342.462 66.425C341.462 66.675 340.762 66.95 340.362 67.25V95H327.987V60.2Z" fill="black"/>
<path d="M108.84 128V119.015H105.3V117.995H113.445V119.015H109.92V128H108.84ZM117.27 128V117.995H118.35V122.495H123.675V117.995H124.755V128H123.675V123.515H118.35V128H117.27ZM129.554 128V117.995H135.869V119.015H130.634V122.465H135.239V123.515H130.634V126.98H135.869V128H129.554ZM147.121 128V117.995H151.231C152.211 117.995 152.946 118.24 153.436 118.73C153.936 119.22 154.186 119.945 154.186 120.905C154.186 121.485 154.066 122 153.826 122.45C153.586 122.9 153.251 123.255 152.821 123.515C152.391 123.775 151.886 123.905 151.306 123.905L151.756 123.605L154.636 128H153.361L150.391 123.41L150.931 123.965H148.201V128H147.121ZM148.201 122.945H150.736C151.566 122.945 152.166 122.78 152.536 122.45C152.916 122.11 153.106 121.62 153.106 120.98C153.106 120.38 152.966 119.905 152.686 119.555C152.406 119.195 151.881 119.015 151.111 119.015H148.201V122.945ZM158.834 128V117.995H159.914V128H158.834ZM168.976 128.15C167.956 128.15 167.101 127.96 166.411 127.58C165.721 127.19 165.201 126.615 164.851 125.855C164.511 125.085 164.341 124.13 164.341 122.99C164.341 121.85 164.511 120.9 164.851 120.14C165.201 119.38 165.721 118.81 166.411 118.43C167.101 118.05 167.956 117.86 168.976 117.86C169.526 117.86 170.066 117.915 170.596 118.025C171.126 118.135 171.636 118.305 172.126 118.535V119.66C171.656 119.45 171.166 119.27 170.656 119.12C170.146 118.96 169.626 118.88 169.096 118.88C168.256 118.88 167.561 119.03 167.011 119.33C166.471 119.62 166.071 120.07 165.811 120.68C165.551 121.28 165.421 122.05 165.421 122.99C165.421 123.93 165.551 124.705 165.811 125.315C166.071 125.925 166.471 126.38 167.011 126.68C167.561 126.97 168.256 127.115 169.096 127.115C169.496 127.115 169.886 127.085 170.266 127.025C170.646 126.965 171.021 126.875 171.391 126.755V123.905H168.976V122.855H172.471V127.37C171.921 127.63 171.356 127.825 170.776 127.955C170.196 128.085 169.596 128.15 168.976 128.15ZM177.264 128V117.995H178.344V122.495H183.669V117.995H184.749V128H183.669V123.515H178.344V128H177.264ZM192.113 128V119.015H188.573V117.995H196.718V119.015H193.193V128H192.113ZM208.224 124.175V128H207.144V117.995H210.699C211.819 117.995 212.674 118.26 213.264 118.79C213.864 119.32 214.164 120.085 214.164 121.085C214.164 122.085 213.864 122.85 213.264 123.38C212.674 123.91 211.819 124.175 210.699 124.175H208.224ZM208.224 123.14H210.564C211.124 123.14 211.569 123.08 211.899 122.96C212.239 122.84 212.494 122.68 212.664 122.48C212.834 122.27 212.944 122.045 212.994 121.805C213.054 121.565 213.084 121.325 213.084 121.085C213.084 120.845 213.054 120.605 212.994 120.365C212.944 120.125 212.834 119.905 212.664 119.705C212.494 119.495 212.239 119.33 211.899 119.21C211.569 119.09 211.124 119.03 210.564 119.03H208.224V123.14ZM216.49 128L220.48 117.995H221.56L225.535 128H224.38L220.915 119L221.14 118.97L217.66 128H216.49ZM218.245 124.88L218.71 123.845H223.615L223.69 124.88H218.245ZM231.026 128V119.015H227.486V117.995H235.631V119.015H232.106V128H231.026ZM239.456 128V117.995H240.536V122.495H245.861V117.995H246.941V128H245.861V123.515H240.536V128H239.456ZM260.905 128V119.015H257.365V117.995H265.51V119.015H261.985V128H260.905ZM273.226 128.15C272.236 128.15 271.406 127.96 270.736 127.58C270.076 127.19 269.576 126.615 269.236 125.855C268.906 125.095 268.741 124.145 268.741 123.005C268.741 121.305 269.116 120.025 269.866 119.165C270.626 118.295 271.746 117.86 273.226 117.86C274.226 117.86 275.056 118.055 275.716 118.445C276.386 118.825 276.886 119.395 277.216 120.155C277.556 120.915 277.726 121.865 277.726 123.005C277.726 124.705 277.346 125.99 276.586 126.86C275.836 127.72 274.716 128.15 273.226 128.15ZM273.226 127.13C274.016 127.13 274.661 126.985 275.161 126.695C275.661 126.405 276.026 125.955 276.256 125.345C276.496 124.735 276.616 123.955 276.616 123.005C276.616 122.055 276.496 121.28 276.256 120.68C276.026 120.07 275.661 119.62 275.161 119.33C274.661 119.03 274.016 118.88 273.226 118.88C272.446 118.88 271.806 119.03 271.306 119.33C270.806 119.62 270.436 120.07 270.196 120.68C269.966 121.28 269.851 122.055 269.851 123.005C269.851 123.955 269.966 124.735 270.196 125.345C270.436 125.955 270.806 126.405 271.306 126.695C271.806 126.985 272.446 127.13 273.226 127.13ZM291.583 128.15C291.083 128.15 290.658 128.115 290.308 128.045C289.958 127.975 289.643 127.875 289.363 127.745C289.083 127.615 288.778 127.465 288.448 127.295V126.125C288.768 126.395 289.198 126.635 289.738 126.845C290.278 127.055 290.908 127.16 291.628 127.16C292.388 127.16 292.938 127 293.278 126.68C293.628 126.35 293.803 125.935 293.803 125.435C293.803 125.015 293.688 124.68 293.458 124.43C293.228 124.17 292.933 123.96 292.573 123.8C292.213 123.63 291.833 123.47 291.433 123.32C291.093 123.2 290.753 123.075 290.413 122.945C290.083 122.805 289.783 122.635 289.513 122.435C289.243 122.225 289.028 121.96 288.868 121.64C288.708 121.31 288.628 120.9 288.628 120.41C288.628 120.14 288.678 119.855 288.778 119.555C288.888 119.255 289.058 118.975 289.288 118.715C289.528 118.455 289.843 118.245 290.233 118.085C290.633 117.925 291.118 117.845 291.688 117.845C292.078 117.845 292.408 117.875 292.678 117.935C292.958 117.985 293.223 118.065 293.473 118.175C293.723 118.275 294.003 118.4 294.313 118.55V119.66C294.053 119.51 293.803 119.375 293.563 119.255C293.333 119.125 293.073 119.025 292.783 118.955C292.503 118.875 292.158 118.835 291.748 118.835C291.258 118.835 290.863 118.905 290.563 119.045C290.273 119.185 290.058 119.37 289.918 119.6C289.788 119.83 289.723 120.075 289.723 120.335C289.723 120.745 289.813 121.07 289.993 121.31C290.183 121.55 290.443 121.75 290.773 121.91C291.113 122.06 291.503 122.21 291.943 122.36C292.293 122.48 292.643 122.615 292.993 122.765C293.343 122.905 293.658 123.085 293.938 123.305C294.228 123.515 294.458 123.785 294.628 124.115C294.808 124.435 294.898 124.835 294.898 125.315C294.898 125.765 294.798 126.21 294.598 126.65C294.398 127.08 294.058 127.44 293.578 127.73C293.098 128.01 292.433 128.15 291.583 128.15ZM303.233 128.15C301.993 128.15 301.028 127.785 300.338 127.055C299.658 126.325 299.318 125.28 299.318 123.92V117.995H300.398V123.98C300.398 125.05 300.638 125.845 301.118 126.365C301.598 126.875 302.303 127.13 303.233 127.13C304.163 127.13 304.873 126.875 305.363 126.365C305.853 125.845 306.098 125.05 306.098 123.98V117.995H307.148V123.92C307.148 124.83 306.993 125.6 306.683 126.23C306.373 126.86 305.928 127.34 305.348 127.67C304.768 127.99 304.063 128.15 303.233 128.15ZM316.139 128.12C314.599 128.12 313.439 127.69 312.659 126.83C311.889 125.97 311.504 124.69 311.504 122.99C311.504 121.29 311.889 120.01 312.659 119.15C313.439 118.29 314.599 117.86 316.139 117.86C316.669 117.86 317.189 117.925 317.699 118.055C318.209 118.185 318.704 118.365 319.184 118.595V119.63C318.724 119.38 318.249 119.195 317.759 119.075C317.269 118.945 316.769 118.88 316.259 118.88C315.419 118.88 314.729 119.025 314.189 119.315C313.659 119.605 313.264 120.055 313.004 120.665C312.754 121.265 312.629 122.04 312.629 122.99C312.629 123.94 312.754 124.72 313.004 125.33C313.264 125.93 313.659 126.375 314.189 126.665C314.729 126.955 315.419 127.1 316.259 127.1C316.769 127.1 317.269 127.04 317.759 126.92C318.249 126.8 318.724 126.615 319.184 126.365V127.4C318.864 127.55 318.534 127.68 318.194 127.79C317.864 127.9 317.524 127.98 317.174 128.03C316.834 128.09 316.489 128.12 316.139 128.12ZM327.72 128.12C326.18 128.12 325.02 127.69 324.24 126.83C323.47 125.97 323.085 124.69 323.085 122.99C323.085 121.29 323.47 120.01 324.24 119.15C325.02 118.29 326.18 117.86 327.72 117.86C328.25 117.86 328.77 117.925 329.28 118.055C329.79 118.185 330.285 118.365 330.765 118.595V119.63C330.305 119.38 329.83 119.195 329.34 119.075C328.85 118.945 328.35 118.88 327.84 118.88C327 118.88 326.31 119.025 325.77 119.315C325.24 119.605 324.845 120.055 324.585 120.665C324.335 121.265 324.21 122.04 324.21 122.99C324.21 123.94 324.335 124.72 324.585 125.33C324.845 125.93 325.24 126.375 325.77 126.665C326.31 126.955 327 127.1 327.84 127.1C328.35 127.1 328.85 127.04 329.34 126.92C329.83 126.8 330.305 126.615 330.765 126.365V127.4C330.445 127.55 330.115 127.68 329.775 127.79C329.445 127.9 329.105 127.98 328.755 128.03C328.415 128.09 328.07 128.12 327.72 128.12ZM335.116 128V117.995H341.431V119.015H336.196V122.465H340.801V123.515H336.196V126.98H341.431V128H335.116ZM348.917 128.15C348.417 128.15 347.992 128.115 347.642 128.045C347.292 127.975 346.977 127.875 346.697 127.745C346.417 127.615 346.112 127.465 345.782 127.295V126.125C346.102 126.395 346.532 126.635 347.072 126.845C347.612 127.055 348.242 127.16 348.962 127.16C349.722 127.16 350.272 127 350.612 126.68C350.962 126.35 351.137 125.935 351.137 125.435C351.137 125.015 351.022 124.68 350.792 124.43C350.562 124.17 350.267 123.96 349.907 123.8C349.547 123.63 349.167 123.47 348.767 123.32C348.427 123.2 348.087 123.075 347.747 122.945C347.417 122.805 347.117 122.635 346.847 122.435C346.577 122.225 346.362 121.96 346.202 121.64C346.042 121.31 345.962 120.9 345.962 120.41C345.962 120.14 346.012 119.855 346.112 119.555C346.222 119.255 346.392 118.975 346.622 118.715C346.862 118.455 347.177 118.245 347.567 118.085C347.967 117.925 348.452 117.845 349.022 117.845C349.412 117.845 349.742 117.875 350.012 117.935C350.292 117.985 350.557 118.065 350.807 118.175C351.057 118.275 351.337 118.4 351.647 118.55V119.66C351.387 119.51 351.137 119.375 350.897 119.255C350.667 119.125 350.407 119.025 350.117 118.955C349.837 118.875 349.492 118.835 349.082 118.835C348.592 118.835 348.197 118.905 347.897 119.045C347.607 119.185 347.392 119.37 347.252 119.6C347.122 119.83 347.057 120.075 347.057 120.335C347.057 120.745 347.147 121.07 347.327 121.31C347.517 121.55 347.777 121.75 348.107 121.91C348.447 122.06 348.837 122.21 349.277 122.36C349.627 122.48 349.977 122.615 350.327 122.765C350.677 122.905 350.992 123.085 351.272 123.305C351.562 123.515 351.792 123.785 351.962 124.115C352.142 124.435 352.232 124.835 352.232 125.315C352.232 125.765 352.132 126.21 351.932 126.65C351.732 127.08 351.392 127.44 350.912 127.73C350.432 128.01 349.767 128.15 348.917 128.15ZM359.487 128.15C358.987 128.15 358.562 128.115 358.212 128.045C357.862 127.975 357.547 127.875 357.267 127.745C356.987 127.615 356.682 127.465 356.352 127.295V126.125C356.672 126.395 357.102 126.635 357.642 126.845C358.182 127.055 358.812 127.16 359.532 127.16C360.292 127.16 360.842 127 361.182 126.68C361.532 126.35 361.707 125.935 361.707 125.435C361.707 125.015 361.592 124.68 361.362 124.43C361.132 124.17 360.837 123.96 360.477 123.8C360.117 123.63 359.737 123.47 359.337 123.32C358.997 123.2 358.657 123.075 358.317 122.945C357.987 122.805 357.687 122.635 357.417 122.435C357.147 122.225 356.932 121.96 356.772 121.64C356.612 121.31 356.532 120.9 356.532 120.41C356.532 120.14 356.582 119.855 356.682 119.555C356.792 119.255 356.962 118.975 357.192 118.715C357.432 118.455 357.747 118.245 358.137 118.085C358.537 117.925 359.022 117.845 359.592 117.845C359.982 117.845 360.312 117.875 360.582 117.935C360.862 117.985 361.127 118.065 361.377 118.175C361.627 118.275 361.907 118.4 362.217 118.55V119.66C361.957 119.51 361.707 119.375 361.467 119.255C361.237 119.125 360.977 119.025 360.687 118.955C360.407 118.875 360.062 118.835 359.652 118.835C359.162 118.835 358.767 118.905 358.467 119.045C358.177 119.185 357.962 119.37 357.822 119.6C357.692 119.83 357.627 120.075 357.627 120.335C357.627 120.745 357.717 121.07 357.897 121.31C358.087 121.55 358.347 121.75 358.677 121.91C359.017 122.06 359.407 122.21 359.847 122.36C360.197 122.48 360.547 122.615 360.897 122.765C361.247 122.905 361.562 123.085 361.842 123.305C362.132 123.515 362.362 123.785 362.532 124.115C362.712 124.435 362.802 124.835 362.802 125.315C362.802 125.765 362.702 126.21 362.502 126.65C362.302 127.08 361.962 127.44 361.482 127.73C361.002 128.01 360.337 128.15 359.487 128.15Z" fill="black"/>
<path d="M452.441 128H426.309L409.375 95.2461L402.52 99.3477V128H379.258V42.3359H402.52V79.543C403.496 77.668 404.609 75.793 405.859 73.918C407.148 72.043 408.398 70.2656 409.609 68.5859L427.598 42.3359H452.91L425.898 80.7148L452.441 128ZM532.316 128L528.098 111.945H500.266L495.93 128H470.5L498.449 41.9844H529.328L557.629 128H532.316ZM523.293 92.9609L519.602 78.8984C519.211 77.375 518.645 75.207 517.902 72.3945C517.16 69.543 516.418 66.6133 515.676 63.6055C514.973 60.5586 514.426 58.0586 514.035 56.1055C513.684 58.0586 513.176 60.4805 512.512 63.3711C511.887 66.2227 511.223 69.0547 510.52 71.8672C509.855 74.6797 509.27 77.0234 508.762 78.8984L505.07 92.9609H523.293ZM640.961 101.984C640.961 106.633 639.789 111.047 637.445 115.227C635.102 119.367 631.449 122.727 626.488 125.305C621.566 127.883 615.199 129.172 607.387 129.172C603.48 129.172 600.043 128.996 597.074 128.645C594.145 128.293 591.41 127.727 588.871 126.945C586.332 126.125 583.695 125.07 580.961 123.781V103.156C585.609 105.5 590.297 107.297 595.023 108.547C599.75 109.758 604.027 110.363 607.855 110.363C610.16 110.363 612.035 110.09 613.48 109.543C614.965 108.996 616.059 108.254 616.762 107.316C617.465 106.34 617.816 105.227 617.816 103.977C617.816 102.492 617.289 101.242 616.234 100.227C615.219 99.1719 613.578 98.0781 611.312 96.9453C609.047 95.8125 606.059 94.4062 602.348 92.7266C599.184 91.2422 596.312 89.7188 593.734 88.1562C591.195 86.5938 589.008 84.8164 587.172 82.8242C585.375 80.793 583.988 78.4297 583.012 75.7344C582.035 73.0391 581.547 69.8555 581.547 66.1836C581.547 60.6758 582.895 56.0664 585.59 52.3555C588.324 48.6055 592.113 45.793 596.957 43.918C601.84 42.043 607.465 41.1055 613.832 41.1055C619.418 41.1055 624.438 41.7305 628.891 42.9805C633.383 44.2305 637.406 45.6563 640.961 47.2578L633.871 65.1289C630.199 63.4492 626.586 62.1211 623.031 61.1445C619.477 60.1289 616.176 59.6211 613.129 59.6211C611.137 59.6211 609.496 59.875 608.207 60.3828C606.957 60.8516 606.02 61.4961 605.395 62.3164C604.809 63.1367 604.516 64.0742 604.516 65.1289C604.516 66.457 605.023 67.6484 606.039 68.7031C607.094 69.7578 608.832 70.9102 611.254 72.1602C613.715 73.3711 617.055 74.9531 621.273 76.9062C625.453 78.7812 629.008 80.8125 631.938 83C634.867 85.1484 637.094 87.7461 638.617 90.793C640.18 93.8008 640.961 97.5312 640.961 101.984Z" fill="#10B981"/>
</svg>
