<svg fill="none" height="163" viewBox="0 0 645 163" width="645" xmlns="http://www.w3.org/2000/svg"><path d="m20 100.5v-18.5l24 17.5 37-27.5h24l-61 46.5z" fill="#10b981" stroke="#10b981"/><g fill="#000"><path d="m1 43v84.5h16v-54l27 21 42-32v-19l-42 32.5z" stroke="#000"/><path d="m71 127v-24.5l15.5-11.5v36z" stroke="#000"/><path d="m109.875 95v-37.425h12.45l.075 37.425zm-.15-42.9v-9.225h12.75v9.225zm44.842 44.025c-2.7 0-5.025-.3-6.975-.9s-3.725-1.2-5.325-1.8v-10.65c.9.65 2 1.35 3.3 2.1 1.35.7 2.825 1.3 4.425 1.8 1.65.5 3.4.75 5.25.75 1.6 0 2.675-.25 3.225-.75.55-.55.825-1.175.825-1.875s-.375-1.275-1.125-1.725c-.75-.5-1.725-.925-2.925-1.275s-2.475-.65-3.825-.9c-1.15-.2-2.3-.55-3.45-1.05-1.1-.55-2.125-1.275-3.075-2.175-.9-.95-1.625-2.1-2.175-3.45-.5-1.4-.75-3.025-.75-4.875 0-2.55.475-4.65 1.425-6.3 1-1.7 2.3-3.05 3.9-4.05 1.65-1.05 3.4-1.8 5.25-2.25s3.65-.65 5.4-.6c3.3.1 5.875.45 7.725 1.05s3.5 1.375 4.95 2.325l.075 9.375c-1.65-.9-3.35-1.775-5.1-2.625-1.7-.85-3.65-1.275-5.85-1.275-1.85 0-3.125.275-3.825.825s-1.05 1.25-1.05 2.1.25 1.525.75 2.025c.55.45 1.25.825 2.1 1.125.9.25 1.85.525 2.85.825 1.25.3 2.55.65 3.9 1.05s2.6 1 3.75 1.8 2.075 1.9 2.775 3.3c.75 1.4 1.125 3.25 1.125 5.55-.05 3.15-.9 5.65-2.55 7.5-1.6 1.8-3.725 3.1-6.375 3.9-2.65.75-5.525 1.125-8.625 1.125zm47.798 0c-2.7 0-5.025-.3-6.975-.9s-3.725-1.2-5.325-1.8v-10.65c.9.65 2 1.35 3.3 2.1 1.35.7 2.825 1.3 4.425 1.8 1.65.5 3.4.75 5.25.75 1.6 0 2.675-.25 3.225-.75.55-.55.825-1.175.825-1.875s-.375-1.275-1.125-1.725c-.75-.5-1.725-.925-2.925-1.275s-2.475-.65-3.825-.9c-1.15-.2-2.3-.55-3.45-1.05-1.1-.55-2.125-1.275-3.075-2.175-.9-.95-1.625-2.1-2.175-3.45-.5-1.4-.75-3.025-.75-4.875 0-2.55.475-4.65 1.425-6.3 1-1.7 2.3-3.05 3.9-4.05 1.65-1.05 3.4-1.8 5.25-2.25s3.65-.65 5.4-.6c3.3.1 5.875.45 7.725 1.05s3.5 1.375 4.95 2.325l.075 9.375c-1.65-.9-3.35-1.775-5.1-2.625-1.7-.85-3.65-1.275-5.85-1.275-1.85 0-3.125.275-3.825.825s-1.05 1.25-1.05 2.1.25 1.525.75 2.025c.55.45 1.25.825 2.1 1.125.9.25 1.85.525 2.85.825 1.25.3 2.55.65 3.9 1.05s2.6 1 3.75 1.8 2.075 1.9 2.775 3.3c.75 1.4 1.125 3.25 1.125 5.55-.05 3.15-.9 5.65-2.55 7.5-1.6 1.8-3.725 3.1-6.375 3.9-2.65.75-5.525 1.125-8.625 1.125zm36.548-1.125v-37.425h12.45l.075 37.425zm-.15-42.9v-9.225h12.75v9.225zm50.917 44.025c-6.55 0-11.475-1.7-14.775-5.1-3.25-3.4-4.875-8.475-4.875-15.225 0-7.35 1.65-12.55 4.95-15.6 3.3-3.1 8.2-4.65 14.7-4.65 4.3 0 7.925.7 10.875 2.1 2.95 1.35 5.175 3.525 6.675 6.525 1.55 2.95 2.325 6.825 2.325 11.625 0 6.7-1.725 11.775-5.175 15.225-3.4 3.4-8.3 5.1-14.7 5.1zm0-9.825c1.6 0 2.95-.375 4.05-1.125 1.15-.75 2.025-1.9 2.625-3.45.6-1.6.9-3.575.9-5.925 0-2.8-.3-4.95-.9-6.45-.6-1.55-1.475-2.625-2.625-3.225-1.1-.6-2.45-.9-4.05-.9-1.65 0-3.025.325-4.125.975-1.1.6-1.925 1.675-2.475 3.225-.5 1.5-.75 3.625-.75 6.375 0 3.65.6 6.325 1.8 8.025 1.2 1.65 3.05 2.475 5.55 2.475zm38.307-26.1c.9-.5 2.15-1 3.75-1.5s3.375-.95 5.325-1.35c1.95-.45 3.925-.8 5.925-1.05 2-.3 3.825-.45 5.475-.45 3.35 0 6.25.4 8.7 1.2s4.325 2.175 5.625 4.125c1.35 1.95 2.025 4.625 2.025 8.025v25.8h-12.375v-22.95c0-1-.15-1.875-.45-2.625-.25-.8-.65-1.45-1.2-1.95-.5-.5-1.2-.875-2.1-1.125-.85-.25-1.875-.375-3.075-.375-1.05 0-2.1.15-3.15.45-1 .25-1.7.525-2.1.825v27.75h-12.375z"/><path d="m108.84 128v-8.985h-3.54v-1.02h8.145v1.02h-3.525v8.985zm8.43 0v-10.005h1.08v4.5h5.325v-4.5h1.08v10.005h-1.08v-4.485h-5.325v4.485zm12.284 0v-10.005h6.315v1.02h-5.235v3.45h4.605v1.05h-4.605v3.465h5.235v1.02zm17.567 0v-10.005h4.11c.98 0 1.715.245 2.205.735.5.49.75 1.215.75 2.175 0 .58-.12 1.095-.36 1.545s-.575.805-1.005 1.065-.935.39-1.515.39l.45-.3 2.88 4.395h-1.275l-2.97-4.59.54.555h-2.73v4.035zm1.08-5.055h2.535c.83 0 1.43-.165 1.8-.495.38-.34.57-.83.57-1.47 0-.6-.14-1.075-.42-1.425-.28-.36-.805-.54-1.575-.54h-2.91zm10.633 5.055v-10.005h1.08v10.005zm10.142.15c-1.02 0-1.875-.19-2.565-.57-.69-.39-1.21-.965-1.56-1.725-.34-.77-.51-1.725-.51-2.865s.17-2.09.51-2.85c.35-.76.87-1.33 1.56-1.71s1.545-.57 2.565-.57c.55 0 1.09.055 1.62.165s1.04.28 1.53.51v1.125c-.47-.21-.96-.39-1.47-.54-.51-.16-1.03-.24-1.56-.24-.84 0-1.535.15-2.085.45-.54.29-.94.74-1.2 1.35-.26.6-.39 1.37-.39 2.31s.13 1.715.39 2.325.66 1.065 1.2 1.365c.55.29 1.245.435 2.085.435.4 0 .79-.03 1.17-.09s.755-.15 1.125-.27v-2.85h-2.415v-1.05h3.495v4.515c-.55.26-1.115.455-1.695.585s-1.18.195-1.8.195zm8.288-.15v-10.005h1.08v4.5h5.325v-4.5h1.08v10.005h-1.08v-4.485h-5.325v4.485zm14.849 0v-8.985h-3.54v-1.02h8.145v1.02h-3.525v8.985zm16.111-3.825v3.825h-1.08v-10.005h3.555c1.12 0 1.975.265 2.565.795.6.53.9 1.295.9 2.295s-.3 1.765-.9 2.295c-.59.53-1.445.795-2.565.795zm0-1.035h2.34c.56 0 1.005-.06 1.335-.18.34-.12.595-.28.765-.48.17-.21.28-.435.33-.675.06-.24.09-.48.09-.72s-.03-.48-.09-.72c-.05-.24-.16-.46-.33-.66-.17-.21-.425-.375-.765-.495-.33-.12-.775-.18-1.335-.18h-2.34zm8.266 4.86 3.99-10.005h1.08l3.975 10.005h-1.155l-3.465-9 .225-.03-3.48 9.03zm1.755-3.12.465-1.035h4.905l.075 1.035zm12.781 3.12v-8.985h-3.54v-1.02h8.145v1.02h-3.525v8.985zm8.43 0v-10.005h1.08v4.5h5.325v-4.5h1.08v10.005h-1.08v-4.485h-5.325v4.485zm21.449 0v-8.985h-3.54v-1.02h8.145v1.02h-3.525v8.985zm12.321.15c-.99 0-1.82-.19-2.49-.57-.66-.39-1.16-.965-1.5-1.725-.33-.76-.495-1.71-.495-2.85 0-1.7.375-2.98 1.125-3.84.76-.87 1.88-1.305 3.36-1.305 1 0 1.83.195 2.49.585.67.38 1.17.95 1.5 1.71.34.76.51 1.71.51 2.85 0 1.7-.38 2.985-1.14 3.855-.75.86-1.87 1.29-3.36 1.29zm0-1.02c.79 0 1.435-.145 1.935-.435s.865-.74 1.095-1.35c.24-.61.36-1.39.36-2.34s-.12-1.725-.36-2.325c-.23-.61-.595-1.06-1.095-1.35-.5-.3-1.145-.45-1.935-.45-.78 0-1.42.15-1.92.45-.5.29-.87.74-1.11 1.35-.23.6-.345 1.375-.345 2.325s.115 1.73.345 2.34c.24.61.61 1.06 1.11 1.35s1.14.435 1.92.435zm18.357 1.02c-.5 0-.925-.035-1.275-.105s-.665-.17-.945-.3-.585-.28-.915-.45v-1.17c.32.27.75.51 1.29.72s1.17.315 1.89.315c.76 0 1.31-.16 1.65-.48.35-.33.525-.745.525-1.245 0-.42-.115-.755-.345-1.005-.23-.26-.525-.47-.885-.63-.36-.17-.74-.33-1.14-.48-.34-.12-.68-.245-1.02-.375-.33-.14-.63-.31-.9-.51-.27-.21-.485-.475-.645-.795-.16-.33-.24-.74-.24-1.23 0-.27.05-.555.15-.855.11-.3.28-.58.51-.84.24-.26.555-.47.945-.63.4-.16.885-.24 1.455-.24.39 0 .72.03.99.09.28.05.545.13.795.24.25.1.53.225.84.375v1.11c-.26-.15-.51-.285-.75-.405-.23-.13-.49-.23-.78-.3-.28-.08-.625-.12-1.035-.12-.49 0-.885.07-1.185.21-.29.14-.505.325-.645.555-.13.23-.195.475-.195.735 0 .41.09.735.27.975.19.24.45.44.78.6.34.15.73.3 1.17.45.35.12.7.255 1.05.405.35.14.665.32.945.54.29.21.52.48.69.81.18.32.27.72.27 1.2 0 .45-.1.895-.3 1.335-.2.43-.54.79-1.02 1.08-.48.28-1.145.42-1.995.42zm11.65 0c-1.24 0-2.205-.365-2.895-1.095-.68-.73-1.02-1.775-1.02-3.135v-5.925h1.08v5.985c0 1.07.24 1.865.72 2.385.48.51 1.185.765 2.115.765s1.64-.255 2.13-.765c.49-.52.735-1.315.735-2.385v-5.985h1.05v5.925c0 .91-.155 1.68-.465 2.31s-.755 1.11-1.335 1.44c-.58.32-1.285.48-2.115.48zm12.906-.03c-1.54 0-2.7-.43-3.48-1.29-.77-.86-1.155-2.14-1.155-3.84s.385-2.98 1.155-3.84c.78-.86 1.94-1.29 3.48-1.29.53 0 1.05.065 1.56.195s1.005.31 1.485.54v1.035c-.46-.25-.935-.435-1.425-.555-.49-.13-.99-.195-1.5-.195-.84 0-1.53.145-2.07.435-.53.29-.925.74-1.185 1.35-.25.6-.375 1.375-.375 2.325s.125 1.73.375 2.34c.26.6.655 1.045 1.185 1.335.54.29 1.23.435 2.07.435.51 0 1.01-.06 1.5-.18s.965-.305 1.425-.555v1.035c-.32.15-.65.28-.99.39-.33.11-.67.19-1.02.24-.34.06-.685.09-1.035.09zm11.581 0c-1.54 0-2.7-.43-3.48-1.29-.77-.86-1.155-2.14-1.155-3.84s.385-2.98 1.155-3.84c.78-.86 1.94-1.29 3.48-1.29.53 0 1.05.065 1.56.195s1.005.31 1.485.54v1.035c-.46-.25-.935-.435-1.425-.555-.49-.13-.99-.195-1.5-.195-.84 0-1.53.145-2.07.435-.53.29-.925.74-1.185 1.35-.25.6-.375 1.375-.375 2.325s.125 1.73.375 2.34c.26.6.655 1.045 1.185 1.335.54.29 1.23.435 2.07.435.51 0 1.01-.06 1.5-.18s.965-.305 1.425-.555v1.035c-.32.15-.65.28-.99.39-.33.11-.67.19-1.02.24-.34.06-.685.09-1.035.09zm7.396-.12v-10.005h6.315v1.02h-5.235v3.45h4.605v1.05h-4.605v3.465h5.235v1.02zm13.801.15c-.5 0-.925-.035-1.275-.105s-.665-.17-.945-.3-.585-.28-.915-.45v-1.17c.32.27.75.51 1.29.72s1.17.315 1.89.315c.76 0 1.31-.16 1.65-.48.35-.33.525-.745.525-1.245 0-.42-.115-.755-.345-1.005-.23-.26-.525-.47-.885-.63-.36-.17-.74-.33-1.14-.48-.34-.12-.68-.245-1.02-.375-.33-.14-.63-.31-.9-.51-.27-.21-.485-.475-.645-.795-.16-.33-.24-.74-.24-1.23 0-.27.05-.555.15-.855.11-.3.28-.58.51-.84.24-.26.555-.47.945-.63.4-.16.885-.24 1.455-.24.39 0 .72.03.99.09.28.05.545.13.795.24.25.1.53.225.84.375v1.11c-.26-.15-.51-.285-.75-.405-.23-.13-.49-.23-.78-.3-.28-.08-.625-.12-1.035-.12-.49 0-.885.07-1.185.21-.29.14-.505.325-.645.555-.13.23-.195.475-.195.735 0 .41.09.735.27.975.19.24.45.44.78.6.34.15.73.3 1.17.45.35.12.7.255 1.05.405.35.14.665.32.945.54.29.21.52.48.69.81.18.32.27.72.27 1.2 0 .45-.1.895-.3 1.335-.2.43-.54.79-1.02 1.08-.48.28-1.145.42-1.995.42zm10.57 0c-.5 0-.925-.035-1.275-.105s-.665-.17-.945-.3-.585-.28-.915-.45v-1.17c.32.27.75.51 1.29.72s1.17.315 1.89.315c.76 0 1.31-.16 1.65-.48.35-.33.525-.745.525-1.245 0-.42-.115-.755-.345-1.005-.23-.26-.525-.47-.885-.63-.36-.17-.74-.33-1.14-.48-.34-.12-.68-.245-1.02-.375-.33-.14-.63-.31-.9-.51-.27-.21-.485-.475-.645-.795-.16-.33-.24-.74-.24-1.23 0-.27.05-.555.15-.855.11-.3.28-.58.51-.84.24-.26.555-.47.945-.63.4-.16.885-.24 1.455-.24.39 0 .72.03.99.09.28.05.545.13.795.24.25.1.53.225.84.375v1.11c-.26-.15-.51-.285-.75-.405-.23-.13-.49-.23-.78-.3-.28-.08-.625-.12-1.035-.12-.49 0-.885.07-1.185.21-.29.14-.505.325-.645.555-.13.23-.195.475-.195.735 0 .41.09.735.27.975.19.24.45.44.78.6.34.15.73.3 1.17.45.35.12.7.255 1.05.405.35.14.665.32.945.54.29.21.52.48.69.81.18.32.27.72.27 1.2 0 .45-.1.895-.3 1.335-.2.43-.54.79-1.02 1.08-.48.28-1.145.42-1.995.42z"/></g><path d="m452.441 128h-26.132l-16.934-32.7539-6.855 4.1016v28.6523h-23.262v-85.6641h23.262v37.2071c.976-1.875 2.089-3.75 3.339-5.625 1.289-1.875 2.539-3.6524 3.75-5.3321l17.989-26.25h25.312l-27.012 38.3789zm79.875 0-4.218-16.055h-27.832l-4.336 16.055h-25.43l27.949-86.0156h30.879l28.301 86.0156zm-9.023-35.0391-3.691-14.0625c-.391-1.5234-.957-3.6914-1.7-6.5039-.742-2.8515-1.484-5.7812-2.226-8.789-.703-3.0469-1.25-5.5469-1.641-7.5-.351 1.9531-.859 4.375-1.523 7.2656-.625 2.8516-1.289 5.6836-1.992 8.4961-.665 2.8125-1.25 5.1562-1.758 7.0312l-3.692 14.0625zm117.668 9.0231c0 4.649-1.172 9.063-3.516 13.243-2.343 4.14-5.996 7.5-10.957 10.078-4.922 2.578-11.289 3.867-19.101 3.867-3.907 0-7.344-.176-10.313-.527-2.929-.352-5.664-.918-8.203-1.7-2.539-.82-5.176-1.875-7.91-3.164v-20.625c4.648 2.344 9.336 4.141 14.062 5.391 4.727 1.211 9.004 1.816 12.832 1.816 2.305 0 4.18-.273 5.625-.82 1.485-.547 2.579-1.289 3.282-2.227.703-.976 1.054-2.089 1.054-3.339 0-1.485-.527-2.735-1.582-3.75-1.015-1.0551-2.656-2.1489-4.922-3.2817-2.265-1.1328-5.253-2.5391-8.964-4.2187-3.164-1.4844-6.036-3.0078-8.614-4.5704-2.539-1.5624-4.726-3.3398-6.562-5.332-1.797-2.0312-3.184-4.3945-4.16-7.0898-.977-2.6953-1.465-5.8789-1.465-9.5508 0-5.5078 1.348-10.1172 4.043-13.8281 2.734-3.75 6.523-6.5625 11.367-8.4375 4.883-1.875 10.508-2.8125 16.875-2.8125 5.586 0 10.606.625 15.059 1.875 4.492 1.25 8.515 2.6758 12.07 4.2773l-7.09 17.8711c-3.672-1.6797-7.285-3.0078-10.84-3.9844-3.554-1.0156-6.855-1.5234-9.902-1.5234-1.992 0-3.633.2539-4.922.7617-1.25.4688-2.187 1.1133-2.812 1.9336-.586.8203-.879 1.7578-.879 2.8125 0 1.3281.507 2.5195 1.523 3.5742 1.055 1.0547 2.793 2.2071 5.215 3.4571 2.461 1.2109 5.801 2.7929 10.019 4.746 4.18 1.875 7.735 3.9063 10.665 6.0938 2.929 2.1484 5.156 4.7461 6.679 7.793 1.563 3.0078 2.344 6.7382 2.344 11.191z" fill="#10b981"/></svg>