<svg fill="none" height="255" viewBox="0 0 243 255" width="243" xmlns="http://www.w3.org/2000/svg"><g fill="#10b981"><path d="m7.88324 52.7798s.17136.7368.51409 2.2105c.34731 1.4787.82028 3.4871 1.41891 6.0251.60326 2.5379 1.29556 5.6004 2.07696 9.1873.786 3.5921 1.5903 7.4348 2.4128 11.5283.8226 4.0935 1.6908 8.4122 2.6048 12.9559.9185 4.5438 1.9193 9.5431 3.0023 14.9971 1.0876 5.455 2.2689 11.25 3.5439 17.385 1.2795 6.14 2.6413 12.498 4.0853 19.073 1.4441 6.575 2.8767 13.094 4.2979 19.557 1.4166 6.457 2.7738 12.48 4.0716 18.068 1.2978 5.587 2.5271 10.809 3.6878 15.665 1.1653 4.856 2.2209 9.254 3.1669 13.194.9413 3.945 1.7662 7.322 2.4745 10.131.7037 2.804 1.3252 5.242 1.8644 7.315.5347 2.072 1.01 3.891 1.4258 5.457.4159 1.566.7837 2.924 1.1036 4.075.3153 1.152.6055 2.109.8705 2.871.2605.757.5735 1.642.9391 2.656.3656 1.008.5735 1.57.6238 1.688.0503.113.0823.236.096.369.0137.127.0068.253-.0206.376-.0229.128-.064.248-.1234.36-.0594.108-.1325.205-.2193.292-.0869.082-.1828.148-.2879.2-.1051.046-.2171.074-.3359.084-.1142.005-.2262-.008-.3359-.038-.1097-.036-.2125-.09-.3084-.162-.096-.071-.1805-.158-.2537-.26-.0685-.103-.1211-.213-.1576-.331-.0411-.122-.0617-.248-.0617-.376 0-.133.0183-.261.0548-.383.0366-.123.0891-.236.1577-.338.0685-.102.1508-.189.2468-.261.0913-.072.1942-.125.3084-.161.1097-.036.2216-.051.3359-.046.1142.005.2262.03.3359.076.1051.047.2033.11.2947.192.0868.087.16.185.2194.292.0594.113.1028.23.1302.353.0228.128.0297.256.0206.384-.0137.128-.0435.251-.0891.368-.0457.118-.1097.223-.192.315-.0777.097-.1668.176-.2673.238-.1005.061-.2079.102-.3222.123-.1142.02-.2285.02-.3427 0-.1143-.021-.2216-.059-.3222-.115-.1005-.062-.1919-.139-.2742-.231-.0776-.092-.1165-.138-.1165-.138s-.2193-.614-.658-1.842c-.4342-1.228-.7426-2.241-.9254-3.039-.1782-.793-.4273-1.768-.7472-2.925-.3198-1.161-.69-2.527-1.1104-4.098-.4159-1.571-.8911-3.393-1.4258-5.465-.5392-2.078-1.163-4.526-1.8713-7.345-.7129-2.815-1.54-6.192-2.4814-10.132-.9459-3.94-2.0015-8.34-3.1668-13.201-1.1699-4.866-2.4037-10.096-3.7015-15.689-1.3024-5.592-2.6642-11.62-4.0854-18.083-1.4212-6.457-2.8561-12.979-4.3047-19.564-1.4486-6.58-2.8149-12.943-4.0991-19.088-1.2841-6.141-2.4699-11.936-3.5575-17.385-1.0922-5.449-2.0998-10.4461-3.0229-14.9899-.9277-4.5438-1.8073-8.8547-2.639-12.9329-.8317-4.0781-1.6451-7.9004-2.4403-11.4669-.79512-3.5664-1.50343-6.6161-2.12492-9.1489-.62605-2.5329-1.12187-4.5336-1.48745-6.0021-.37472-1.4634-.56894-2.2438-.58265-2.341s-.01599-.1893-.00685-.2763c.00914-.0972.02742-.1919.05484-.284.02741-.0921.06626-.1765.11652-.2533.0457-.0818.10054-.156.16452-.2226.06397-.0665.13252-.1228.20563-.1688.07769-.0461.15766-.0819.23992-.1075.08225-.0255.16679-.0409.25362-.046.08225 0 .16451.0102.24677.0307.08225.0205.16222.0512.23991.0921.07768.046.14851.0998.21249.1612.06855.0614.12795.1305.17822.2072.05027.0819.0914.1663.12338.2533.03199.087.04799.1305.04799.1305z"/><path d="m7.12894 53.3392s.15537-.2738.46611-.8213c.31075-.5526.76772-1.2741 1.37093-2.1644.61235-.8955 1.07842-1.5683 1.39832-2.0186.3199-.4554.6421-.9108.9665-1.3662.3245-.4605.6421-.9159.9528-1.3662.3062-.4503.722-1.0899 1.2476-1.9189.5255-.8238 1.003-1.6015 1.4326-2.3332.425-.7318.8888-1.4865 1.3915-2.2643.4981-.7777.9985-1.5325 1.5011-2.2642.5027-.7266.9528-1.4097 1.3504-2.0493.3976-.6345.7472-1.1871 1.0488-1.6578.3016-.4657.6443-1.0285 1.0282-1.6886.3838-.6601.7768-1.3253 1.179-1.9956.3975-.6703.8157-1.3227 1.2543-1.9572.4433-.6396.8523-1.2357 1.227-1.7883.3702-.5527.7266-1.0951 1.0694-1.6272.3381-.5373.8339-1.0387 1.4874-1.5044.6535-.4605 1.3984-.5679 2.2346-.3223.8409.2507 1.4441.6217 1.8096 1.1129.3702.4912.7266.9517 1.0694 1.3815.3381.4247.6946.8699 1.0693 1.3355.3747.4708.7631.9748 1.1653 1.5121.4067.5373.7745 1.0387 1.1036 1.5043.3336.4657.6946.9288 1.083 1.3893s.7769.9005 1.1653 1.3201.8568.8597 1.4052 1.3202c.5484.4554 1.0625.9057 1.5423 1.3508.4798.4452.9985.939 1.556 1.4814.5575.5475 1.0076 1.0336 1.3503 1.4583.3382.4298.6832.9619 1.0351 1.5964s.5621 1.2869.6306 1.9572c.0731.6755.0092 1.2716-.1919 1.7884-.1965.5219-.5347.9261-1.0145 1.2127-.4753.2814-.9391.5782-1.3915.8903-.4524.307-.9528.5987-1.5012.875-.5438.2814-1.1127.5654-1.7068.852-.594.2865-1.2041.5551-1.8301.8059-.6215.2507-1.1676.5193-1.6383.8059-.4707.2814-.9894.6319-1.556 1.0515-.5667.4145-1.1082.8264-1.6246 1.2357-.5163.4094-1.0144.7931-1.4943 1.1513-.4752.3582-.9665.6985-1.4737 1.0208-.5072.3173-1.0282.6089-1.5629.875-.5346.2661-1.0784.5066-1.6314.7215-.5483.2098-1.1424.4221-1.7822.637-.6397.2098-1.2498.3915-1.8302.545-.5849.1535-1.1972.3172-1.837.4912-.6352.174-1.2453.3096-1.8302.4068-.5803.0921-1.1676.1765-1.7616.2533-.5895.0767-1.1265.1407-1.6109.1919-.4889.0511-1.0259.0972-1.6108.1381-.5849.041-1.1927.0998-1.8233.1766-.6307.0767-1.54.0921-2.7282.046-1.18354-.0409-1.89871-.0921-2.14548-.1535-.25133-.0614-.48668-.1637-.70602-.307-.21935-.1484-.41128-.3326-.57579-.5526-.16908-.2149-.30161-.4554-.39757-.7215-.09597-.2661-.1508-.5398-.16451-.8213-.01371-.2814.01142-.5603.0754-.8366.06854-.2763.17365-.5347.31531-.7752.14623-.2354.31988-.44.52095-.614s.42271-.307.6649-.3991c.2422-.0921.49125-.1407.74716-.1459.25133 0 .4981.0461.7403.1382.2422.087.46611.2175.67175.3914.2011.174.3747.3787.521.6141.1416.2353.249.4912.3221.7675.0686.2763.096.5526.0823.8289-.0137.2866-.0663.5629-.1577.829-.0959.266-.2262.5091-.3907.7291s-.3541.4042-.56893.5526c-.21935.1484-.45469.2533-.70602.3147-.24677.0614-.49582.0793-.74716.0538-.25134-.0307-.49353-.1049-.72659-.2226-.23306-.1228-.44327-.2815-.63063-.4759s-.34044-.417-.45926-.6678c-.11881-.2558-.20107-.5244-.24676-.8059-.04113-.2814-.04113-.5603 0-.8366.04112-.2814.11881-.55.23305-.8059.11882-.2507.2719-.4758.45926-.6754.18279-.1996.39072-.3582.62378-.4759.23305-.1228.47525-.1995.72659-.2302.25133-.0358.377-.0538.377-.0538s.23991.0231.71974.0691c.47982.041 1.02363-.0025 1.63143-.1305.6032-.1228 1.1653-.2123 1.6862-.2686.521-.0512 1.0716-.0947 1.652-.1305.5803-.0307 1.1219-.0588 1.6245-.0844.5027-.0307 1.0396-.0768 1.6109-.1382.5712-.0665 1.131-.1509 1.6793-.2532.5438-.1024 1.0557-.2124 1.5355-.3301.4798-.1228.9688-.2507 1.4669-.3837.4981-.128 1.0008-.2789 1.508-.4529.5072-.1688 1.1082-.394 1.8028-.6754.6946-.2866 1.3252-.5961 1.8918-.9287.5713-.3275 1.0625-.6448 1.4738-.9518s.882-.6754 1.412-1.1052c.5256-.4349 1.1173-.9108 1.7754-1.4276.6535-.5219 1.3481-1.008 2.0838-1.4583.7357-.4554 1.4692-.8469 2.2003-1.1743.7266-.3326 1.3184-.6115 1.7754-.8367.4524-.22.9048-.4477 1.3572-.6831.457-.2302.9208-.4528 1.3915-.6677.4752-.22.5918.0691.3496.8673-.2376.7982-.2239 1.443.0411 1.9342.2651.4963.1965.4426-.2056-.1612-.4067-.6038-.7929-1.1334-1.1585-1.5888-.361-.4605-.7357-.875-1.1241-1.2434-.3885-.3735-.8066-.7726-1.2544-1.1973-.4479-.4196-.9208-.8469-1.4189-1.2818-.5027-.4298-.9825-.8903-1.4395-1.3816-.4615-.4912-.9208-1.0003-1.3778-1.5274-.457-.5321-.8728-1.0566-1.2475-1.5734-.3747-.5219-.7403-1.0157-1.0968-1.4813-.361-.4657-.7334-.9339-1.1173-1.4046-.3793-.4708-.7448-.9236-1.0967-1.3585-.3473-.435-.6855-.8801-1.0145-1.3355-.3245-.4606-.1736-.6576.4524-.591.6306.0614 1.1996-.0282 1.7068-.2687.5027-.2456.5941-.1074.2742.4145-.3199.527-.6398 1.0055-.9597 1.4353-.3153.4298-.6968.944-1.1447 1.5427-.4432.5987-.85 1.1513-1.2201 1.6579-.3702.5065-.7015.9875-.9939 1.4429-.2925.4503-.5895.9057-.8911 1.3662-.3016.4606-.6032.9032-.9048 1.3279-.2971.4247-.6284.898-.994 1.4199-.3655.5168-.7997 1.1359-1.3023 1.8574-.4981.7266-.9985 1.4302-1.5012 2.1107-.5027.6857-.9848 1.3816-1.4463 2.0877-.457.7113-.9505 1.4583-1.4806 2.2412-.5256.7829-.9391 1.3969-1.2407 1.8421-.3062.44-.6238.8929-.9528 1.3585-.329.4605-.6581.9159-.9871 1.3662-.3336.4503-.6717.9108-1.0145 1.3816-.3473.4758-.7997 1.0694-1.3572 1.7806-.5529.7113-.9871 1.3355-1.3024 1.8728-.3153.5475-.5186.8827-.61003 1.0055-.09139.1228-.19421.2328-.30845.33-.11882.0972-.2422.1765-.37015.2379-.13253.0614-.26962.1049-.41128.1305s-.28333.0307-.42499.0154c-.14166-.0154-.28104-.0486-.41813-.0998-.13252-.0512-.26048-.1202-.38386-.2072-.11882-.087-.22849-.1868-.32902-.2994-.10054-.1177-.18508-.2456-.25363-.3837-.07311-.1433-.12795-.2917-.16451-.4452-.04112-.1535-.06397-.3121-.06854-.4759-.00457-.1535.00685-.3095.03427-.4682.03199-.1535.07997-.3044.14395-.4528.0594-.1433.08911-.2149.08911-.2149z"/><path d="m30.0537 23.6965s.5529.0103 1.6588.0307c1.1059.0154 2.2186.0154 3.3382 0 1.1242-.0153 2.2712-.0537 3.441-.1151 1.1699-.0614 2.3969-.1356 3.681-.2226 1.2886-.0818 2.6321-.1739 4.0305-.2763 1.4029-.0972 2.8812-.2328 4.4349-.4068 1.5538-.1791 3.2126-.4093 4.9765-.6908 1.7685-.2814 3.5964-.6063 5.4837-.9747 1.8919-.3684 3.7838-.7701 5.6756-1.205 1.8919-.4401 3.7564-.9032 5.5934-1.3893 1.8416-.4912 3.681-1.0003 5.518-1.5274 1.837-.5219 3.6535-1.0336 5.4494-1.535 1.7914-.5066 3.5553-1.0004 5.2918-1.4814 1.7365-.4861 3.4296-.9619 5.0793-1.4276 1.6497-.4656 3.2377-.921 4.764-1.3662 1.5263-.4451 2.9882-.8673 4.3872-1.26639 1.398-.39911 2.705-.7573 3.921-1.07454 1.211-.31213 2.294-.57565 3.249-.79056.955-.22002 1.766-.42214 2.433-.60635.667-.18932 1.355-.40679 2.063-.6524.704-.25072 1.323-.37097 1.858-.36074.53.01535 1.01.29167 1.439.82894.43.53727.976 1.5325 1.639 2.98564.662 1.4532 1.565 3.4181 2.707 5.8947 1.143 2.4765 2.459 5.3573 3.949 8.6424 1.489 3.285 3.086 6.9564 4.791 11.014 1.704 4.0628 3.448 8.4557 5.23 13.1785 1.787 4.7229 3.587 9.7579 5.401 15.105 1.815 5.342 3.608 10.9987 5.381 16.9701 1.769 5.9714 3.578 12.3547 5.429 19.1497 1.846 6.795 3.67 13.634 5.47 20.516 1.805 6.877 3.457 13.199 4.956 18.966 1.499 5.762 2.966 11.188 4.401 16.279 1.435 5.092 2.847 9.825 4.236 14.2s2.634 8.105 3.736 11.19c1.096 3.086 2.081 5.757 2.954 8.013.868 2.257 1.654 4.178 2.358 5.764.704 1.587 1.312 2.871 1.823 3.853.512.978.953 1.74 1.323 2.288.37.547.743.995 1.118 1.343.374.353.523.54.445.56-.078.026-.057.041.062.046.123.01.24.036.349.077.115.041.222.097.323.169.1.071.194.156.281.253.082.092.153.197.212.315.06.112.108.233.144.36.032.128.053.259.062.392.004.133-.005.266-.028.399-.022.128-.059.253-.109.376-.051.123-.112.235-.185.338-.078.102-.163.194-.254.276-.096.082-.199.151-.308.207-.11.052-.224.087-.343.108-.114.025-.72.266-1.817.721-1.096.456-2.282.911-3.557 1.367-1.271.46-2.69.967-4.257 1.519-1.567.553-3.155 1.123-4.764 1.712-1.613.583-3.24 1.174-4.88 1.773-1.646.604-3.268 1.21-4.867 1.819-1.604.609-3.14 1.2-4.607 1.773-1.471.573-2.915 1.154-4.332 1.742-1.421.583-2.826 1.187-4.215 1.812-1.389.624-2.776 1.258-4.161 1.903-1.389.64-2.776 1.277-4.161 1.911-1.389.64-2.767 1.267-4.133 1.881-1.371.614-2.758 1.238-4.161 1.872-1.407.64-2.826 1.282-4.257 1.927-1.43.65-2.853 1.261-4.27 1.834-1.412.573-2.815 1.106-4.209 1.597-1.389.496-2.746.959-4.071 1.389-1.33.43-2.598.816-3.805 1.159-1.206.348-2.401.678-3.585.99-1.179.317-2.346.629-3.502.936-1.161.307-2.278.612-3.352.914-1.0697.302-2.1207.588-3.1535.859-1.0282.272-2.0313.512-3.0092.722-.9779.215-1.933.412-2.8652.591-.9277.184-1.8302.371-2.7076.56-.8728.19-1.7525.361-2.639.514-.8911.149-1.7959.274-2.7145.377-.9139.097-1.7776.202-2.591.314-.8134.118-1.5766.238-2.2895.361-.7174.123-1.4234.246-2.118.368-.6992.118-1.3778.236-2.0359.353-.6626.118-1.2795.244-1.8507.377-.5712.138-1.1288.276-1.6726.414-.5392.138-1.0556.271-1.5491.399-.489.123-1.0556.294-1.7.514-.6397.215-1.6199.535-2.9406.96-1.3207.424-2.0792.629-2.2757.614-.2011-.021-.393-.077-.5758-.169-.1874-.087-.3542-.207-.5004-.361-.1508-.148-.2742-.32-.3702-.514-.1005-.2-.169-.409-.2056-.629s-.0411-.443-.0137-.668c.0274-.22.0868-.433.1782-.637.0868-.2.2034-.379.3496-.537.1417-.159.3016-.287.4798-.384.1828-.097.3725-.161.569-.192.201-.031.3998-.026.5963.015.1965.046.3816.126.5552.238.1783.113.3336.251.4662.415.1325.168.2376.358.3153.568.0777.204.1256.419.1439.644.0137.225-.0046.445-.0548.66-.0457.22-.1234.425-.2331.614-.1097.19-.2422.353-.3976.492-.1599.143-.3335.253-.5209.33-.1874.076-.3816.117-.5826.122-.2011.006-.3976-.025-.5895-.092-.192-.071-.3702-.171-.5347-.299-.1599-.133-.2993-.292-.4181-.476-.1143-.184-.2011-.384-.2605-.598-.0594-.215-.0868-.435-.0823-.661.0092-.225.048-.442.1166-.652.0731-.21.1713-.402.2947-.576.128-.174.2765-.322.4456-.445.169-.117.3518-.204.5483-.261.1965-.051.2948-.077.2948-.077-.0046 0 .2993-.071.9116-.214.6078-.139 1.179-.29 1.7137-.453.5347-.159 1.1676-.3 1.8987-.422.7358-.118 1.3504-.21 1.8439-.277.489-.066 1.0191-.14 1.5903-.222.5712-.087 1.1653-.172 1.7822-.254.6215-.076 1.2658-.143 1.933-.199.6672-.062 1.355-.123 2.0633-.184.7037-.057 1.4212-.115 2.1523-.177.7312-.056 1.508-.118 2.3306-.184.818-.067 1.6725-.143 2.5636-.23.8866-.082 1.764-.182 2.6322-.3.8683-.117 1.7457-.256 2.6322-.414.8819-.154 1.7822-.312 2.7007-.476.9185-.159 1.8553-.343 2.8104-.553.9551-.204 1.9422-.442 2.9612-.713 1.0236-.267 2.0747-.551 3.1531-.852 1.0784-.302 2.1984-.609 3.3584-.921 1.161-.313 2.324-.622 3.489-.929 1.17-.312 2.352-.64 3.544-.983 1.188-.342 2.438-.726 3.75-1.151 1.311-.425 2.652-.88 4.023-1.366 1.367-.486 2.747-1.013 4.141-1.581 1.393-.563 2.803-1.169 4.229-1.819 1.43-.65 2.849-1.295 4.257-1.934 1.403-.645 2.785-1.275 4.147-1.889 1.361-.614 2.735-1.243 4.119-1.888 1.385-.639 2.77-1.287 4.154-1.942 1.389-.649 2.786-1.297 4.188-1.941 1.403-.645 2.815-1.269 4.237-1.873 1.421-.609 2.865-1.213 4.332-1.812 1.467-.593 3-1.212 4.599-1.857 1.595-.645 3.208-1.287 4.84-1.926 1.626-.645 3.237-1.29 4.832-1.935 1.59-.644 3.149-1.279 4.675-1.903s2.902-1.215 4.126-1.773c1.221-.558 2.256-1.044 3.106-1.458.845-.41 1.544-.678 2.097-.806.548-.123.882-.182 1.001-.177.119.01.235.036.349.077.115.041.222.097.323.169.1.071.194.156.281.253.082.092.153.197.212.315.06.112.108.233.144.36.032.128.053.259.062.392.004.133-.005.266-.028.399-.022.128-.059.253-.109.376-.051.123-.112.235-.185.338-.078.102-.163.194-.254.276-.096.082-.199.151-.308.207-.11.052-.224.087-.343.108-.114.025-.11.002.014-.069.123-.067-.151-.259-.823-.576-.676-.317-1.213-.811-1.611-1.481-.402-.671-.747-1.32-1.035-1.95-.288-.629-.697-1.453-1.227-2.471s-1.156-2.336-1.878-3.953c-.718-1.622-1.515-3.569-2.392-5.841-.878-2.272-1.872-4.963-2.982-8.074-1.111-3.106-2.367-6.859-3.77-11.26-1.399-4.395-2.82-9.144-4.264-14.245-1.444-5.107-2.918-10.541-4.421-16.303-1.508-5.761-3.167-12.076-4.976-18.942-1.81-6.867-3.643-13.691-5.498-20.47-1.851-6.7751-3.667-13.1277-5.449-19.0582-1.778-5.9355-3.581-11.5564-5.409-16.8626s-3.644-10.2977-5.449-14.9745c-1.801-4.6768-3.569-9.0236-5.306-13.0404-1.731-4.0116-3.367-7.6395-4.907-10.8835-1.536-3.2339-2.909-6.061-4.12-8.4813-1.216-2.4151-2.157-4.3877-2.824-5.9176-.667-1.53-1.371-2.27191-2.111-2.22586-.741.05117-1.447.11257-2.118.18421-.668.07675-1.47.22002-2.406.42982-.942.20983-2.011.47073-3.208.78283-1.202.3122-2.5.6678-3.894 1.0669-1.398.394-2.863.8162-4.3937 1.2664-1.5308.4452-3.1211.9032-4.7708 1.3739-1.6497.4657-3.3428.939-5.0793 1.4199-1.7319.4862-3.4958.9825-5.2918 1.4891-1.7913.5014-3.6101 1.0157-5.4562 1.5427-1.8462.527-3.697 1.0387-5.5523 1.5351-1.8553.4963-3.7381.967-5.6482 1.4122-1.9102.4401-3.8181.8494-5.7236 1.2281-1.9102.3735-3.761.7061-5.5523.9978-1.7868.2916-3.4684.5295-5.045.7138-1.5766.179-3.0663.3249-4.4692.4374-1.3984.1075-2.7442.2098-4.0374.3071-1.2932.0972-2.5339.1867-3.7221.2686-1.1881.0767-2.3511.1381-3.489.1842-1.1378.0409-2.2597.0691-3.3656.0844-1.1059.0205-1.6999.0231-1.7822.0077-.0868-.0102-.1691-.0307-.2468-.0614-.0822-.0358-.1599-.0819-.233-.1382-.0686-.0562-.1326-.1202-.192-.1918-.0548-.0717-.1028-.1484-.1439-.2303-.0411-.087-.0708-.1765-.0891-.2686-.0229-.0973-.0343-.1919-.0343-.284s.0114-.1868.0343-.284c.0183-.0921.048-.1817.0891-.2686.0411-.0819.0891-.1587.1439-.2303.0594-.0716.1234-.1356.192-.1919.0731-.0563.1508-.1023.233-.1381.0777-.0307.16-.0512.2468-.0614.0823-.0154.1234-.0231.1234-.0231z"/><path d="m38.4126 73.1458s.3427-.1152 1.0282-.3454c.6854-.2354 1.3595-.481 2.0221-.7369.658-.2558 1.3481-.527 2.0701-.8135.7174-.2815 1.4737-.5629 2.2689-.8443.7951-.2763 1.6154-.5424 2.4608-.7983.85-.2609 1.7616-.5168 2.735-.7675.9733-.2507 2.0038-.5219 3.0914-.8136 1.0831-.2865 2.1638-.5884 3.2423-.9057 1.083-.3121 2.2254-.6293 3.4273-.9517 1.2064-.3275 2.4562-.6601 3.7495-.9978 1.2932-.3377 2.6093-.6856 3.9482-1.0438 1.3435-.3633 2.7373-.7292 4.1814-1.0976 1.4394-.3684 2.888-.7445 4.3458-1.1283 1.4623-.3786 2.8927-.7573 4.291-1.1359 1.3983-.3787 2.7784-.7675 4.1402-1.1667 1.3618-.3991 2.687-.7982 3.9757-1.1973 1.2841-.3991 2.4905-.7675 3.6192-1.1052 1.1288-.3429 2.1958-.6678 3.2011-.9748 1.0054-.3121 1.9536-.6166 2.8447-.9134.8865-.2967 1.7185-.5884 2.4955-.875.772-.2865 1.501-.5654 2.186-.8366.69-.2712 1.328-.5372 1.913-.7982.589-.261 1.14-.5168 1.652-.7675.516-.2508 1.019-.4989 1.508-.7445s1.11-.5654 1.864-.9594c.75-.3889 1.574-.7266 2.475-1.0132.895-.2865 1.432-.4579 1.61-.5142.179-.0614.359-.0896.542-.0845.187.0052.366.0461.535.1228.173.0717.333.1715.479.2994.142.133.263.2865.364.4605.096.174.167.3607.212.5603.046.2047.06.4094.041.614-.013.2047-.059.4017-.137.591-.073.1893-.171.3608-.294.5143-.124.1535-.265.2814-.425.3837-.165.1024-.336.1715-.515.2073-.182.0409-.365.046-.548.0153s-.356-.0921-.521-.1842c-.164-.0921-.313-.2123-.445-.3607-.128-.1433-.233-.3096-.316-.4989-.082-.1842-.135-.3787-.157-.5833-.023-.2047-.019-.4094.013-.6141.037-.2046.101-.3965.192-.5756.092-.1791.206-.3377.343-.4759.142-.133.297-.2405.466-.3223.169-.0819.345-.1305.528-.1459.187-.0153.37.0026.548.0537.179.0512.345.1331.501.2457.155.1074.29.243.404.4067.114.1638.203.3429.267.5373.064.1945.099.394.103.5987.005.2098-.02.4119-.075.6063-.055.1996-.137.3838-.247.5527-.11.1637-.24.307-.391.4298-.15.1177-.226.1765-.226.1765s-.512.1407-1.535.4222c-1.028.2763-1.936.5475-2.722.8135-.786.261-1.439.4836-1.96.6678-.526.1791-1.069.3607-1.631.5449s-1.159.3685-1.789.5527c-.631.1842-1.303.376-2.016.5756s-1.464.4094-2.255.6294c-.79.2251-1.636.4759-2.5361.7522-.9002.2814-1.8553.5782-2.8652.8903s-2.077.6396-3.2011.9824c-1.1196.3377-2.3283.7113-3.6261 1.1206-1.2933.4043-2.6254.8085-3.9963 1.2127-1.3709.4043-2.7578.8008-4.1608 1.1897-1.4029.3838-2.8332.7726-4.291 1.1666-1.4623.3889-2.9086.7727-4.3389 1.1513-1.4304.3787-2.815.7573-4.1539 1.136-1.3436.3786-2.6574.747-3.9415 1.1052-1.2795.3582-2.511.7138-3.6946 1.0669-1.179.3479-2.3077.701-3.3862 1.0592s-2.1523.7087-3.2217 1.0515c-1.0647.348-2.0701.6857-3.016 1.0131-.9414.3224-1.8188.6217-2.6322.8981-.8134.2763-1.6085.5551-2.3854.8366-.7723.2814-1.5286.5628-2.2689.8442-.7403.2712-1.4669.5245-2.1798.7599-.7128.2303-1.4189.4349-2.118.614-.6992.1791-1.0968.2763-1.1927.2917-.1006.0153-.1965.0179-.2879.0077-.096-.0103-.1897-.0333-.2811-.0691-.0914-.0409-.1782-.0896-.2605-.1458-.0822-.0614-.1553-.1331-.2193-.2149-.064-.0819-.1211-.1689-.1714-.261-.0457-.0972-.0799-.1996-.1028-.307-.0274-.1024-.0411-.2098-.0411-.3224 0-.1023.0091-.2072.0274-.3147.0229-.1023.0571-.2021.1028-.2993.0412-.1023.0937-.1945.1577-.2763.064-.0819.1348-.1535.2125-.2149.0822-.0665.1691-.1203.2604-.1612.0869-.0358.1303-.0537.1303-.0537z"/><path d="m52.0014 89.6977h1.2544c.8409.0051 1.6246-.023 2.3512-.0845.722-.0562 1.4326-.1381 2.1318-.2456.6991-.1074 1.4075-.2328 2.1249-.3761.7175-.1432 1.4578-.2993 2.2209-.4681.7677-.1689 1.5811-.3506 2.4403-.545.8591-.1995 1.7662-.4017 2.7213-.6063.955-.2098 1.9033-.4273 2.8446-.6524.9414-.2252 1.8645-.4682 2.7693-.7292.9094-.261 1.821-.5245 2.735-.7906.9139-.266 1.837-.5423 2.7693-.8289.9368-.2916 1.9261-.6038 2.968-.9364 1.0465-.3326 2.1158-.6626 3.208-.9901 1.0922-.3223 2.1752-.6524 3.2491-.9901 1.0784-.3326 2.1363-.6703 3.1737-1.0131 1.0419-.3378 2.0358-.6524 2.9817-.9441.9414-.2917 1.8165-.568 2.6254-.8289.8088-.2559 1.5148-.4964 2.118-.7215.6033-.22 1.1562-.4068 1.6587-.5603.507-.1535 1.101-.3582 1.782-.614.681-.2508 1.287-.4861 1.817-.7062.53-.22 1.083-.4375 1.659-.6524.575-.2098 1.176-.417 1.802-.6217.631-.2046 1.344-.3914 2.139-.5603.795-.1637 1.3-.2456 1.515-.2456.215.0051.425.0461.631.1228.201.0819.386.1945.555.3377.173.1484.32.3224.439.522.118.2046.205.4221.26.6524.055.2353.075.4733.062.7138-.014.2353-.062.4656-.144.6907-.083.2252-.194.4273-.336.6064-.137.1842-.299.3352-.487.4528-.187.1228-.386.2098-.596.261s-.421.0614-.631.0307c-.215-.0256-.42-.0921-.617-.1996-.192-.1023-.365-.2379-.521-.4067-.155-.1638-.281-.3531-.377-.568-.1-.2149-.166-.4401-.198-.6754-.032-.2405-.03-.4785.006-.7138.037-.2354.105-.4606.206-.6755.105-.2098.235-.3965.391-.5603.16-.1637.338-.2968.534-.3991.197-.0972.4-.1561.61-.1765.215-.0256.428-.0103.638.046.21.0512.407.1407.589.2687.183.1228.343.2788.48.4682.137.1842.245.3888.322.614.078.2251.122.4579.131.6984s-.016.4759-.076.7062c-.059.2302-.151.4451-.274.6447-.119.1944-.265.3633-.439.5066-.173.1432-.363.2532-.569.33-.201.0768-.301.1151-.301.1151s-.485.0896-1.453.2687c-.974.1842-1.737.3223-2.29.4144-.557.0973-1.163.1919-1.816.284-.654.0921-1.314.197-1.981.3147-.667.1228-1.447.2251-2.338.307-.886.0819-1.6402.1817-2.2617.2994-.6215.1125-1.3367.2686-2.1455.4681-.8088.1996-1.6794.4452-2.6116.7369-.9322.2916-1.9216.614-2.9681.9671-1.0419.3479-2.1021.6959-3.1805 1.0438-1.0785.348-2.1569.6908-3.2354 1.0285-1.0739.3377-2.1318.6831-3.1737 1.0362-1.0373.3581-2.0267.6984-2.9681 1.0208-.9413.3223-1.8667.6294-2.7761.921-.9094.2866-1.8233.5757-2.7418.8673-.9186.2917-1.8462.5808-2.783.8673-.9368.2866-1.8759.5731-2.8173.8597-.9413.2865-1.8484.5526-2.7213.7982-.8774.2405-1.7136.4528-2.5088.637-.7997.1791-1.5788.3326-2.3374.4606-.7586.1279-1.5194.2328-2.2826.3147-.7586.0818-1.5217.133-2.2894.1535-.7677.0204-1.572.0332-2.4129.0383-.8362 0-1.3023-.0076-1.3983-.023-.1005-.0102-.1988-.0358-.2947-.0767-.096-.041-.1851-.0947-.2674-.1612-.0822-.0614-.1576-.1356-.2262-.2226-.0685-.0819-.1256-.174-.1713-.2763-.0457-.0972-.08-.2021-.1029-.3147-.0274-.1075-.0411-.2175-.0411-.33 0-.1126.0137-.2226.0411-.3301.0229-.1126.0572-.2174.1029-.3147.0457-.1023.1028-.1944.1713-.2763.0686-.087.144-.1612.2262-.2226.0823-.0665.1714-.1202.2674-.1611.0959-.041.1942-.0666.2947-.0768.096-.0153.1439-.023.1439-.023z"/><path d="m53.273 115.694s.3473-.115 1.0419-.345c.6992-.226 1.4235-.456 2.1729-.691.754-.241 1.5309-.484 2.3306-.729.7997-.246 1.5994-.494 2.3991-.745.7952-.256 1.6017-.506 2.4197-.752s1.6657-.491 2.5431-.737c.8774-.245 1.7959-.486 2.7555-.721.9597-.236 1.9445-.466 2.9544-.691 1.0053-.22 2.0038-.445 2.9955-.676.9916-.23 1.9878-.47 2.9886-.721 1.0007-.251 1.9924-.512 2.9749-.783.9825-.276 1.949-.558 2.8995-.844.9551-.292 1.9147-.584 2.8789-.875.9597-.297 1.9673-.607 3.0229-.929s2.1181-.657 3.1874-1.005c1.0694-.343 2.0747-.676 3.0161-.998.9459-.328 1.8553-.65 2.7281-.967.8728-.323 1.6889-.64 2.4469-.952.763-.312 1.485-.604 2.166-.875.686-.266 1.326-.517 1.92-.7522.589-.2404 1.124-.4733 1.604-.6984.475-.2303 1.112-.5168 1.912-.8596.795-.3378 1.659-.6089 2.591-.8136s1.483-.307 1.652-.307c.174 0 .34.0281.5.0844.165.0614.316.1484.453.261.137.1176.253.2532.349.4067.096.1587.167.3301.213.5143.05.1842.071.371.062.5603-.01.1944-.044.3812-.103.5603-.064.174-.151.3351-.261.4838-.109.148-.237.271-.384.368-.146.102-.301.174-.466.215-.169.041-.338.054-.507.038-.169-.02-.331-.069-.487-.145-.155-.082-.294-.187-.418-.315-.128-.133-.231-.2841-.308-.4529-.082-.1689-.137-.3454-.165-.5296-.032-.1894-.034-.3787-.007-.568.028-.1893.08-.3684.158-.5373.078-.1688.178-.3198.302-.4528.123-.1331.262-.2405.418-.3224.155-.0818.317-.1356.487-.1612.169-.0204.335-.0102.5.0307.169.041.327.1101.473.2073s.276.2174.391.3607c.109.1433.196.3045.26.4836s.103.3633.117.5526c.009.1893-.01.3761-.055.5603-.041.1842-.11.3556-.206.5142-.096.1588-.21.2968-.343.4148-.137.117-.285.207-.445.268-.165.067-.247.1-.247.1s-.413.085-1.241.253c-.831.169-1.638.343-2.419.522-.782.174-1.442.343-1.981.507-.54.164-1.115.322-1.728.476-.612.153-1.261.322-1.946.506-.686.179-1.419.397-2.201.653-.786.25-1.62.527-2.5017.829-.8819.296-1.8004.611-2.7555.944-.9551.327-1.9696.667-3.0435 1.021-1.0739.353-2.1363.695-3.1874 1.028-1.0556.328-2.0632.642-3.0229.944-.9596.302-1.9193.609-2.8789.921-.9642.307-1.9422.606-2.9338.898-.9871.292-1.9833.578-2.9886.86-1.0054.281-2.0016.552-2.9886.813-.9871.266-1.9673.53-2.9407.791-.9779.266-1.933.547-2.8652.844-.9368.297-1.8371.584-2.7007.86-.8637.281-1.6977.547-2.502.798-.8088.251-1.6131.507-2.4128.768s-1.6017.516-2.406.767-1.5903.489-2.358.714-1.508.427-2.2209.606-1.1173.277-1.2133.292c-.0959.015-.1896.018-.281.008-.096-.016-.1919-.041-.2879-.077-.0914-.041-.1759-.092-.2536-.154-.0823-.061-.1554-.133-.2194-.215-.0685-.076-.1256-.163-.1713-.261-.0457-.097-.08-.199-.1028-.307-.0229-.107-.0366-.214-.0412-.322 0-.102.0115-.207.0343-.315.0229-.107.0571-.209.1028-.307.0457-.097.1006-.186.1645-.268.064-.082.1348-.156.2125-.223.0823-.061.1691-.112.2605-.153.0914-.036.1371-.054.1371-.054z"/><path d="m126.198 183.232s-.299-.56-.898-1.681c-.594-1.125-1.156-2.085-1.686-2.878s-1.054-1.456-1.57-1.988c-.516-.527-1.012-.918-1.487-1.174-.476-.256-1.182-.435-2.119-.537-.941-.103-1.832.081-2.673.552-.836.466-1.51.967-2.022 1.505-.507.537-1.062 1.215-1.666 2.033-.607.819-1.204 1.733-1.789 2.741-.589.997-1.11 1.98-1.563 2.947-.457.962-.845 1.896-1.165 2.801-.324.901-.569 1.72-.733 2.456-.169.742-.272 1.385-.309 1.927-.036.547-.002 1.154.103 1.819.101.67.562 1.279 1.385 1.827.822.547 1.608 1.005 2.358 1.374.749.368 1.563.716 2.44 1.043.873.323 1.748.591 2.625.806.873.215 1.693.335 2.461.361.763.031 1.403-.026 1.919-.169.521-.138.912-.494 1.173-1.067.265-.578.438-1.169.52-1.773.087-.609.181-1.384.282-2.325.105-.942.196-1.986.274-3.132.073-1.146.139-2.338.198-3.576.064-1.244.126-2.459.186-3.646.064-1.182.112-2.257.144-3.224s.05-1.788.054-2.464c.005-.67.053-1.32.144-1.949.092-.624.156-.998.192-1.121.037-.123.087-.24.151-.353.064-.112.137-.212.219-.299.087-.092.181-.172.281-.238.101-.061.206-.113.316-.154.114-.035.231-.056.349-.061.115-.005.229.008.343.038.114.026.224.067.329.123s.203.126.295.207c.091.082.171.177.24.284.073.103.13.215.171.338.046.118.08.241.103.369.018.133.02.263.007.391-.009.133.137.512.438 1.136.302.629.521 1.809.659 3.538.137 1.719.228 3.8.274 6.24.045 2.441.016 4.941-.089 7.499-.106 2.553-.284 4.882-.535 6.985s-.544 3.922-.877 5.457c-.334 1.54-.672 2.794-1.015 3.761s-.635 1.565-.877 1.796c-.243.235-.389.399-.439.491-.046.097-.103.187-.171.268-.064.077-.137.146-.22.208-.082.056-.171.102-.267.138-.091.036-.185.059-.281.069s-.194.008-.295-.008c-.096-.015-.187-.043-.274-.084-.091-.041-.176-.095-.254-.161-.082-.067-.153-.141-.212-.223-.064-.087-.119-.179-.165-.276-.041-.097-.071-.2-.089-.307-.023-.108-.032-.215-.027-.323 0-.112.013-.22.041-.322.027-.107-.169-.852-.59-2.234-.42-1.386-.676-2.801-.767-4.244-.087-1.448-.149-2.917-.185-4.406-.037-1.483-.035-2.87.006-4.16.037-1.284.119-2.474.247-3.569.133-1.089.274-2.059.425-2.909.151-.844.322-1.588.514-2.233.192-.65.446-1.251.761-1.804.316-.552.69-1.049 1.124-1.489.439-.445.93-.829 1.474-1.151.544-.328 1.111-.619 1.7-.875.585-.256 1.17-.512 1.755-.768.589-.255 1.158-.532 1.707-.829.553-.296 1.051-.619 1.494-.967.443-.342.841-.703 1.193-1.082.356-.384.71-.98 1.062-1.788.357-.809.574-1.622.651-2.441.078-.819.083-1.566.014-2.241-.073-.67-.235-1.325-.487-1.965-.251-.634-.345-1.292-.281-1.973.069-.68.384-1.368.946-2.064.567-.691.994-1.052 1.282-1.082.288-.026.455-.169.5-.43.046-.256.126-.499.24-.729.119-.226.265-.425.439-.599.178-.174.375-.315.59-.422.214-.103.438-.164.671-.184.233-.016.464.007.693.069.228.066.441.171.637.314.197.139.368.313.514.522.146.205.261.43.343.676.078.245.119.501.123.767.005.261-.027.517-.096.768-.068.251-.171.481-.308.691-.137.214-.302.399-.494.552-.192.149-.399.261-.623.338s-.455.112-.693.107c-.233-.01-.459-.061-.678-.153-.22-.092-.421-.22-.604-.384-.182-.169-.335-.363-.459-.583-.128-.22-.219-.458-.274-.714s-.073-.514-.055-.775c.023-.261.08-.512.172-.752.096-.246.221-.466.377-.661.159-.194.34-.355.541-.483.206-.128.425-.215.658-.261.229-.051.459-.056.692-.015.233.035.455.112.665.23.211.118.398.269.562.453.165.189.297.401.398.637.105.235.174.483.206.744.027.261.041.392.041.392s-.476.588-1.426 1.765c-.951 1.182-1.362 2.085-1.234 2.709.124.625.194 1.433.213 2.426.013.998-.014 1.786-.083 2.364-.073.583-.185 1.182-.336 1.796-.15.609-.363 1.238-.637 1.888s-.619 1.269-1.035 1.857c-.411.589-.868 1.121-1.371 1.597s-1.049.918-1.638 1.328c-.59.414-1.202.785-1.837 1.113-.635.327-1.255.611-1.858.852-.603.245-1.357.534-2.262.867-.909.338-1.656.752-2.241 1.243-.585.486-.997.972-1.234 1.459-.242.481-.469 1.089-.679 1.826s-.375 1.615-.493 2.633c-.119 1.013-.185 2.139-.199 3.377-.018 1.238.004 2.584.068 4.037.064 1.448.158 2.855.281 4.222.124 1.371.263 2.538.419 3.5.16.962.374 1.898.644 2.809.27.916.379 1.42.329 1.512-.046.097-.103.187-.171.268-.064.077-.137.146-.22.208-.082.056-.171.102-.267.138-.091.036-.185.059-.281.069s-.194.008-.295-.008c-.096-.015-.187-.043-.274-.084-.091-.041-.176-.095-.254-.161-.082-.067-.153-.141-.212-.223-.064-.087-.119-.179-.165-.276-.041-.097-.071-.2-.089-.307-.023-.108-.032-.215-.027-.323 0-.112.013-.22.041-.322.027-.107.226-.284.596-.53.375-.245.713-.759 1.015-1.542.301-.783.598-1.904.891-3.362.292-1.458.541-3.206.747-5.242.201-2.032.327-4.296.377-6.793.05-2.492.018-4.917-.096-7.276s-.276-4.319-.487-5.879c-.21-1.566-.333-2.62-.37-3.163-.041-.542-.194-1.102-.459-1.681-.265-.583-.379-.936-.343-1.059.037-.123.087-.24.151-.353.064-.112.137-.212.219-.299.087-.092.181-.172.281-.238.101-.061.206-.113.316-.154.114-.035.231-.056.349-.061.115-.005.229.008.343.038.114.026.224.067.329.123s.203.126.295.207c.091.082.171.177.24.284.073.103.13.215.171.338.046.118.08.241.103.369.018.133.02.263.007.391-.009.133-.117.44-.322.921-.206.481-.352 1.039-.439 1.673-.087.64-.153 1.438-.199 2.395s-.073 2.024-.082 3.201c-.014 1.176-.016 2.389-.007 3.638.014 1.248.027 2.474.041 3.676.014 1.203 0 2.346-.041 3.431-.037 1.09-.151 2.083-.343 2.978-.187.901-.48 1.681-.877 2.341-.398.66-.893 1.172-1.488 1.535-.589.358-1.252.588-1.987.691-.732.097-1.538.12-2.42.069-.887-.051-1.807-.164-2.763-.338-.959-.174-1.937-.389-2.933-.645-.997-.255-1.958-.568-2.886-.936-.923-.363-1.769-.803-2.536-1.32-.773-.517-1.406-1.126-1.899-1.827-.494-.701-.747-1.637-.761-2.809-.018-1.177.044-2.088.185-2.732.137-.65.327-1.369.569-2.157.247-.788.539-1.666.877-2.633.339-.972.725-1.99 1.159-3.055.429-1.054.928-2.151 1.494-3.292.562-1.136 1.156-2.218 1.782-3.247.622-1.028 1.259-1.909 1.913-2.64.658-.732 1.357-1.333 2.097-1.804.741-.466 1.479-.765 2.214-.898.732-.133 1.433-.151 2.105-.054.667.092 1.332.264 1.995.515.662.255 1.3.606 1.912 1.051.612.45 1.209 1 1.789 1.65.58.645 1.181 1.382 1.803 2.211.621.829 1.275 1.773 1.96 2.832.686 1.059 1.056 1.65 1.111 1.773s.096.251.123.384c.023.133.034.263.034.391-.004.138-.023.274-.055.407s-.077.258-.137.376c-.054.118-.125.228-.212.33-.082.097-.174.184-.274.261-.101.072-.208.131-.322.177-.115.046-.234.076-.357.092-.119.01-.238.007-.356-.008-.119-.02-.236-.056-.35-.107-.114-.052-.219-.118-.315-.2-.101-.077-.19-.169-.268-.276-.077-.103-.116-.154-.116-.154z"/><path d="m149.07 148.212s-.172.296-.514.89c-.343.593-.649 1.136-.919 1.627-.265.496-.626 1.179-1.083 2.049-.457.875-.875 1.717-1.254 2.526-.384.808-.738 1.591-1.063 2.348-.329.757-.619 1.441-.87 2.049-.252.609-.496 1.231-.734 1.866-.237.629-.48 1.24-.726 1.834-.247.588-.494 1.2-.741 1.834-.242.635-.404 1.06-.486 1.274-.087.215-.181.412-.281.591-.101.18-.22.341-.357.484s-.288.266-.452.368c-.165.108-.338.19-.521.246s-.368.087-.555.092c-.188.005-.373-.013-.556-.054-.187-.046-.365-.115-.534-.207s-.327-.204-.473-.338c-.142-.138-.27-.291-.384-.46-.11-.169-.201-.351-.274-.545s-.124-.397-.151-.606c-.028-.21-.032-.42-.014-.63.014-.21.053-.414.117-.614.059-.199.221-.54.486-1.021.261-.475.601-.944 1.022-1.404.42-.461.863-.821 1.33-1.082.466-.256.959-.461 1.48-.614.526-.149 1.076-.274 1.652-.376.576-.098 1.195-.182 1.858-.254.662-.066 1.336-.123 2.022-.169.685-.046 1.373-.097 2.063-.153.695-.056 1.369-.136 2.022-.238.654-.108 1.284-.261 1.892-.461.608-.199 1.197-.419 1.769-.66.566-.24 1.14-.496 1.72-.767s.994-.445 1.241-.522c.246-.077.496-.108.747-.092.256.015.5.074.733.176.238.108.453.254.645.438.196.184.358.396.486.637.133.245.227.506.281.783.055.276.069.557.042.844-.028.281-.094.55-.199.806-.11.261-.252.494-.425.698-.174.21-.373.382-.597.515s-.461.222-.712.268c-.252.046-.503.046-.755 0-.251-.046-.488-.135-.712-.268s-.423-.305-.597-.515c-.173-.204-.315-.435-.425-.69-.105-.261-.171-.533-.199-.814-.027-.281-.013-.56.042-.837.054-.281.146-.542.274-.782.132-.246.295-.461.486-.645.197-.184.412-.33.645-.438.237-.102.482-.161.733-.176.256-.016.505.015.747.092.247.072.476.189.686.353.21.159.393.35.548.576.151.225.268.473.35.744.082.266.123.543.123.829 0 .287-.041.563-.123.829-.082.271-.199.519-.35.744-.155.226-.338.42-.548.584-.21.158-.315.238-.315.238s-.341.158-1.022.476c-.681.322-1.334.614-1.96.875s-1.355.532-2.187.813c-.832.282-1.647.491-2.447.63-.795.143-1.549.25-2.262.322-.708.072-1.398.136-2.07.192-.672.061-1.291.123-1.858.184-.562.067-1.165.159-1.809.276-.649.118-1.186.323-1.611.614-.425.292-.688.527-.788.706-.101.174-.22.336-.357.484-.137.143-.288.266-.452.368-.165.108-.338.19-.521.246s-.368.087-.555.092c-.188.005-.373-.013-.556-.054-.187-.046-.365-.115-.534-.207s-.327-.204-.473-.338c-.142-.138-.27-.291-.384-.46-.11-.169-.201-.351-.274-.545s-.124-.397-.151-.606c-.028-.21-.032-.42-.014-.63.014-.21.053-.414.117-.614.059-.199.164-.458.315-.775s.359-.762.624-1.335c.26-.574.518-1.101.774-1.582.256-.475.533-1.028.83-1.657.297-.63.596-1.252.898-1.866.301-.614.642-1.304 1.021-2.072.379-.767.793-1.573 1.241-2.418.452-.844.934-1.698 1.446-2.563.507-.865.905-1.538 1.193-2.019.283-.481.594-1.018.932-1.612.338-.603.553-.967.644-1.089.092-.128.197-.241.316-.338.114-.097.24-.177.377-.238.132-.067.269-.113.411-.138.146-.021.29-.026.432-.016.141.016.281.049.418.1.142.051.272.12.391.207.123.087.235.192.335.315.101.118.188.246.261.384.073.143.13.292.171.445.037.159.06.32.069.484.004.158-.009.317-.041.475-.028.159-.073.313-.137.461s-.096.223-.096.223z"/><path d="m145.477 155.681s.082.156.247.468c.16.307.393.729.699 1.266.306.532.404 1.418.295 2.656-.11 1.238-.407 1.921-.892 2.049-.479.133-1.174.059-2.083-.222-.914-.287-1.469-.487-1.666-.599-.196-.118-.37-.266-.521-.445-.155-.179-.279-.382-.37-.607-.096-.225-.155-.46-.178-.706-.028-.251-.016-.496.034-.737.046-.24.126-.468.24-.683s.256-.401.425-.56c.164-.164.349-.292.555-.384s.42-.146.644-.161c.22-.01.437.015.652.077.214.066.411.169.589.307.183.138.343.307.48.506.132.195.235.41.308.645.069.235.105.479.11.729 0 .246-.036.486-.11.722-.068.235-.169.453-.301.652-.133.2-.29.369-.473.507-.178.138-.375.24-.59.307-.214.071-.432.1-.651.084-.224-.01-.439-.061-.644-.153-.206-.092-.393-.218-.562-.376-.169-.159-.311-.346-.425-.561-.115-.21-.197-.437-.247-.683-.05-.24-.062-.483-.034-.729.023-.251.08-.489.171-.714s.213-.427.363-.606c.156-.179.329-.328.521-.445.197-.118.405-.197.624-.238s.439-.041.658 0c.219.036.329.053.329.053s.133.18.398.538c.274.363.342 1.11.205 2.241-.141 1.131-.329 1.428-.562.89-.242-.537-.457-1.069-.644-1.596-.183-.527-.338-.957-.466-1.29-.124-.332-.208-.573-.254-.721-.046-.143-.075-.292-.089-.445-.014-.149-.011-.297.007-.445.023-.154.059-.302.11-.446.05-.143.116-.276.198-.399.078-.128.169-.24.275-.337.105-.103.219-.187.342-.254.124-.066.252-.117.384-.153.137-.036.272-.051.405-.046.137.005.271.025.404.061.133.041.258.1.377.177.119.071.229.161.329.268.105.103.194.218.267.346.078.128.117.192.117.192z"/><path d="m151.094 143.848s-.068.161-.205.484c-.137.322-.299.739-.487 1.251-.183.512-.457.483-.822-.085-.371-.568-.304-.903.198-1.005.508-.107 1.015-.171 1.522-.192.507-.025 1.012-.023 1.515.008.498.03 1.053.327 1.666.89.612.568.943 1.128.994 1.681.05.553.043 1.105-.021 1.658-.069.547-.133 1.095-.192 1.642-.059.553-.372.573-.939.062-.571-.512-.599-.783-.082-.814.512-.03 1.012 0 1.501.092.489.087.996.156 1.522.208.525.046 1.096.153 1.713.322.617.164 1.129.514 1.536 1.051.411.538.646 1.083.706 1.635.059.548.048 1.131-.035 1.75-.082.619-.203 1.221-.363 1.804-.164.578-.276 1.126-.336 1.642-.059.517-.123.932-.192 1.244-.068.307-.178.596-.329.867-.155.266-.342.502-.562.706-.224.2-.468.353-.733.461-.27.112-.546.174-.83.184-.287.01-.569-.033-.843-.13-.269-.093-.521-.231-.754-.415-.233-.189-.432-.412-.596-.668-.169-.261-.295-.545-.377-.852-.082-.302-.121-.614-.117-.936.01-.317.062-.627.158-.929.101-.297.24-.57.418-.821s.386-.461.624-.629c.242-.174.503-.3.781-.376.275-.077.553-.103.837-.077.288.025.562.1.822.222.261.128.498.297.713.507.21.215.386.46.528.737.142.281.24.578.295.89.054.312.061.627.02.944-.036.317-.119.619-.247.906-.128.286-.292.542-.493.767-.201.226-.43.41-.686.553-.255.143-.523.235-.802.276-.283.046-.566.039-.85-.023-.278-.061-.541-.169-.788-.322-.251-.159-.47-.356-.658-.591-.192-.241-.345-.507-.459-.798-.114-.292-.183-.599-.206-.921-.023-.318-.034-.476-.034-.476s.183-.717.548-2.149c.366-1.433.674-1.886.926-1.359.247.527.112.76-.405.699-.521-.057-1.03-.149-1.528-.277-.498-.122-.994-.192-1.488-.207-.498-.015-1.032-.233-1.604-.652-.571-.42-.955-1.044-1.151-1.873-.201-.829-.247-1.53-.137-2.103.105-.568.249-1.116.431-1.643.183-.527.579-.516 1.186.031.604.548.645.793.124.737-.526-.062-1.06-.123-1.604-.184-.535-.067-1.067-.123-1.597-.169-.526-.046-1.022-.241-1.488-.583-.466-.348-.763-.881-.891-1.597-.128-.721-.098-1.351.089-1.888.183-.532.416-1.023.699-1.474.288-.44.521-.808.699-1.105.179-.297.307-.504.384-.622.083-.122.176-.233.281-.33.101-.092.213-.171.336-.238.119-.066.245-.115.377-.145.133-.031.265-.044.398-.039.132.005.263.031.391.077.127.041.251.097.37.169.119.076.226.166.322.268.096.108.18.223.253.346.074.128.131.263.172.407.046.143.073.289.082.437s.005.297-.014.445c-.022.149-.059.292-.109.43-.055.138-.083.207-.083.207z"/><path d="m148.142 140.865s.262-.174.788-.522c.535-.353 1.049-.701 1.542-1.044.489-.338.983-.693 1.481-1.067.502-.373 1.03-.773 1.583-1.197.553-.42 1.124-.865 1.714-1.336.589-.465 1.183-.952 1.782-1.458.599-.512 1.254-1.059 1.967-1.643.713-.578 1.47-1.184 2.269-1.819.804-.634 1.618-1.284 2.44-1.949.818-.665 1.694-1.364 2.626-2.096.932-.731 1.889-1.468 2.872-2.21.987-.742 1.974-1.474 2.961-2.195.987-.717 1.956-1.397 2.906-2.042.951-.645 1.876-1.251 2.777-1.819.904-.568 1.814-1.126 2.728-1.673.914-.548 1.814-1.075 2.7-1.581.887-.507 1.739-.995 2.557-1.466s1.613-.939 2.386-1.405c.772-.465 1.528-.928 2.269-1.389.735-.466 1.434-.918 2.097-1.359.658-.44 1.284-.867 1.878-1.281.599-.41 1.152-.801 1.659-1.175.503-.368.967-.713 1.392-1.036.424-.322 1.322-.908 2.693-1.757 1.367-.845 2.134-1.28 2.304-1.305.164-.021.329-.013.493.023.165.036.318.1.459.192.147.092.275.209.384.353.114.138.204.294.268.468.063.169.102.348.116.537.009.184-.007.369-.048.553-.041.179-.105.348-.192.506-.091.154-.203.29-.336.407-.132.118-.276.207-.432.269-.155.066-.317.1-.486.1-.165.005-.327-.021-.487-.077s-.308-.138-.445-.246c-.133-.112-.247-.245-.343-.399-.096-.148-.169-.312-.22-.491-.045-.179-.066-.363-.061-.553.004-.184.036-.366.096-.545.059-.174.141-.332.246-.476.106-.148.229-.271.371-.368.141-.102.292-.174.452-.215.165-.046.329-.061.494-.046.164.021.324.067.479.138.151.077.288.179.412.307.123.123.226.266.308.43s.139.338.171.522c.028.184.03.368.007.553-.023.184-.07.36-.144.529-.077.164-.176.312-.294.445-.119.133-.254.241-.405.323s-.226.123-.226.123-.589.332-1.768.997c-1.184.666-2.009 1.129-2.475 1.39s-.973.542-1.522.844c-.548.307-1.138.639-1.768.998-.631.358-1.293.734-1.988 1.128s-1.421.806-2.18 1.236c-.763.435-1.542.872-2.337 1.312-.791.44-1.597.883-2.42 1.328-.823.45-1.668.929-2.536 1.435-.873.502-1.76 1.029-2.66 1.581-.895.553-1.782 1.113-2.659 1.681-.873.568-1.769 1.177-2.687 1.827-.923.65-1.865 1.343-2.824 2.08-.96.732-1.913 1.481-2.859 2.249-.95.762-1.867 1.525-2.749 2.287-.886.768-1.718 1.515-2.495 2.241-.777.727-1.535 1.446-2.275 2.157-.741.716-1.449 1.394-2.125 2.034-.677.64-1.326 1.236-1.947 1.788-.622.558-1.236 1.085-1.844 1.581-.612.492-1.211.957-1.796 1.397-.585.435-1.156.837-1.714 1.205-.557.369-1.101.706-1.631 1.014-.535.301-1.081.603-1.638.905-.558.302-.887.474-.987.514-.101.046-.206.077-.316.093-.109.015-.217.017-.322.007-.109-.015-.215-.043-.315-.084-.101-.046-.197-.103-.288-.169-.091-.072-.174-.154-.247-.246-.073-.087-.135-.184-.185-.291-.055-.113-.096-.228-.123-.346-.028-.117-.041-.238-.041-.36 0-.118.013-.236.041-.354.023-.117.059-.232.11-.345.05-.107.111-.207.185-.299.073-.092.153-.174.24-.246.091-.072.137-.107.137-.107z"/><path d="m157.294 157.097s.297-.213.891-.637c.594-.425 1.108-.799 1.542-1.121.439-.327 1.049-.785 1.83-1.374.786-.593 1.396-1.046 1.83-1.358.439-.312.912-.645 1.419-.998.508-.353 1.056-.727 1.645-1.121.585-.399 1.202-.803 1.851-1.212.654-.415 1.312-.827 1.974-1.236.663-.409 1.369-.837 2.118-1.282.75-.44 1.575-.911 2.475-1.412.9-.496 1.842-1.029 2.824-1.597.987-.562 1.983-1.143 2.989-1.742 1.01-.599 2.008-1.187 2.995-1.765.983-.578 1.949-1.134 2.9-1.666.955-.532 1.885-1.044 2.79-1.535.909-.491 1.791-.967 2.645-1.427.85-.466 1.707-.934 2.571-1.405.859-.466 1.732-.949 2.618-1.451.887-.506 1.744-1.02 2.571-1.542.832-.522 1.634-1.052 2.406-1.589s1.547-1.088 2.324-1.65c.776-.558 1.546-1.108 2.31-1.651.763-.542 1.464-1.051 2.104-1.527.635-.476 1.238-.939 1.81-1.389.566-.45 1.101-.88 1.604-1.29.498-.409 1.343-1.033 2.536-1.872 1.188-.84 1.86-1.264 2.015-1.275.155-.01.306.008.452.054.151.046.291.118.419.215.127.097.237.215.329.353.096.138.169.289.219.453.046.164.068.333.068.507s-.022.342-.068.506c-.05.164-.123.315-.219.453-.092.133-.202.248-.329.345-.128.098-.268.169-.419.215-.146.046-.297.067-.452.062-.155-.011-.304-.049-.446-.115-.141-.062-.271-.149-.39-.261-.119-.113-.217-.243-.295-.392-.082-.148-.139-.307-.171-.476s-.039-.337-.021-.506c.014-.174.053-.341.117-.499.068-.154.155-.294.26-.422.105-.123.226-.225.363-.307s.281-.136.432-.161c.151-.031.304-.031.459 0 .151.025.295.079.432.161s.258.184.364.307c.105.128.189.268.253.422.069.158.11.325.124.499.018.169.011.337-.021.506-.037.169-.094.328-.171.476-.083.149-.181.279-.295.392-.119.112-.249.199-.391.261-.146.066-.219.099-.219.099s-.459.305-1.378.914c-.918.614-1.652 1.097-2.2 1.45-.549.353-1.131.727-1.748 1.121s-1.257.798-1.919 1.213c-.668.409-1.383.872-2.146 1.389-.768.522-1.547 1.064-2.337 1.627-.796.563-1.591 1.11-2.386 1.643-.8.537-1.622 1.074-2.467 1.611-.85.543-1.721 1.077-2.612 1.605-.891.527-1.766 1.028-2.625 1.504-.855.471-1.705.941-2.55 1.412-.846.471-1.712.962-2.598 1.474-.887.511-1.792 1.046-2.715 1.604-.918.558-1.855 1.146-2.81 1.765-.951.619-1.915 1.259-2.893 1.919s-1.935 1.315-2.872 1.965c-.941.65-1.828 1.279-2.659 1.888-.837.609-1.611 1.169-2.324 1.681-.713.507-1.387.977-2.022 1.412-.631.435-1.252.868-1.865 1.297-.608.435-1.202.865-1.782 1.29-.58.43-1.129.824-1.645 1.182s-.992.678-1.426.959c-.434.282-1.067.688-1.899 1.221-.831.532-1.464.936-1.898 1.212-.439.266-.953.614-1.543 1.044-.589.43-.943.678-1.062.745-.119.061-.242.107-.37.138-.133.03-.261.043-.384.038-.133-.005-.263-.025-.391-.061-.123-.041-.244-.097-.363-.169-.114-.077-.217-.164-.309-.261-.095-.102-.18-.215-.253-.338-.069-.128-.126-.261-.172-.399-.041-.138-.068-.281-.082-.43-.009-.138-.004-.281.014-.43.023-.143.059-.284.11-.422.05-.133.114-.261.192-.383.077-.118.166-.223.267-.315.1-.092.151-.138.151-.138z"/><path d="m205.354 102.745s.269.289.808.867c.535.578 1.001 1.057 1.399 1.436.402.373.886.8 1.453 1.281.571.481 1.062.888 1.474 1.221.406.337.87.734 1.391 1.189.517.456.999.919 1.447 1.39.447.475.891.99 1.329 1.542.434.548.823 1.039 1.166 1.474.342.43.927 1.43 1.754 3.001.828 1.571 1.227 2.492 1.2 2.763-.027.276-.091.54-.192.791-.1.25-.235.476-.404.675-.169.2-.361.363-.576.491-.22.133-.45.223-.692.269-.243.046-.485.046-.727 0-.242-.041-.473-.125-.692-.253-.215-.128-.407-.292-.576-.492-.174-.199-.311-.424-.411-.675-.106-.251-.172-.512-.199-.783-.028-.276-.016-.547.034-.813.055-.272.144-.525.267-.76.128-.236.286-.443.473-.622.183-.179.389-.32.617-.422.229-.102.466-.161.713-.177.247-.015.487.013.72.085.238.071.459.184.665.338.205.153.381.34.528.56.15.215.265.453.342.714.083.261.124.529.124.806 0 .276-.039.544-.117.805s-.189.502-.336.722c-.151.22-.326.407-.528.56-.205.154-.425.269-.658.346-.237.076-.479.107-.726.092-.242-.016-.48-.075-.713-.177-.229-.097-.436-.235-.624-.414-.187-.179-.345-.387-.473-.622s-.217-.486-.267-.752c-.055-.271-.082-.407-.082-.407s-.121-.156-.364-.468c-.246-.317-.541-.719-.884-1.205-.343-.491-.699-.995-1.069-1.512-.37-.522-.8-1.098-1.289-1.727-.489-.63-.957-1.195-1.405-1.696-.452-.497-.859-.934-1.22-1.313-.357-.384-.814-.862-1.371-1.435-.558-.578-1.035-1.072-1.433-1.482-.397-.414-.877-.895-1.439-1.442-.567-.548-.896-.881-.987-.998-.096-.123-.176-.256-.24-.399-.064-.149-.112-.3-.144-.453-.037-.159-.053-.317-.048-.476 0-.159.018-.317.055-.476.041-.153.096-.302.164-.445.069-.138.151-.269.247-.392.096-.117.203-.22.322-.307.124-.092.251-.166.384-.222.137-.051.276-.087.418-.108.142-.015.283-.012.425.008.142.026.279.067.411.123.137.061.263.138.377.23.119.097.179.146.179.146z"/><path d="m203.413 101.29s.148-.097.445-.291c.293-.195.672-.438 1.138-.73.466-.2963 1.026-.6494 1.68-1.0587.649-.4043 1.243-.7471 1.782-1.0285.539-.2815 1.142-.5834 1.809-.9057.663-.3224 1.321-.6473 1.975-.9748.648-.3326 1.286-.6677 1.912-1.0054.631-.3429 1.227-.678 1.789-1.0055.567-.3275 1.138-.6499 1.714-.9671.571-.3172 1.165-.6064 1.782-.8673.617-.2559 1.172-.4656 1.666-.6294.493-.1637 1.007-.3326 1.542-.5066.535-.1739 1.078-.3556 1.631-.5449.553-.1944 1.074-.4068 1.563-.6371.485-.2302.964-.4426 1.44-.637.475-.1944 1.007-.1714 1.597.0691.589.2353 1.149.6754 1.679 1.3201.53.6448.967 1.3969 1.309 2.2566.343.8596.709 1.6911 1.097 2.4944.389.7983.779 1.5402 1.172 2.2259.393.6908.747 1.315 1.063 1.8728.315.5581.612 1.1081.891 1.6501.283.542.571 1.041.864 1.497.297.45.607.987.932 1.612.324.629.525 1.251.603 1.865.078.609-.073 1.368-.452 2.279-.38.906-.869 1.597-1.467 2.073-.604.475-1.232.89-1.885 1.243-.649.353-1.298.655-1.947.906-.649.25-1.357.486-2.125.706s-1.513.422-2.235.606c-.726.179-1.403.363-2.029.553-.63.184-1.277.394-1.939.629-.663.235-1.248.481-1.755.737-.503.256-1.092.553-1.769.89-.676.338-1.515.783-2.515 1.336-1.001.547-1.62.872-1.858.975-.242.102-.491.158-.747.168-.256.011-.507-.025-.754-.107s-.475-.205-.686-.368c-.21-.164-.39-.364-.541-.599-.151-.23-.265-.484-.343-.76-.078-.271-.114-.55-.11-.837.005-.286.051-.565.138-.836.086-.271.21-.52.37-.745.155-.225.342-.417.562-.575.215-.159.445-.274.692-.346.247-.071.498-.097.754-.077.256.021.503.087.74.2.238.113.453.264.645.453s.352.407.48.652c.128.251.219.517.274.799.05.281.059.565.027.851-.036.287-.109.558-.219.814-.11.261-.256.494-.439.699-.178.204-.381.37-.61.498-.228.133-.471.22-.727.261-.255.041-.509.036-.76-.015-.252-.051-.489-.146-.713-.284-.224-.143-.423-.32-.597-.53-.173-.214-.313-.452-.418-.713-.1-.261-.164-.535-.192-.822-.023-.286-.004-.57.055-.852.064-.281.162-.542.295-.782.137-.246.306-.458.507-.638.197-.184.295-.276.295-.276s.416-.238 1.247-.714c.832-.476 1.566-.875 2.201-1.197.64-.322 1.282-.652 1.926-.99.64-.343 1.263-.647 1.871-.913.608-.267 1.161-.476 1.659-.63.498-.153 1.081-.332 1.748-.537s1.362-.412 2.084-.622c.726-.204 1.407-.407 2.042-.606.636-.2 1.202-.399 1.7-.599.499-.194 1.095-.325 1.789-.391.695-.067.887-.338.576-.814-.31-.471-.592-.954-.843-1.45-.247-.492-.507-1.026-.781-1.605-.274-.573-.59-1.166-.946-1.78-.357-.609-.777-1.336-1.261-2.1801-.485-.8443-.85-1.5069-1.097-1.9879-.242-.4861-.459-1.2127-.651-2.1798s-.037-1.3304.466-1.0899c.502.2405.514.4657.034.6755-.48.2046-1.033.4195-1.659.6447-.626.22-1.188.3991-1.686.5373-.503.1432-1.047.2916-1.631.4451-.585.1535-1.207.3403-1.865.5603-.658.2252-1.254.4759-1.789.7522s-1.104.5782-1.707.9057c-.603.3326-1.24.6703-1.912 1.0131s-1.348.6778-2.029 1.0058c-.681.327-1.36.644-2.036.951s-1.366.614-2.07.921c-.704.302-1.282.566-1.734.791-.448.225-.91.448-1.385.668-.475.225-.871.417-1.186.575-.311.159-.537.267-.678.323-.138.056-.279.094-.425.115-.142.02-.286.02-.432 0-.147-.021-.288-.061-.425-.123-.137-.056-.265-.133-.384-.23-.124-.092-.233-.2-.329-.323-.096-.127-.178-.263-.247-.406-.068-.149-.121-.302-.158-.461-.032-.164-.048-.325-.048-.483 0-.164.019-.325.055-.484.037-.164.089-.317.158-.46.068-.149.153-.284.254-.407.096-.123.205-.23.329-.323.118-.092.178-.138.178-.138z"/><path d="m216.177 98.4006s.283.2891.85.8674c.571.5679 1.069 1.054 1.494 1.458.42.399.937.911 1.549 1.535.612.63 1.126 1.21 1.542 1.743.421.532.798 1.051 1.131 1.558.329.501.645 1.041.946 1.619.297.578.59 1.177.878 1.796.283.619.45 1.418.5 2.395.046.977-.249 1.735-.884 2.272-.64.537-1.213.755-1.721.652-.502-.102-1.028-.268-1.576-.499-.544-.23-1.118-.527-1.721-.89-.603-.358-1.199-.737-1.789-1.136-.589-.399-1.161-.783-1.713-1.151-.553-.369-1.109-.727-1.666-1.075-.558-.353-1.113-.749-1.666-1.189-.557-.446-1.06-.896-1.508-1.351-.448-.451-.896-.932-1.343-1.443-.448-.517-.871-1.016-1.268-1.497-.398-.486-.727-.849-.988-1.09-.26-.245-.475-.425-.644-.537-.169-.118-.324-.256-.466-.415-.142-.158-.265-.332-.37-.522-.101-.194-.181-.399-.24-.614-.059-.209-.094-.427-.103-.652-.014-.22-.002-.44.034-.66.037-.2201.096-.4324.179-.6371.082-.1995.185-.3889.308-.568.123-.1739.265-.33.425-.4681.155-.1382.325-.2533.507-.3454.183-.087.373-.151.569-.1919.197-.041.396-.0537.597-.0384.196.0102.39.0512.582.1228.192.0665.647.3684 1.364.9057.718.5321 1.266.9748 1.645 1.3278.375.3476.905.7986 1.591 1.3506.685.548 1.268.993 1.748 1.336.475.343.984.511 1.528.506.539 0 .645.658.316 1.973-.334 1.32-.748 2.039-1.241 2.157-.489.112-.999.207-1.529.284-.534.076-1.071.222-1.611.437-.539.21-.667.095-.383-.345.283-.445.447-.944.493-1.497.046-.547.325-.657.836-.33.512.322 1.035.711 1.57 1.167.53.455 1.056.882 1.577 1.281.521.4.973.781 1.357 1.144.379.358.733.798 1.062 1.32.334.517.272 1.441-.185 2.771-.452 1.33-1.033 2.042-1.741 2.134s-1.414-.151-2.118-.729c-.708-.584-1.355-1.277-1.94-2.08-.585-.804-1.113-1.599-1.583-2.387-.466-.788-.864-1.489-1.193-2.103-.324-.614-.596-1.205-.816-1.773-.214-.568-.198-1.351.048-2.349.252-.998.761-1.661 1.529-1.988.772-.327 1.517-.215 2.235.338.722.552 1.343 1.192 1.864 1.919.526.726 1.008 1.463 1.446 2.21.439.747.827 1.476 1.166 2.187.338.707.621 1.331.85 1.873.233.548.475 1.075.726 1.581.252.512.677.65 1.275.415.594-.23 1.143-.379 1.645-.445.498-.072 1.058.056 1.68.383.621.323 1.09.811 1.405 1.466.32.655.432 1.282.336 1.881-.096.593-.521 1.445-1.275 2.556-.759 1.11-1.25 1.752-1.474 1.926-.228.179-.473.31-.733.392-.265.087-.535.125-.809.115-.274-.016-.542-.077-.802-.184-.256-.113-.489-.266-.699-.461-.215-.199-.393-.43-.535-.691-.146-.261-.251-.542-.315-.844-.06-.297-.078-.599-.055-.906.027-.307.098-.601.212-.882.11-.282.258-.535.446-.76.187-.23.402-.417.644-.56.242-.149.498-.251.768-.307.269-.052.541-.054.816-.008.269.046.527.138.774.276.247.143.464.325.651.545.192.22.348.471.466.752.119.277.197.568.233.875.032.302.021.604-.034.906-.059.302-.157.586-.295.852-.137.266-.31.501-.52.706-.206.2-.437.358-.693.476s-.521.187-.795.207c-.274.021-.544-.008-.809-.084-.265-.082-.512-.208-.74-.376-.233-.169-.434-.374-.603-.614-.169-.246-.3-.515-.391-.806-.087-.287-.133-.586-.137-.898-.005-.307.036-.607.123-.898.083-.292.206-.563.37-.814.165-.246.247-.368.247-.368s.172-.136.514-.407c.348-.266.674-.141.981.376.31.522.678.941 1.103 1.259.425.322.393.534-.096.637-.484.107-.989.202-1.515.284-.525.082-1.087.089-1.686.023-.599-.067-1.172-.264-1.72-.591-.544-.333-.976-.709-1.296-1.128-.32-.42-.605-.904-.857-1.451-.247-.543-.5-1.141-.761-1.796-.26-.65-.523-1.254-.788-1.812-.27-.557-.585-1.133-.946-1.726-.366-.594-.722-1.198-1.069-1.812-.352-.614-.236-1.092.349-1.435.585-.348 1.038-.885 1.358-1.612.324-.727.578-.837.76-.33.188.501.46 1.057.816 1.666.357.603.759 1.228 1.207 1.872.447.645.642 1.264.582 1.858-.055.593-.365 1.353-.932 2.279-.558.926-1.037 1.223-1.44.891-.402-.333-.863-.704-1.384-1.113-.521-.404-1.106-.875-1.755-1.413-.649-.537-1.268-1.107-1.858-1.711-.589-.609-1-1.32-1.233-2.134-.229-.813-.169-1.553.178-2.218.347-.67.79-1.131 1.33-1.382.539-.245 1.069-.463 1.59-.652.521-.184 1.09-.35 1.707-.499.617-.148 1.243-.215 1.878-.199.626.015 1.234.094 1.823.238.585.148 1.12.335 1.604.56.48.225.896.565 1.248 1.021.356.46.429 1.312.219 2.556-.21 1.248-.612 1.964-1.206 2.149-.594.184-1.179.286-1.755.307-.576.025-1.111-.046-1.604-.215-.503-.164-1.031-.43-1.584-.799-.557-.363-1.172-.788-1.843-1.274-.677-.486-1.225-.887-1.646-1.205-.42-.317-1.03-.788-1.83-1.412-.799-.624-1.284-.993-1.453-1.105-.169-.118-.324-.256-.466-.415-.142-.158-.265-.332-.37-.522-.101-.194-.181-.399-.24-.614-.059-.209-.094-.427-.103-.652-.014-.22-.002-.44.034-.66.037-.2201.096-.4324.179-.6371.082-.1995.185-.3889.308-.568.123-.1739.265-.33.425-.4681.155-.1382.325-.2533.507-.3454.183-.087.373-.151.569-.1919.197-.041.396-.0537.597-.0384.196.0102.39.0512.582.1228.192.0665.498.2533.919.5603.425.3121.815.6678 1.172 1.0669.356.4042.715.8468 1.076 1.3279.366.486.74.967 1.124 1.443.389.476.825.957 1.309 1.443.485.486.949.893 1.392 1.22.452.328.976.681 1.57 1.059.589.379 1.172.76 1.748 1.144.571.389 1.112.757 1.624 1.105.507.343.93.758 1.268 1.244.334.491.288 1.097-.137 1.819-.429.721-.752.783-.966.184-.22-.599-.482-1.241-.789-1.927-.301-.685-.646-1.366-1.035-2.041-.393-.676-.831-1.315-1.316-1.919-.489-.604-.927-1.108-1.316-1.512-.388-.399-.882-.865-1.48-1.397-.604-.532-.953-.857-1.049-.975-.101-.117-.185-.248-.254-.391-.068-.143-.123-.292-.164-.445-.037-.159-.057-.318-.062-.4762 0-.1587.014-.3173.041-.4759.032-.1586.08-.3096.144-.4529.064-.1432.144-.2763.24-.3991.091-.1228.196-.2328.315-.33.115-.0972.238-.174.37-.2303.138-.0614.277-.1049.419-.1304.141-.0205.283-.0231.425-.0077.141.0153.281.0486.418.0998.137.0562.265.1279.384.2149.123.087.185.1304.185.1304z"/></g><path d="m158.918 135.887s.128-.097.384-.292c.256-.194.582-.483.98-.867.407-.384.834-.724 1.282-1.021.448-.302 1-.509 1.659-.622.653-.107 1.238.054 1.754.484.517.435.823.926.919 1.474.1.547.123 1.128.068 1.742-.05.609-.153 1.228-.308 1.857-.155.63-.375 1.2-.658 1.712-.279.512-.542 1.039-.788 1.581-.247.542-.409.532-.487-.031-.078-.562-.322-1.087-.734-1.573-.415-.486-.324-.486.275 0 .603.481.989.99 1.158 1.527.165.538.341 1.065.528 1.581.187.522.363 1.06.528 1.612.164.558.363 1.277.596 2.157.233.875.372 1.466.418 1.773s.046.614 0 .921-.132.599-.26.875c-.133.276-.3.522-.501.737s-.427.386-.678.514c-.252.133-.517.215-.795.246-.275.036-.549.02-.823-.046-.27-.067-.523-.179-.761-.338-.237-.164-.448-.363-.63-.599-.179-.24-.32-.504-.425-.79-.101-.292-.16-.591-.179-.898-.013-.312.016-.619.089-.921.078-.297.195-.576.35-.837.155-.256.343-.478.562-.668.224-.189.466-.332.727-.429.265-.103.537-.154.815-.154.279 0 .549.051.809.154.265.097.507.24.727.429.224.19.413.412.569.668.155.256.269.535.342.837.078.302.108.606.09.913-.014.312-.071.614-.172.906-.105.286-.247.55-.425.79-.183.236-.393.433-.63.591-.238.164-.492.279-.761.346-.274.066-.549.082-.823.046-.274-.031-.539-.113-.795-.246-.251-.128-.477-.299-.679-.514-.201-.215-.367-.461-.5-.737-.128-.271-.192-.407-.192-.407s-.082-.363-.247-1.09c-.16-.726-.31-1.351-.452-1.872-.137-.527-.288-1.049-.452-1.566-.165-.522-.313-1.059-.446-1.612-.133-.558-.014-.601.356-.13.375.47.316.445-.178-.077-.484-.522-.738-1.19-.761-2.003-.027-.814.08-1.477.323-1.988.233-.517.507-1.024.822-1.52.315-.502.642-.98.98-1.435.338-.466.636-.433.891.099.256.522.165.911-.274 1.167-.434.261-.79.466-1.069.614-.279.154-.48.261-.603.322-.128.062-.261.103-.398.123-.132.026-.265.033-.397.023-.138-.015-.272-.046-.405-.092-.128-.046-.249-.11-.363-.192-.119-.082-.226-.179-.322-.291-.092-.113-.172-.236-.24-.369-.069-.133-.124-.271-.165-.414-.036-.149-.057-.3-.061-.453-.01-.149 0-.299.027-.453.027-.148.071-.292.13-.43.06-.138.133-.268.22-.391.086-.118.185-.223.294-.315.11-.092.165-.138.165-.138z" fill="#fff"/><path d="m59.0045 142.203s.8249-.378 2.4745-1.136c1.6497-.757 3.4296-1.56 5.3398-2.41 1.9056-.849 3.8797-1.714 5.9224-2.594 2.0381-.88 4.1174-1.747 6.2377-2.602 2.1204-.86 4.1448-1.665 6.0732-2.418 1.9285-.752 3.6535-1.42 5.1753-2.003 1.5217-.583 2.8812-1.092 4.0785-1.527s2.2529-.806 3.1668-1.113c.9094-.312 1.6726-.591 2.2895-.837.6168-.245 1.3348-.529 2.1528-.852.822-.317 1.567-.588 2.234-.813.667-.231 1.296-.433 1.885-.607.59-.179 1.179-.373 1.769-.583.589-.21 1.332-.44 2.227-.691.896-.245 1.442-.363 1.639-.353.201.005.395.049.582.131.188.076.359.186.514.33.156.143.286.309.391.499.105.194.181.399.226.614.046.22.06.442.041.667-.018.22-.068.433-.15.637-.078.205-.185.392-.323.561-.137.163-.292.299-.466.406-.178.108-.365.182-.562.223-.196.041-.393.044-.589.008-.201-.031-.391-.098-.569-.2s-.336-.233-.473-.391c-.142-.164-.256-.346-.343-.545-.087-.205-.142-.417-.164-.637-.028-.225-.021-.448.02-.668s.112-.427.213-.622c.1-.194.226-.363.377-.506.151-.149.317-.266.5-.353.187-.087.379-.139.576-.154.201-.015.4.005.596.062.192.056.373.145.542.268.164.123.308.274.432.453.123.174.219.368.287.583.069.21.103.428.103.653.005.225-.023.442-.082.652-.064.215-.155.412-.274.591-.119.184-.261.34-.425.468-.165.128-.343.223-.535.284-.192.067-.288.1-.288.1s-.368.102-1.103.307c-.741.21-1.451.384-2.132.522s-1.33.241-1.947.307c-.617.061-1.254.128-1.912.2-.663.071-1.408.161-2.235.268-.827.113-1.554.236-2.18.369-.6257.133-1.3888.348-2.2891.644-.9002.297-1.9421.663-3.1257 1.098-1.1881.44-2.5385.957-4.0511 1.55-1.5171.589-3.2331 1.267-5.1478 2.034-1.9193.763-3.9277 1.579-6.0252 2.449s-4.1585 1.757-6.1829 2.663c-2.0198.906-3.9734 1.799-5.8607 2.679-1.8827.88-3.6398 1.722-5.2712 2.525-1.636.803-2.4997 1.22-2.5911 1.251-.0868.031-.1782.046-.2741.046-.0869.005-.176-.003-.2674-.023-.0959-.02-.185-.054-.2673-.1-.0868-.046-.1645-.102-.2331-.169-.0731-.066-.1393-.14-.1987-.222-.0549-.087-.1006-.177-.1371-.269-.0366-.097-.0617-.199-.0754-.307-.0183-.102-.0229-.202-.0137-.299.0091-.108.0274-.21.0548-.307.032-.103.0731-.197.1234-.284.0502-.087.1096-.166.1782-.238.064-.077.1371-.141.2193-.192.0823-.051.1234-.077.1234-.077z" fill="#fff"/><path d="m59.7316 139.255s.834-.248 2.502-.744c1.6725-.492 3.2765-.993 4.8119-1.505 1.5355-.511 3.0458-1.054 4.5309-1.627 1.4806-.568 2.9521-1.156 4.4144-1.765s2.9087-1.226 4.339-1.85c1.4349-.624 2.8835-1.256 4.3458-1.896 1.4669-.645 2.9635-1.287 4.4898-1.926 1.5263-.64 3.0366-1.274 4.5309-1.904 1.4898-.629 2.9292-1.243 4.3184-1.842 1.3847-.599 2.6963-1.166 3.9343-1.704 1.243-.537 2.411-1.033 3.503-1.489 1.097-.45 2.164-.859 3.201-1.228 1.037-.373 2.05-.726 3.037-1.059.987-.327 1.94-.645 2.858-.952.919-.307 1.791-.604 2.619-.89.827-.282 1.558-.558 2.193-.829.64-.271 1.186-.53 1.638-.775.453-.246 1.204-.563 2.256-.952 1.046-.394 1.638-.591 1.775-.591s.269.026.397.077c.133.046.254.115.364.207.109.097.203.207.281.33.073.128.128.266.164.415.041.148.057.299.048.452-.009.154-.039.302-.089.446-.05.138-.119.266-.205.383-.087.118-.19.218-.309.3-.119.076-.244.133-.377.169-.132.03-.267.038-.404.023-.137-.016-.268-.057-.391-.123-.123-.062-.235-.146-.336-.254-.101-.102-.183-.222-.247-.36-.064-.133-.107-.277-.13-.43-.023-.149-.023-.299 0-.453.023-.153.066-.297.13-.43.064-.138.144-.258.24-.361.101-.107.213-.194.336-.26.128-.062.258-.1.391-.116.137-.02.272-.012.404.023.137.031.263.085.377.162.119.081.224.181.316.299.086.113.155.24.205.384.05.143.08.291.089.445.009.153-.004.304-.041.453-.036.148-.094.286-.171.414-.078.123-.172.233-.281.33-.11.092-.229.161-.357.207-.128.052-.192.077-.192.077s-.447.167-1.343.499c-.896.328-1.609.573-2.139.737-.525.164-1.129.338-1.809.522-.677.179-1.431.386-2.262.622-.832.23-1.707.496-2.626.798-.918.297-1.864.609-2.838.936-.973.328-1.967.673-2.981 1.036-1.015.364-2.064.77-3.147 1.221-1.087.445-2.25.939-3.489 1.481-1.238.542-2.552 1.116-3.9411 1.719-1.3937.604-2.8355 1.221-4.3252 1.85-1.4943.635-2.9978 1.272-4.5104 1.911-1.5171.645-3.0069 1.29-4.4692 1.934-1.4669.65-2.9178 1.292-4.3527 1.927-1.4349.64-2.8904 1.274-4.3664 1.903-1.4715.63-2.9589 1.241-4.4624 1.835-1.4988.593-3.0229 1.161-4.572 1.704-1.5492.542-3.1554 1.074-4.8188 1.596-1.6634.527-2.5385.798-2.6253.814-.0869.015-.1691.018-.2468.007-.0868-.01-.1714-.03-.2536-.061-.0823-.031-.1577-.074-.2262-.13-.0731-.052-.1394-.113-.1988-.185-.0594-.071-.1097-.148-.1508-.23-.0411-.087-.0731-.176-.096-.269-.0228-.092-.0365-.186-.0411-.284 0-.087.0091-.179.0274-.276.0183-.092.0457-.182.0823-.269.0411-.087.0891-.166.1439-.237.0549-.077.1165-.144.1851-.2.0731-.056.1485-.102.2262-.138s.1165-.054.1165-.054z" fill="#10b981"/><path d="m73.5969 162.168s.5392-.345 1.6177-1.036c1.0876-.686 2.3831-1.51 3.8866-2.472 1.5034-.962 3.1896-2.011 5.0587-3.147 1.8736-1.141 3.8591-2.317 5.9566-3.53 2.0976-1.213 4.2499-2.395 6.4571-3.546 2.2118-1.157 4.4354-2.257 6.6694-3.301 2.235-1.048 4.41-2.039 6.526-2.97 2.111-.931 4.14-1.814 6.087-2.648 1.951-.834 3.783-1.599 5.497-2.295 1.709-.701 3.267-1.322 4.675-1.865 1.407-.542 2.664-1.021 3.77-1.435 1.101-.415 2.036-.78 2.804-1.098.767-.317 1.588-.591 2.46-.821.873-.235 1.358-.384 1.454-.445.091-.067.189-.115.294-.146.11-.031.22-.038.329-.023.11.01.215.038.316.084.1.052.192.118.274.2.078.082.144.177.199.284.054.107.091.223.109.345.023.123.025.243.007.361-.014.123-.046.241-.096.353-.05.108-.114.205-.192.292-.077.087-.167.158-.267.215-.096.051-.199.084-.309.1-.109.015-.219.012-.329-.008-.105-.026-.205-.069-.301-.131-.096-.061-.181-.138-.254-.23s-.13-.194-.171-.307c-.046-.112-.071-.23-.076-.353-.009-.123 0-.246.028-.368.027-.118.071-.228.13-.33.059-.103.133-.192.219-.269.083-.077.176-.136.281-.177.106-.041.213-.064.323-.069.109 0 .217.018.322.054s.201.09.288.161c.091.072.169.159.233.261.059.097.105.207.137.33.032.118.048.238.048.361-.005.123-.028.24-.069.353-.036.118-.089.223-.157.315-.069.097-.103.146-.103.146s-.56.186-1.68.56c-1.115.373-2.063.683-2.844.929-.782.245-1.723.575-2.824.99-1.102.419-2.349.898-3.743 1.435s-2.943 1.156-4.647 1.857c-1.705.696-3.528 1.461-5.47 2.295-1.943.834-3.962 1.717-6.06 2.648-2.097.932-4.252 1.919-6.464 2.963-2.212 1.039-4.4074 2.134-6.5871 3.285-2.1844 1.146-4.3162 2.328-6.3954 3.546s-4.0442 2.4-5.895 3.546c-1.8462 1.151-3.5164 2.216-5.0107 3.193-1.4898.982-2.7693 1.832-3.8386 2.548-1.0693.711-1.6428 1.087-1.7205 1.128-.0777.036-.16.062-.2468.077-.0868.021-.1691.026-.2468.015-.0868-.005-.1713-.023-.2536-.053-.0822-.031-.1599-.072-.233-.123-.0732-.051-.1394-.113-.1988-.184-.0594-.067-.1097-.141-.1508-.223-.0457-.087-.08-.176-.1028-.269-.0275-.092-.0412-.186-.0412-.283-.0045-.087 0-.18.0137-.277.0183-.092.0457-.181.0823-.268s.0823-.169.1371-.246.1165-.143.1851-.2c.0685-.056.1028-.084.1028-.084z" fill="#10b981"/></svg>