<svg width="243" height="255" viewBox="0 0 243 255" fill="none" xmlns="http://www.w3.org/2000/svg">
<path d="M7.88324 52.7798C7.88324 52.7798 8.0546 53.5166 8.39733 54.9903C8.74464 56.469 9.21761 58.4774 9.81624 61.0154C10.4195 63.5533 11.1118 66.6158 11.8932 70.2027C12.6792 73.7948 13.4835 77.6375 14.306 81.731C15.1286 85.8245 15.9968 90.1432 16.9108 94.6869C17.8293 99.2307 18.8301 104.23 19.9131 109.684C21.0007 115.139 22.182 120.934 23.457 127.069C24.7365 133.209 26.0983 139.567 27.5423 146.142C28.9864 152.717 30.419 159.236 31.8402 165.699C33.2568 172.156 34.614 178.179 35.9118 183.767C37.2096 189.354 38.4389 194.576 39.5996 199.432C40.7649 204.288 41.8205 208.686 42.7665 212.626C43.7078 216.571 44.5327 219.948 45.241 222.757C45.9447 225.561 46.5662 227.999 47.1054 230.072C47.6401 232.144 48.1154 233.963 48.5312 235.529C48.9471 237.095 49.3149 238.453 49.6348 239.604C49.9501 240.756 50.2403 241.713 50.5053 242.475C50.7658 243.232 51.0788 244.117 51.4444 245.131C51.81 246.139 52.0179 246.701 52.0682 246.819C52.1185 246.932 52.1505 247.055 52.1642 247.188C52.1779 247.315 52.171 247.441 52.1436 247.564C52.1207 247.692 52.0796 247.812 52.0202 247.924C51.9608 248.032 51.8877 248.129 51.8009 248.216C51.714 248.298 51.6181 248.364 51.513 248.416C51.4079 248.462 51.2959 248.49 51.1771 248.5C51.0629 248.505 50.9509 248.492 50.8412 248.462C50.7315 248.426 50.6287 248.372 50.5328 248.3C50.4368 248.229 50.3523 248.142 50.2791 248.04C50.2106 247.937 50.158 247.827 50.1215 247.709C50.0804 247.587 50.0598 247.461 50.0598 247.333C50.0598 247.2 50.0781 247.072 50.1146 246.95C50.1512 246.827 50.2037 246.714 50.2723 246.612C50.3408 246.51 50.4231 246.423 50.5191 246.351C50.6104 246.279 50.7133 246.226 50.8275 246.19C50.9372 246.154 51.0491 246.139 51.1634 246.144C51.2776 246.149 51.3896 246.174 51.4993 246.22C51.6044 246.267 51.7026 246.33 51.794 246.412C51.8808 246.499 51.954 246.597 52.0134 246.704C52.0728 246.817 52.1162 246.934 52.1436 247.057C52.1664 247.185 52.1733 247.313 52.1642 247.441C52.1505 247.569 52.1207 247.692 52.0751 247.809C52.0294 247.927 51.9654 248.032 51.8831 248.124C51.8054 248.221 51.7163 248.3 51.6158 248.362C51.5153 248.423 51.4079 248.464 51.2936 248.485C51.1794 248.505 51.0651 248.505 50.9509 248.485C50.8366 248.464 50.7293 248.426 50.6287 248.37C50.5282 248.308 50.4368 248.231 50.3545 248.139C50.2769 248.047 50.238 248.001 50.238 248.001C50.238 248.001 50.0187 247.387 49.58 246.159C49.1458 244.931 48.8374 243.918 48.6546 243.12C48.4764 242.327 48.2273 241.352 47.9074 240.195C47.5876 239.034 47.2174 237.668 46.797 236.097C46.3811 234.526 45.9059 232.704 45.3712 230.632C44.832 228.554 44.2082 226.106 43.4999 223.287C42.787 220.472 41.9599 217.095 41.0185 213.155C40.0726 209.215 39.017 204.815 37.8517 199.954C36.6818 195.088 35.448 189.858 34.1502 184.265C32.8478 178.673 31.486 172.645 30.0648 166.182C28.6436 159.725 27.2087 153.203 25.7601 146.618C24.3115 140.038 22.9452 133.675 21.661 127.53C20.3769 121.389 19.1911 115.594 18.1035 110.145C17.0113 104.696 16.0037 99.6989 15.0806 95.1551C14.1529 90.6113 13.2733 86.3004 12.4416 82.2222C11.6099 78.1441 10.7965 74.3218 10.0013 70.7553C9.20618 67.1889 8.49787 64.1392 7.87638 61.6064C7.25033 59.0735 6.75451 57.0728 6.38893 55.6043C6.01421 54.1409 5.81999 53.3605 5.80628 53.2633C5.79257 53.1661 5.79029 53.074 5.79943 52.987C5.80857 52.8898 5.82685 52.7951 5.85427 52.703C5.88168 52.6109 5.92053 52.5265 5.97079 52.4497C6.01649 52.3679 6.07133 52.2937 6.13531 52.2271C6.19928 52.1606 6.26783 52.1043 6.34094 52.0583C6.41863 52.0122 6.4986 51.9764 6.58086 51.9508C6.66311 51.9253 6.74765 51.9099 6.83448 51.9048C6.91673 51.9048 6.99899 51.915 7.08125 51.9355C7.1635 51.956 7.24347 51.9867 7.32116 52.0276C7.39884 52.0736 7.46967 52.1274 7.53365 52.1888C7.6022 52.2502 7.6616 52.3193 7.71187 52.396C7.76214 52.4779 7.80327 52.5623 7.83525 52.6493C7.86724 52.7363 7.88324 52.7798 7.88324 52.7798Z" fill="#10B981"/>
<path d="M7.12894 53.3392C7.12894 53.3392 7.28431 53.0654 7.59505 52.5179C7.9058 51.9653 8.36277 51.2438 8.96598 50.3535C9.57833 49.458 10.0444 48.7852 10.3643 48.3349C10.6842 47.8795 11.0064 47.4241 11.3308 46.9687C11.6553 46.5082 11.9729 46.0528 12.2836 45.6025C12.5898 45.1522 13.0056 44.5126 13.5312 43.6836C14.0567 42.8598 14.5342 42.0821 14.9638 41.3504C15.3888 40.6186 15.8526 39.8639 16.3553 39.0861C16.8534 38.3084 17.3538 37.5536 17.8564 36.8219C18.3591 36.0953 18.8092 35.4122 19.2068 34.7726C19.6044 34.1381 19.954 33.5855 20.2556 33.1148C20.5572 32.6491 20.8999 32.0863 21.2838 31.4262C21.6676 30.7661 22.0606 30.1009 22.4628 29.4306C22.8603 28.7603 23.2785 28.1079 23.7171 27.4734C24.1604 26.8338 24.5694 26.2377 24.9441 25.6851C25.3143 25.1324 25.6707 24.59 26.0135 24.0579C26.3516 23.5206 26.8474 23.0192 27.5009 22.5535C28.1544 22.093 28.8993 21.9856 29.7355 22.2312C30.5764 22.4819 31.1796 22.8529 31.5451 23.3441C31.9153 23.8353 32.2717 24.2958 32.6145 24.7256C32.9526 25.1503 33.3091 25.5955 33.6838 26.0611C34.0585 26.5319 34.4469 27.0359 34.8491 27.5732C35.2558 28.1105 35.6236 28.6119 35.9527 29.0775C36.2863 29.5432 36.6473 30.0063 37.0357 30.4668C37.4241 30.9273 37.8126 31.3673 38.201 31.7869C38.5894 32.2065 39.0578 32.6466 39.6062 33.1071C40.1546 33.5625 40.6687 34.0128 41.1485 34.4579C41.6283 34.9031 42.147 35.3969 42.7045 35.9393C43.262 36.4868 43.7121 36.9729 44.0548 37.3976C44.393 37.8274 44.738 38.3595 45.0899 38.994C45.4418 39.6285 45.652 40.2809 45.7205 40.9512C45.7936 41.6267 45.7297 42.2228 45.5286 42.7396C45.3321 43.2615 44.9939 43.6657 44.5141 43.9523C44.0388 44.2337 43.575 44.5305 43.1226 44.8426C42.6702 45.1496 42.1698 45.4413 41.6214 45.7176C41.0776 45.999 40.5087 46.283 39.9146 46.5696C39.3206 46.8561 38.7105 47.1247 38.0845 47.3755C37.463 47.6262 36.9169 47.8948 36.4462 48.1814C35.9755 48.4628 35.4568 48.8133 34.8902 49.2329C34.3235 49.6474 33.782 50.0593 33.2656 50.4686C32.7493 50.878 32.2512 51.2617 31.7713 51.6199C31.2961 51.9781 30.8048 52.3184 30.2976 52.6407C29.7904 52.958 29.2694 53.2496 28.7347 53.5157C28.2001 53.7818 27.6563 54.0223 27.1033 54.2372C26.555 54.447 25.9609 54.6593 25.3211 54.8742C24.6814 55.084 24.0713 55.2657 23.4909 55.4192C22.906 55.5727 22.2937 55.7364 21.6539 55.9104C21.0187 56.0844 20.4086 56.22 19.8237 56.3172C19.2434 56.4093 18.6561 56.4937 18.0621 56.5705C17.4726 56.6472 16.9356 56.7112 16.4512 56.7624C15.9623 56.8135 15.4253 56.8596 14.8404 56.9005C14.2555 56.9415 13.6477 57.0003 13.0171 57.0771C12.3864 57.1538 11.4771 57.1692 10.2889 57.1231C9.10536 57.0822 8.39019 57.031 8.14342 56.9696C7.89209 56.9082 7.65674 56.8059 7.4374 56.6626C7.21805 56.5142 7.02612 56.33 6.86161 56.11C6.69253 55.8951 6.56 55.6546 6.46404 55.3885C6.36807 55.1224 6.31324 54.8487 6.29953 54.5672C6.28582 54.2858 6.31095 54.0069 6.37493 53.7306C6.44347 53.4543 6.54858 53.1959 6.69024 52.9554C6.83647 52.72 7.01012 52.5154 7.21119 52.3414C7.41226 52.1674 7.6339 52.0344 7.87609 51.9423C8.11829 51.8502 8.36734 51.8016 8.62325 51.7964C8.87458 51.7964 9.12135 51.8425 9.36355 51.9346C9.60575 52.0216 9.82966 52.1521 10.0353 52.326C10.2364 52.5 10.41 52.7047 10.5563 52.9401C10.6979 53.1754 10.8053 53.4313 10.8784 53.7076C10.947 53.9839 10.9744 54.2602 10.9607 54.5365C10.947 54.8231 10.8944 55.0994 10.803 55.3655C10.7071 55.6315 10.5768 55.8746 10.4123 56.0946C10.2478 56.3146 10.0582 56.4988 9.84337 56.6472C9.62402 56.7956 9.38868 56.9005 9.13735 56.9619C8.89058 57.0233 8.64153 57.0412 8.39019 57.0157C8.13885 56.985 7.89666 56.9108 7.6636 56.7931C7.43054 56.6703 7.22033 56.5116 7.03297 56.3172C6.84561 56.1228 6.69253 55.9002 6.57371 55.6494C6.4549 55.3936 6.37264 55.125 6.32695 54.8435C6.28582 54.5621 6.28582 54.2832 6.32695 54.0069C6.36807 53.7255 6.44576 53.4569 6.56 53.201C6.67882 52.9503 6.8319 52.7252 7.01926 52.5256C7.20205 52.326 7.40998 52.1674 7.64304 52.0497C7.87609 51.9269 8.11829 51.8502 8.36963 51.8195C8.62096 51.7837 8.74663 51.7657 8.74663 51.7657C8.74663 51.7657 8.98654 51.7888 9.46637 51.8348C9.94619 51.8758 10.49 51.8323 11.0978 51.7043C11.701 51.5815 12.2631 51.492 12.784 51.4357C13.305 51.3845 13.8556 51.341 14.436 51.3052C15.0163 51.2745 15.5579 51.2464 16.0605 51.2208C16.5632 51.1901 17.1001 51.144 17.6714 51.0826C18.2426 51.0161 18.8024 50.9317 19.3507 50.8294C19.8945 50.727 20.4064 50.617 20.8862 50.4993C21.366 50.3765 21.855 50.2486 22.3531 50.1156C22.8512 49.9876 23.3539 49.8367 23.8611 49.6627C24.3683 49.4939 24.9693 49.2687 25.6639 48.9873C26.3585 48.7007 26.9891 48.3912 27.5557 48.0586C28.127 47.7311 28.6182 47.4138 29.0295 47.1068C29.4408 46.7998 29.9115 46.4314 30.4415 46.0016C30.9671 45.5667 31.5588 45.0908 32.2169 44.574C32.8704 44.0521 33.565 43.566 34.3007 43.1157C35.0364 42.6603 35.7699 42.2688 36.501 41.9414C37.2276 41.6088 37.8194 41.3299 38.2764 41.1047C38.7288 40.8847 39.1812 40.657 39.6336 40.4216C40.0906 40.1914 40.5544 39.9688 41.0251 39.7539C41.5003 39.5339 41.6169 39.823 41.3747 40.6212C41.1371 41.4194 41.1508 42.0642 41.4158 42.5554C41.6809 43.0517 41.6123 42.998 41.2102 42.3942C40.8035 41.7904 40.4173 41.2608 40.0517 40.8054C39.6907 40.3449 39.316 39.9304 38.9276 39.562C38.5391 39.1885 38.121 38.7894 37.6732 38.3647C37.2253 37.9451 36.7524 37.5178 36.2543 37.0829C35.7516 36.6531 35.2718 36.1926 34.8148 35.7013C34.3533 35.2101 33.894 34.701 33.437 34.1739C32.98 33.6418 32.5642 33.1173 32.1895 32.6005C31.8148 32.0786 31.4492 31.5848 31.0927 31.1192C30.7317 30.6535 30.3593 30.1853 29.9754 29.7146C29.5961 29.2438 29.2306 28.791 28.8787 28.3561C28.5314 27.9211 28.1932 27.476 27.8642 27.0206C27.5397 26.56 27.6906 26.363 28.3166 26.4296C28.9472 26.491 29.5162 26.4014 30.0234 26.1609C30.5261 25.9153 30.6175 26.0535 30.2976 26.5754C29.9777 27.1024 29.6578 27.5809 29.3379 28.0107C29.0226 28.4405 28.6411 28.9547 28.1932 29.5534C27.75 30.1521 27.3432 30.7047 26.9731 31.2113C26.6029 31.7178 26.2716 32.1988 25.9792 32.6542C25.6867 33.1045 25.3897 33.5599 25.0881 34.0204C24.7865 34.481 24.4849 34.9236 24.1833 35.3483C23.8862 35.773 23.5549 36.2463 23.1893 36.7682C22.8238 37.285 22.3896 37.9041 21.887 38.6256C21.3889 39.3522 20.8885 40.0558 20.3858 40.7363C19.8831 41.422 19.401 42.1179 18.9395 42.824C18.4825 43.5353 17.989 44.2823 17.4589 45.0652C16.9333 45.8481 16.5198 46.4621 16.2182 46.9073C15.912 47.3473 15.5944 47.8002 15.2654 48.2658C14.9364 48.7263 14.6073 49.1817 14.2783 49.632C13.9447 50.0823 13.6066 50.5428 13.2638 51.0136C12.9165 51.4894 12.4641 52.083 11.9066 52.7942C11.3537 53.5055 10.9195 54.1297 10.6042 54.667C10.2889 55.2145 10.0856 55.5497 9.99417 55.6725C9.90278 55.7953 9.79996 55.9053 9.68572 56.0025C9.5669 56.0997 9.44352 56.179 9.31557 56.2404C9.18304 56.3018 9.04595 56.3453 8.90429 56.3709C8.76263 56.3965 8.62096 56.4016 8.4793 56.3863C8.33764 56.3709 8.19826 56.3377 8.06117 56.2865C7.92865 56.2353 7.80069 56.1663 7.67731 56.0793C7.55849 55.9923 7.44882 55.8925 7.34829 55.7799C7.24775 55.6622 7.16321 55.5343 7.09466 55.3962C7.02155 55.2529 6.96671 55.1045 6.93015 54.951C6.88903 54.7975 6.86618 54.6389 6.86161 54.4751C6.85704 54.3216 6.86846 54.1656 6.89588 54.0069C6.92787 53.8534 6.97585 53.7025 7.03983 53.5541C7.09923 53.4108 7.12894 53.3392 7.12894 53.3392Z" fill="#10B981"/>
<path d="M30.0537 23.6965C30.0537 23.6965 30.6066 23.7068 31.7125 23.7272C32.8184 23.7426 33.9311 23.7426 35.0507 23.7272C36.1749 23.7119 37.3219 23.6735 38.4917 23.6121C39.6616 23.5507 40.8886 23.4765 42.1727 23.3895C43.4613 23.3077 44.8048 23.2156 46.2032 23.1132C47.6061 23.016 49.0844 22.8804 50.6381 22.7064C52.1919 22.5273 53.8507 22.2971 55.6146 22.0156C57.3831 21.7342 59.211 21.4093 61.0983 21.0409C62.9902 20.6725 64.8821 20.2708 66.7739 19.8359C68.6658 19.3958 70.5303 18.9327 72.3673 18.4466C74.2089 17.9554 76.0483 17.4463 77.8853 16.9192C79.7223 16.3973 81.5388 15.8856 83.3347 15.3842C85.1261 14.8776 86.89 14.3838 88.6265 13.9028C90.363 13.4167 92.0561 12.9409 93.7058 12.4752C95.3555 12.0096 96.9435 11.5542 98.4698 11.109C99.9961 10.6639 101.458 10.2417 102.857 9.84261C104.255 9.4435 105.562 9.08531 106.778 8.76807C107.989 8.45594 109.072 8.19242 110.027 7.97751C110.982 7.75749 111.793 7.55537 112.46 7.37116C113.127 7.18184 113.815 6.96437 114.523 6.71876C115.227 6.46804 115.846 6.34779 116.381 6.35802C116.911 6.37337 117.391 6.64969 117.82 7.18696C118.25 7.72423 118.796 8.71946 119.459 10.1726C120.121 11.6258 121.024 13.5907 122.166 16.0673C123.309 18.5438 124.625 21.4246 126.115 24.7097C127.604 27.9947 129.201 31.6661 130.906 35.7237C132.61 39.7865 134.354 44.1794 136.136 48.9022C137.923 53.6251 139.723 58.6601 141.537 64.0072C143.352 69.3492 145.145 75.0059 146.918 80.9773C148.687 86.9487 150.496 93.332 152.347 100.127C154.193 106.922 156.017 113.761 157.817 120.643C159.622 127.52 161.274 133.842 162.773 139.609C164.272 145.371 165.739 150.797 167.174 155.888C168.609 160.98 170.021 165.713 171.41 170.088C172.799 174.463 174.044 178.193 175.146 181.278C176.242 184.364 177.227 187.035 178.1 189.291C178.968 191.548 179.754 193.469 180.458 195.055C181.162 196.642 181.77 197.926 182.281 198.908C182.793 199.886 183.234 200.648 183.604 201.196C183.974 201.743 184.347 202.191 184.722 202.539C185.096 202.892 185.245 203.079 185.167 203.099C185.089 203.125 185.11 203.14 185.229 203.145C185.352 203.155 185.469 203.181 185.578 203.222C185.693 203.263 185.8 203.319 185.901 203.391C186.001 203.462 186.095 203.547 186.182 203.644C186.264 203.736 186.335 203.841 186.394 203.959C186.454 204.071 186.502 204.192 186.538 204.319C186.57 204.447 186.591 204.578 186.6 204.711C186.604 204.844 186.595 204.977 186.572 205.11C186.55 205.238 186.513 205.363 186.463 205.486C186.412 205.609 186.351 205.721 186.278 205.824C186.2 205.926 186.115 206.018 186.024 206.1C185.928 206.182 185.825 206.251 185.716 206.307C185.606 206.359 185.492 206.394 185.373 206.415C185.259 206.44 184.653 206.681 183.556 207.136C182.46 207.592 181.274 208.047 179.999 208.503C178.728 208.963 177.309 209.47 175.742 210.022C174.175 210.575 172.587 211.145 170.978 211.734C169.365 212.317 167.738 212.908 166.098 213.507C164.452 214.111 162.83 214.717 161.231 215.326C159.627 215.935 158.091 216.526 156.624 217.099C155.153 217.672 153.709 218.253 152.292 218.841C150.871 219.424 149.466 220.028 148.077 220.653C146.688 221.277 145.301 221.911 143.916 222.556C142.527 223.196 141.14 223.833 139.755 224.467C138.366 225.107 136.988 225.734 135.622 226.348C134.251 226.962 132.864 227.586 131.461 228.22C130.054 228.86 128.635 229.502 127.204 230.147C125.774 230.797 124.351 231.408 122.934 231.981C121.522 232.554 120.119 233.087 118.725 233.578C117.336 234.074 115.979 234.537 114.654 234.967C113.324 235.397 112.056 235.783 110.849 236.126C109.643 236.474 108.448 236.804 107.264 237.116C106.085 237.433 104.918 237.745 103.762 238.052C102.601 238.359 101.484 238.664 100.41 238.966C99.3403 239.268 98.2893 239.554 97.2565 239.825C96.2283 240.097 95.2252 240.337 94.2473 240.547C93.2694 240.762 92.3143 240.959 91.3821 241.138C90.4544 241.322 89.5519 241.509 88.6745 241.698C87.8017 241.888 86.922 242.059 86.0355 242.212C85.1444 242.361 84.2396 242.486 83.321 242.589C82.4071 242.686 81.5434 242.791 80.73 242.903C79.9166 243.021 79.1534 243.141 78.4405 243.264C77.7231 243.387 77.0171 243.51 76.3225 243.632C75.6233 243.75 74.9447 243.868 74.2866 243.985C73.624 244.103 73.0071 244.229 72.4359 244.362C71.8647 244.5 71.3071 244.638 70.7633 244.776C70.2241 244.914 69.7077 245.047 69.2142 245.175C68.7252 245.298 68.1586 245.469 67.5142 245.689C66.8745 245.904 65.8943 246.224 64.5736 246.649C63.2529 247.073 62.4944 247.278 62.2979 247.263C62.0968 247.242 61.9049 247.186 61.7221 247.094C61.5347 247.007 61.3679 246.887 61.2217 246.733C61.0709 246.585 60.9475 246.413 60.8515 246.219C60.751 246.019 60.6825 245.81 60.6459 245.59C60.6093 245.37 60.6048 245.147 60.6322 244.922C60.6596 244.702 60.719 244.489 60.8104 244.285C60.8972 244.085 61.0138 243.906 61.16 243.748C61.3017 243.589 61.4616 243.461 61.6398 243.364C61.8226 243.267 62.0123 243.203 62.2088 243.172C62.4098 243.141 62.6086 243.146 62.8051 243.187C63.0016 243.233 63.1867 243.313 63.3603 243.425C63.5386 243.538 63.6939 243.676 63.8265 243.84C63.959 244.008 64.0641 244.198 64.1418 244.408C64.2195 244.612 64.2674 244.827 64.2857 245.052C64.2994 245.277 64.2811 245.497 64.2309 245.712C64.1852 245.932 64.1075 246.137 63.9978 246.326C63.8881 246.516 63.7556 246.679 63.6002 246.818C63.4403 246.961 63.2667 247.071 63.0793 247.148C62.8919 247.224 62.6977 247.265 62.4967 247.27C62.2956 247.276 62.0991 247.245 61.9072 247.178C61.7152 247.107 61.537 247.007 61.3725 246.879C61.2126 246.746 61.0732 246.587 60.9544 246.403C60.8401 246.219 60.7533 246.019 60.6939 245.805C60.6345 245.59 60.6071 245.37 60.6116 245.144C60.6208 244.919 60.6596 244.702 60.7282 244.492C60.8013 244.282 60.8995 244.09 61.0229 243.916C61.1509 243.742 61.2994 243.594 61.4685 243.471C61.6375 243.354 61.8203 243.267 62.0168 243.21C62.2133 243.159 62.3116 243.133 62.3116 243.133C62.307 243.133 62.6109 243.062 63.2232 242.919C63.831 242.78 64.4022 242.629 64.9369 242.466C65.4716 242.307 66.1045 242.166 66.8356 242.044C67.5714 241.926 68.186 241.834 68.6795 241.767C69.1685 241.701 69.6986 241.627 70.2698 241.545C70.841 241.458 71.4351 241.373 72.052 241.291C72.6735 241.215 73.3178 241.148 73.985 241.092C74.6522 241.03 75.34 240.969 76.0483 240.908C76.752 240.851 77.4695 240.793 78.2006 240.731C78.9318 240.675 79.7086 240.613 80.5312 240.547C81.3492 240.48 82.2037 240.404 83.0948 240.317C83.9814 240.235 84.8588 240.135 85.727 240.017C86.5953 239.9 87.4727 239.761 88.3592 239.603C89.2411 239.449 90.1414 239.291 91.0599 239.127C91.9784 238.968 92.9152 238.784 93.8703 238.574C94.8254 238.37 95.8125 238.132 96.8315 237.861C97.8551 237.594 98.9062 237.31 99.9846 237.009C101.063 236.707 102.183 236.4 103.343 236.088C104.504 235.775 105.667 235.466 106.832 235.159C108.002 234.847 109.184 234.519 110.376 234.176C111.564 233.834 112.814 233.45 114.126 233.025C115.437 232.6 116.778 232.145 118.149 231.659C119.516 231.173 120.896 230.646 122.29 230.078C123.683 229.515 125.093 228.909 126.519 228.259C127.949 227.609 129.368 226.964 130.776 226.325C132.179 225.68 133.561 225.05 134.923 224.436C136.284 223.822 137.658 223.193 139.042 222.548C140.427 221.909 141.812 221.261 143.196 220.606C144.585 219.957 145.982 219.309 147.384 218.665C148.787 218.02 150.199 217.396 151.621 216.792C153.042 216.183 154.486 215.579 155.953 214.98C157.42 214.387 158.953 213.768 160.552 213.123C162.147 212.478 163.76 211.836 165.392 211.197C167.018 210.552 168.629 209.907 170.224 209.262C171.814 208.618 173.373 207.983 174.899 207.359C176.425 206.735 177.801 206.144 179.025 205.586C180.246 205.028 181.281 204.542 182.131 204.128C182.976 203.718 183.675 203.45 184.228 203.322C184.776 203.199 185.11 203.14 185.229 203.145C185.348 203.155 185.464 203.181 185.578 203.222C185.693 203.263 185.8 203.319 185.901 203.391C186.001 203.462 186.095 203.547 186.182 203.644C186.264 203.736 186.335 203.841 186.394 203.959C186.454 204.071 186.502 204.192 186.538 204.319C186.57 204.447 186.591 204.578 186.6 204.711C186.604 204.844 186.595 204.977 186.572 205.11C186.55 205.238 186.513 205.363 186.463 205.486C186.412 205.609 186.351 205.721 186.278 205.824C186.2 205.926 186.115 206.018 186.024 206.1C185.928 206.182 185.825 206.251 185.716 206.307C185.606 206.359 185.492 206.394 185.373 206.415C185.259 206.44 185.263 206.417 185.387 206.346C185.51 206.279 185.236 206.087 184.564 205.77C183.888 205.453 183.351 204.959 182.953 204.289C182.551 203.618 182.206 202.969 181.918 202.339C181.63 201.71 181.221 200.886 180.691 199.868C180.161 198.85 179.535 197.532 178.813 195.915C178.095 194.293 177.298 192.346 176.421 190.074C175.543 187.802 174.549 185.111 173.439 182C172.328 178.894 171.072 175.141 169.669 170.74C168.27 166.345 166.849 161.596 165.405 156.495C163.961 151.388 162.487 145.954 160.984 140.192C159.476 134.431 157.817 128.116 156.008 121.25C154.198 114.383 152.365 107.559 150.51 100.78C148.659 94.0049 146.843 87.6523 145.061 81.7218C143.283 75.7863 141.48 70.1654 139.652 64.8592C137.824 59.553 136.008 54.5615 134.203 49.8847C132.402 45.2079 130.634 40.8611 128.897 36.8443C127.166 32.8327 125.53 29.2048 123.99 25.9608C122.454 22.7269 121.081 19.8998 119.87 17.4795C118.654 15.0644 117.713 13.0918 117.046 11.5619C116.379 10.0319 115.675 9.28999 114.935 9.33604C114.194 9.38721 113.488 9.44861 112.817 9.52025C112.149 9.597 111.347 9.74027 110.411 9.95007C109.469 10.1599 108.4 10.4208 107.203 10.7329C106.001 11.0451 104.703 11.4007 103.309 11.7998C101.911 12.1938 100.446 12.616 98.9153 13.0662C97.3845 13.5114 95.7942 13.9694 94.1445 14.4401C92.4948 14.9058 90.8017 15.3791 89.0652 15.86C87.3333 16.3462 85.5694 16.8425 83.7734 17.3491C81.9821 17.8505 80.1633 18.3648 78.3172 18.8918C76.471 19.4188 74.6202 19.9305 72.7649 20.4269C70.9096 20.9232 69.0268 21.3939 67.1167 21.8391C65.2065 22.2792 63.2986 22.6885 61.3931 23.0672C59.4829 23.4407 57.6321 23.7733 55.8408 24.065C54.054 24.3566 52.3724 24.5945 50.7958 24.7788C49.2192 24.9578 47.7295 25.1037 46.3266 25.2162C44.9282 25.3237 43.5824 25.426 42.2892 25.5233C40.996 25.6205 39.7553 25.71 38.5671 25.7919C37.379 25.8686 36.216 25.93 35.0781 25.9761C33.9403 26.017 32.8184 26.0452 31.7125 26.0605C30.6066 26.081 30.0126 26.0836 29.9303 26.0682C29.8435 26.058 29.7612 26.0375 29.6835 26.0068C29.6013 25.971 29.5236 25.9249 29.4505 25.8686C29.3819 25.8124 29.3179 25.7484 29.2585 25.6768C29.2037 25.6051 29.1557 25.5284 29.1146 25.4465C29.0735 25.3595 29.0438 25.27 29.0255 25.1779C29.0026 25.0806 28.9912 24.986 28.9912 24.8939C28.9912 24.8018 29.0026 24.7071 29.0255 24.6099C29.0438 24.5178 29.0735 24.4282 29.1146 24.3413C29.1557 24.2594 29.2037 24.1826 29.2585 24.111C29.3179 24.0394 29.3819 23.9754 29.4505 23.9191C29.5236 23.8628 29.6013 23.8168 29.6835 23.781C29.7612 23.7503 29.8435 23.7298 29.9303 23.7196C30.0126 23.7042 30.0537 23.6965 30.0537 23.6965Z" fill="#10B981"/>
<path d="M38.4126 73.1458C38.4126 73.1458 38.7553 73.0306 39.4408 72.8004C40.1262 72.565 40.8003 72.3194 41.4629 72.0635C42.1209 71.8077 42.811 71.5365 43.533 71.25C44.2504 70.9685 45.0067 70.6871 45.8019 70.4057C46.597 70.1294 47.4173 69.8633 48.2627 69.6074C49.1127 69.3465 50.0243 69.0906 50.9977 68.8399C51.971 68.5892 53.0015 68.318 54.0891 68.0263C55.1722 67.7398 56.2529 67.4379 57.3314 67.1206C58.4144 66.8085 59.5568 66.4913 60.7587 66.1689C61.9651 65.8414 63.2149 65.5088 64.5082 65.1711C65.8014 64.8334 67.1175 64.4855 68.4564 64.1273C69.7999 63.764 71.1937 63.3981 72.6378 63.0297C74.0772 62.6613 75.5258 62.2852 76.9836 61.9014C78.4459 61.5228 79.8763 61.1441 81.2746 60.7655C82.6729 60.3868 84.053 59.998 85.4148 59.5988C86.7766 59.1997 88.1018 58.8006 89.3905 58.4015C90.6746 58.0024 91.881 57.634 93.0097 57.2963C94.1385 56.9534 95.2055 56.6285 96.2108 56.3215C97.2162 56.0094 98.1644 55.7049 99.0555 55.4081C99.942 55.1114 100.774 54.8197 101.551 54.5331C102.323 54.2466 103.052 53.9677 103.737 53.6965C104.427 53.4253 105.065 53.1593 105.65 52.8983C106.239 52.6373 106.79 52.3815 107.302 52.1308C107.818 51.88 108.321 51.6319 108.81 51.3863C109.299 51.1407 109.92 50.8209 110.674 50.4269C111.424 50.038 112.248 49.7003 113.149 49.4137C114.044 49.1272 114.581 48.9558 114.759 48.8995C114.938 48.8381 115.118 48.8099 115.301 48.815C115.488 48.8202 115.667 48.8611 115.836 48.9378C116.009 49.0095 116.169 49.1093 116.315 49.2372C116.457 49.3702 116.578 49.5237 116.679 49.6977C116.775 49.8717 116.846 50.0584 116.891 50.258C116.937 50.4627 116.951 50.6674 116.932 50.872C116.919 51.0767 116.873 51.2737 116.795 51.463C116.722 51.6523 116.624 51.8238 116.501 51.9773C116.377 52.1308 116.236 52.2587 116.076 52.361C115.911 52.4634 115.74 52.5325 115.561 52.5683C115.379 52.6092 115.196 52.6143 115.013 52.5836C114.83 52.5529 114.657 52.4915 114.492 52.3994C114.328 52.3073 114.179 52.1871 114.047 52.0387C113.919 51.8954 113.814 51.7291 113.731 51.5398C113.649 51.3556 113.596 51.1611 113.574 50.9565C113.551 50.7518 113.555 50.5471 113.587 50.3424C113.624 50.1378 113.688 49.9459 113.779 49.7668C113.871 49.5877 113.985 49.4291 114.122 49.2909C114.264 49.1579 114.419 49.0504 114.588 48.9686C114.757 48.8867 114.933 48.8381 115.116 48.8227C115.303 48.8074 115.486 48.8253 115.664 48.8764C115.843 48.9276 116.009 49.0095 116.165 49.1221C116.32 49.2295 116.455 49.3651 116.569 49.5288C116.683 49.6926 116.772 49.8717 116.836 50.0661C116.9 50.2606 116.935 50.4601 116.939 50.6648C116.944 50.8746 116.919 51.0767 116.864 51.2711C116.809 51.4707 116.727 51.6549 116.617 51.8238C116.507 51.9875 116.377 52.1308 116.226 52.2536C116.076 52.3713 116 52.4301 116 52.4301C116 52.4301 115.488 52.5708 114.465 52.8523C113.437 53.1286 112.529 53.3998 111.743 53.6658C110.957 53.9268 110.304 54.1494 109.783 54.3336C109.257 54.5127 108.714 54.6943 108.152 54.8785C107.59 55.0627 106.993 55.247 106.363 55.4312C105.732 55.6154 105.06 55.8072 104.347 56.0068C103.634 56.2064 102.883 56.4162 102.092 56.6362C101.302 56.8613 100.456 57.1121 99.5559 57.3884C98.6557 57.6698 97.7006 57.9666 96.6907 58.2787C95.6808 58.5908 94.6137 58.9183 93.4896 59.2611C92.37 59.5988 91.1613 59.9724 89.8635 60.3817C88.5702 60.786 87.2381 61.1902 85.8672 61.5944C84.4963 61.9987 83.1094 62.3952 81.7064 62.7841C80.3035 63.1679 78.8732 63.5567 77.4154 63.9507C75.9531 64.3396 74.5068 64.7234 73.0765 65.102C71.6461 65.4807 70.2615 65.8593 68.9226 66.238C67.579 66.6166 66.2652 66.985 64.9811 67.3432C63.7016 67.7014 62.4701 68.057 61.2865 68.4101C60.1075 68.758 58.9788 69.1111 57.9003 69.4693C56.8218 69.8275 55.748 70.178 54.6786 70.5208C53.6139 70.8688 52.6085 71.2065 51.6626 71.5339C50.7212 71.8563 49.8438 72.1556 49.0304 72.432C48.217 72.7083 47.4219 72.9871 46.645 73.2686C45.8727 73.55 45.1164 73.8314 44.3761 74.1128C43.6358 74.384 42.9092 74.6373 42.1963 74.8727C41.4835 75.103 40.7774 75.3076 40.0783 75.4867C39.3791 75.6658 38.9815 75.763 38.8856 75.7784C38.785 75.7937 38.6891 75.7963 38.5977 75.7861C38.5017 75.7758 38.408 75.7528 38.3166 75.717C38.2252 75.6761 38.1384 75.6274 38.0561 75.5712C37.9739 75.5098 37.9008 75.4381 37.8368 75.3563C37.7728 75.2744 37.7157 75.1874 37.6654 75.0953C37.6197 74.9981 37.5855 74.8957 37.5626 74.7883C37.5352 74.6859 37.5215 74.5785 37.5215 74.4659C37.5215 74.3636 37.5306 74.2587 37.5489 74.1512C37.5718 74.0489 37.606 73.9491 37.6517 73.8519C37.6929 73.7496 37.7454 73.6574 37.8094 73.5756C37.8734 73.4937 37.9442 73.4221 38.0219 73.3607C38.1041 73.2942 38.191 73.2404 38.2823 73.1995C38.3692 73.1637 38.4126 73.1458 38.4126 73.1458Z" fill="#10B981"/>
<path d="M52.0014 89.6977C52.0014 89.6977 52.4196 89.6977 53.2558 89.6977C54.0967 89.7028 54.8804 89.6747 55.607 89.6132C56.329 89.557 57.0396 89.4751 57.7388 89.3676C58.4379 89.2602 59.1463 89.1348 59.8637 88.9915C60.5812 88.8483 61.3215 88.6922 62.0846 88.5234C62.8523 88.3545 63.6657 88.1728 64.5249 87.9784C65.384 87.7789 66.2911 87.5767 67.2462 87.3721C68.2012 87.1623 69.1495 86.9448 70.0908 86.7197C71.0322 86.4945 71.9553 86.2515 72.8601 85.9905C73.7695 85.7295 74.6811 85.466 75.5951 85.1999C76.509 84.9339 77.4321 84.6576 78.3644 84.371C79.3012 84.0794 80.2905 83.7672 81.3324 83.4346C82.3789 83.102 83.4482 82.772 84.5404 82.4445C85.6326 82.1222 86.7156 81.7921 87.7895 81.4544C88.8679 81.1218 89.9258 80.7841 90.9632 80.4413C92.0051 80.1035 92.999 79.7889 93.9449 79.4972C94.8863 79.2055 95.7614 78.9292 96.5703 78.6683C97.3791 78.4124 98.0851 78.1719 98.6883 77.9468C99.2916 77.7268 99.8445 77.54 100.347 77.3865C100.854 77.233 101.448 77.0283 102.129 76.7725C102.81 76.5217 103.416 76.2864 103.946 76.0663C104.476 75.8463 105.029 75.6288 105.605 75.4139C106.18 75.2041 106.781 74.9969 107.407 74.7922C108.038 74.5876 108.751 74.4008 109.546 74.2319C110.341 74.0682 110.846 73.9863 111.061 73.9863C111.276 73.9914 111.486 74.0324 111.692 74.1091C111.893 74.191 112.078 74.3036 112.247 74.4468C112.42 74.5952 112.567 74.7692 112.686 74.9688C112.804 75.1734 112.891 75.3909 112.946 75.6212C113.001 75.8565 113.021 76.0945 113.008 76.335C112.994 76.5703 112.946 76.8006 112.864 77.0257C112.781 77.2509 112.67 77.453 112.528 77.6321C112.391 77.8163 112.229 77.9673 112.041 78.0849C111.854 78.2077 111.655 78.2947 111.445 78.3459C111.235 78.3971 111.024 78.4073 110.814 78.3766C110.599 78.351 110.394 78.2845 110.197 78.177C110.005 78.0747 109.832 77.9391 109.676 77.7703C109.521 77.6065 109.395 77.4172 109.299 77.2023C109.199 76.9874 109.133 76.7622 109.101 76.5269C109.069 76.2864 109.071 76.0484 109.107 75.8131C109.144 75.5777 109.212 75.3525 109.313 75.1376C109.418 74.9278 109.548 74.7411 109.704 74.5773C109.864 74.4136 110.042 74.2805 110.238 74.1782C110.435 74.081 110.638 74.0221 110.848 74.0017C111.063 73.9761 111.276 73.9914 111.486 74.0477C111.696 74.0989 111.893 74.1884 112.075 74.3164C112.258 74.4392 112.418 74.5952 112.555 74.7846C112.692 74.9688 112.8 75.1734 112.877 75.3986C112.955 75.6237 112.999 75.8565 113.008 76.097C113.017 76.3375 112.992 76.5729 112.932 76.8032C112.873 77.0334 112.781 77.2483 112.658 77.4479C112.539 77.6423 112.393 77.8112 112.219 77.9545C112.046 78.0977 111.856 78.2077 111.65 78.2845C111.449 78.3613 111.349 78.3996 111.349 78.3996C111.349 78.3996 110.864 78.4892 109.896 78.6683C108.922 78.8525 108.159 78.9906 107.606 79.0827C107.049 79.18 106.443 79.2746 105.79 79.3667C105.136 79.4588 104.476 79.5637 103.809 79.6814C103.142 79.8042 102.362 79.9065 101.471 79.9884C100.585 80.0703 99.8308 80.1701 99.2093 80.2878C98.5878 80.4003 97.8726 80.5564 97.0638 80.7559C96.255 80.9555 95.3844 81.2011 94.4522 81.4928C93.52 81.7844 92.5306 82.1068 91.4841 82.4599C90.4422 82.8078 89.382 83.1558 88.3036 83.5037C87.2251 83.8517 86.1467 84.1945 85.0682 84.5322C83.9943 84.8699 82.9364 85.2153 81.8945 85.5684C80.8572 85.9265 79.8678 86.2668 78.9264 86.5892C77.9851 86.9115 77.0597 87.2186 76.1503 87.5102C75.2409 87.7968 74.327 88.0859 73.4085 88.3775C72.4899 88.6692 71.5623 88.9583 70.6255 89.2448C69.6887 89.5314 68.7496 89.8179 67.8082 90.1045C66.8669 90.391 65.9598 90.6571 65.0869 90.9027C64.2095 91.1432 63.3733 91.3555 62.5781 91.5397C61.7784 91.7188 60.9993 91.8723 60.2407 92.0003C59.4821 92.1282 58.7213 92.2331 57.9581 92.315C57.1995 92.3968 56.4364 92.448 55.6687 92.4685C54.901 92.4889 54.0967 92.5017 53.2558 92.5068C52.4196 92.5068 51.9535 92.4992 51.8575 92.4838C51.757 92.4736 51.6587 92.448 51.5628 92.4071C51.4668 92.3661 51.3777 92.3124 51.2954 92.2459C51.2132 92.1845 51.1378 92.1103 51.0692 92.0233C51.0007 91.9414 50.9436 91.8493 50.8979 91.747C50.8522 91.6498 50.8179 91.5449 50.795 91.4323C50.7676 91.3248 50.7539 91.2148 50.7539 91.1023C50.7539 90.9897 50.7676 90.8797 50.795 90.7722C50.8179 90.6596 50.8522 90.5548 50.8979 90.4575C50.9436 90.3552 51.0007 90.2631 51.0692 90.1812C51.1378 90.0942 51.2132 90.02 51.2954 89.9586C51.3777 89.8921 51.4668 89.8384 51.5628 89.7975C51.6587 89.7565 51.757 89.7309 51.8575 89.7207C51.9535 89.7054 52.0014 89.6977 52.0014 89.6977Z" fill="#10B981"/>
<path d="M53.273 115.694C53.273 115.694 53.6203 115.579 54.3149 115.349C55.0141 115.123 55.7384 114.893 56.4878 114.658C57.2418 114.417 58.0187 114.174 58.8184 113.929C59.6181 113.683 60.4178 113.435 61.2175 113.184C62.0127 112.928 62.8192 112.678 63.6372 112.432C64.4552 112.186 65.3029 111.941 66.1803 111.695C67.0577 111.45 67.9762 111.209 68.9358 110.974C69.8955 110.738 70.8803 110.508 71.8902 110.283C72.8955 110.063 73.894 109.838 74.8857 109.607C75.8773 109.377 76.8735 109.137 77.8743 108.886C78.875 108.635 79.8667 108.374 80.8492 108.103C81.8317 107.827 82.7982 107.545 83.7487 107.259C84.7038 106.967 85.6634 106.675 86.6276 106.384C87.5873 106.087 88.5949 105.777 89.6505 105.455C90.7061 105.133 91.7686 104.798 92.8379 104.45C93.9073 104.107 94.9126 103.774 95.854 103.452C96.7999 103.124 97.7093 102.802 98.5821 102.485C99.4549 102.162 100.271 101.845 101.029 101.533C101.792 101.221 102.514 100.929 103.195 100.658C103.881 100.392 104.521 100.141 105.115 99.9058C105.704 99.6654 106.239 99.4325 106.719 99.2074C107.194 98.9771 107.831 98.6906 108.631 98.3478C109.426 98.01 110.29 97.7389 111.222 97.5342C112.154 97.3295 112.705 97.2272 112.874 97.2272C113.048 97.2272 113.214 97.2553 113.374 97.3116C113.539 97.373 113.69 97.46 113.827 97.5726C113.964 97.6902 114.08 97.8258 114.176 97.9793C114.272 98.138 114.343 98.3094 114.389 98.4936C114.439 98.6778 114.46 98.8646 114.451 99.0539C114.441 99.2483 114.407 99.4351 114.348 99.6142C114.284 99.7882 114.197 99.9493 114.087 100.098C113.978 100.246 113.85 100.369 113.703 100.466C113.557 100.568 113.402 100.64 113.237 100.681C113.068 100.722 112.899 100.735 112.73 100.719C112.561 100.699 112.399 100.65 112.243 100.574C112.088 100.492 111.949 100.387 111.825 100.259C111.697 100.126 111.594 99.9749 111.517 99.8061C111.435 99.6372 111.38 99.4607 111.352 99.2765C111.32 99.0871 111.318 98.8978 111.345 98.7085C111.373 98.5192 111.425 98.3401 111.503 98.1712C111.581 98.0024 111.681 97.8514 111.805 97.7184C111.928 97.5853 112.067 97.4779 112.223 97.396C112.378 97.3142 112.54 97.2604 112.71 97.2348C112.879 97.2144 113.045 97.2246 113.21 97.2655C113.379 97.3065 113.537 97.3756 113.683 97.4728C113.829 97.57 113.959 97.6902 114.074 97.8335C114.183 97.9768 114.27 98.138 114.334 98.3171C114.398 98.4962 114.437 98.6804 114.451 98.8697C114.46 99.059 114.441 99.2458 114.396 99.43C114.355 99.6142 114.286 99.7856 114.19 99.9442C114.094 100.103 113.98 100.241 113.847 100.359C113.71 100.476 113.562 100.566 113.402 100.627C113.237 100.694 113.155 100.727 113.155 100.727C113.155 100.727 112.742 100.812 111.914 100.98C111.083 101.149 110.276 101.323 109.495 101.502C108.713 101.676 108.053 101.845 107.514 102.009C106.974 102.173 106.399 102.331 105.786 102.485C105.174 102.638 104.525 102.807 103.84 102.991C103.154 103.17 102.421 103.388 101.639 103.644C100.853 103.894 100.019 104.171 99.1373 104.473C98.2554 104.769 97.3369 105.084 96.3818 105.417C95.4267 105.744 94.4122 106.084 93.3383 106.438C92.2644 106.791 91.202 107.133 90.1509 107.466C89.0953 107.794 88.0877 108.108 87.128 108.41C86.1684 108.712 85.2087 109.019 84.2491 109.331C83.2849 109.638 82.3069 109.937 81.3153 110.229C80.3282 110.521 79.332 110.807 78.3267 111.089C77.3213 111.37 76.3251 111.641 75.3381 111.902C74.351 112.168 73.3708 112.432 72.3974 112.693C71.4195 112.959 70.4644 113.24 69.5322 113.537C68.5954 113.834 67.6951 114.121 66.8315 114.397C65.9678 114.678 65.1338 114.944 64.3295 115.195C63.5207 115.446 62.7164 115.702 61.9167 115.963C61.117 116.224 60.315 116.479 59.5107 116.73C58.7064 116.981 57.9204 117.219 57.1527 117.444C56.385 117.669 55.6447 117.871 54.9318 118.05C54.2189 118.229 53.8145 118.327 53.7185 118.342C53.6226 118.357 53.5289 118.36 53.4375 118.35C53.3415 118.334 53.2456 118.309 53.1496 118.273C53.0582 118.232 52.9737 118.181 52.896 118.119C52.8137 118.058 52.7406 117.986 52.6766 117.904C52.6081 117.828 52.551 117.741 52.5053 117.643C52.4596 117.546 52.4253 117.444 52.4025 117.336C52.3796 117.229 52.3659 117.122 52.3613 117.014C52.3613 116.912 52.3728 116.807 52.3956 116.699C52.4185 116.592 52.4527 116.49 52.4984 116.392C52.5441 116.295 52.599 116.206 52.6629 116.124C52.7269 116.042 52.7977 115.968 52.8754 115.901C52.9577 115.84 53.0445 115.789 53.1359 115.748C53.2273 115.712 53.273 115.694 53.273 115.694Z" fill="#10B981"/>
<path d="M126.198 183.232C126.198 183.232 125.899 182.672 125.3 181.551C124.706 180.426 124.144 179.466 123.614 178.673C123.084 177.88 122.56 177.217 122.044 176.685C121.528 176.158 121.032 175.767 120.557 175.511C120.081 175.255 119.375 175.076 118.438 174.974C117.497 174.871 116.606 175.055 115.765 175.526C114.929 175.992 114.255 176.493 113.743 177.031C113.236 177.568 112.681 178.246 112.077 179.064C111.47 179.883 110.873 180.797 110.288 181.805C109.699 182.802 109.178 183.785 108.725 184.752C108.268 185.714 107.88 186.648 107.56 187.553C107.236 188.454 106.991 189.273 106.827 190.009C106.658 190.751 106.555 191.394 106.518 191.936C106.482 192.483 106.516 193.09 106.621 193.755C106.722 194.425 107.183 195.034 108.006 195.582C108.828 196.129 109.614 196.587 110.364 196.956C111.113 197.324 111.927 197.672 112.804 197.999C113.677 198.322 114.552 198.59 115.429 198.805C116.302 199.02 117.122 199.14 117.89 199.166C118.653 199.197 119.293 199.14 119.809 198.997C120.33 198.859 120.721 198.503 120.982 197.93C121.247 197.352 121.42 196.761 121.502 196.157C121.589 195.548 121.683 194.773 121.784 193.832C121.889 192.89 121.98 191.846 122.058 190.7C122.131 189.554 122.197 188.362 122.256 187.124C122.32 185.88 122.382 184.665 122.442 183.478C122.506 182.296 122.554 181.221 122.586 180.254C122.618 179.287 122.636 178.466 122.64 177.79C122.645 177.12 122.693 176.47 122.784 175.841C122.876 175.217 122.94 174.843 122.976 174.72C123.013 174.597 123.063 174.48 123.127 174.367C123.191 174.255 123.264 174.155 123.346 174.068C123.433 173.976 123.527 173.896 123.627 173.83C123.728 173.769 123.833 173.717 123.943 173.676C124.057 173.641 124.174 173.62 124.292 173.615C124.407 173.61 124.521 173.623 124.635 173.653C124.749 173.679 124.859 173.72 124.964 173.776C125.069 173.832 125.167 173.902 125.259 173.983C125.35 174.065 125.43 174.16 125.499 174.267C125.572 174.37 125.629 174.482 125.67 174.605C125.716 174.723 125.75 174.846 125.773 174.974C125.791 175.107 125.793 175.237 125.78 175.365C125.771 175.498 125.917 175.877 126.218 176.501C126.52 177.13 126.739 178.31 126.877 180.039C127.014 181.758 127.105 183.839 127.151 186.279C127.196 188.72 127.167 191.22 127.062 193.778C126.956 196.331 126.778 198.66 126.527 200.763C126.276 202.866 125.983 204.685 125.65 206.22C125.316 207.76 124.978 209.014 124.635 209.981C124.292 210.948 124 211.546 123.758 211.777C123.515 212.012 123.369 212.176 123.319 212.268C123.273 212.365 123.216 212.455 123.148 212.536C123.084 212.613 123.011 212.682 122.928 212.744C122.846 212.8 122.757 212.846 122.661 212.882C122.57 212.918 122.476 212.941 122.38 212.951C122.284 212.961 122.186 212.959 122.085 212.943C121.989 212.928 121.898 212.9 121.811 212.859C121.72 212.818 121.635 212.764 121.557 212.698C121.475 212.631 121.404 212.557 121.345 212.475C121.281 212.388 121.226 212.296 121.18 212.199C121.139 212.102 121.109 211.999 121.091 211.892C121.068 211.784 121.059 211.677 121.064 211.569C121.064 211.457 121.077 211.349 121.105 211.247C121.132 211.14 120.936 210.395 120.515 209.013C120.095 207.627 119.839 206.212 119.748 204.769C119.661 203.321 119.599 201.852 119.563 200.363C119.526 198.88 119.528 197.493 119.569 196.203C119.606 194.919 119.688 193.729 119.816 192.634C119.949 191.545 120.09 190.575 120.241 189.725C120.392 188.881 120.563 188.137 120.755 187.492C120.947 186.842 121.201 186.241 121.516 185.688C121.832 185.136 122.206 184.639 122.64 184.199C123.079 183.754 123.57 183.37 124.114 183.048C124.658 182.72 125.225 182.429 125.814 182.173C126.399 181.917 126.984 181.661 127.569 181.405C128.158 181.15 128.727 180.873 129.276 180.576C129.829 180.28 130.327 179.957 130.77 179.609C131.213 179.267 131.611 178.906 131.963 178.527C132.319 178.143 132.673 177.547 133.025 176.739C133.382 175.93 133.599 175.117 133.676 174.298C133.754 173.479 133.759 172.732 133.69 172.057C133.617 171.387 133.455 170.732 133.203 170.092C132.952 169.458 132.858 168.8 132.922 168.119C132.991 167.439 133.306 166.751 133.868 166.055C134.435 165.364 134.862 165.003 135.15 164.973C135.438 164.947 135.605 164.804 135.65 164.543C135.696 164.287 135.776 164.044 135.89 163.814C136.009 163.588 136.155 163.389 136.329 163.215C136.507 163.041 136.704 162.9 136.919 162.793C137.133 162.69 137.357 162.629 137.59 162.609C137.823 162.593 138.054 162.616 138.283 162.678C138.511 162.744 138.724 162.849 138.92 162.992C139.117 163.131 139.288 163.305 139.434 163.514C139.58 163.719 139.695 163.944 139.777 164.19C139.855 164.435 139.896 164.691 139.9 164.957C139.905 165.218 139.873 165.474 139.804 165.725C139.736 165.976 139.633 166.206 139.496 166.416C139.359 166.63 139.194 166.815 139.002 166.968C138.81 167.117 138.603 167.229 138.379 167.306C138.155 167.383 137.924 167.418 137.686 167.413C137.453 167.403 137.227 167.352 137.008 167.26C136.788 167.168 136.587 167.04 136.404 166.876C136.222 166.707 136.069 166.513 135.945 166.293C135.817 166.073 135.726 165.835 135.671 165.579C135.616 165.323 135.598 165.065 135.616 164.804C135.639 164.543 135.696 164.292 135.788 164.052C135.884 163.806 136.009 163.586 136.165 163.391C136.324 163.197 136.505 163.036 136.706 162.908C136.912 162.78 137.131 162.693 137.364 162.647C137.593 162.596 137.823 162.591 138.056 162.632C138.289 162.667 138.511 162.744 138.721 162.862C138.932 162.98 139.119 163.131 139.283 163.315C139.448 163.504 139.58 163.716 139.681 163.952C139.786 164.187 139.855 164.435 139.887 164.696C139.914 164.957 139.928 165.088 139.928 165.088C139.928 165.088 139.452 165.676 138.502 166.853C137.551 168.035 137.14 168.938 137.268 169.562C137.392 170.187 137.462 170.995 137.481 171.988C137.494 172.986 137.467 173.774 137.398 174.352C137.325 174.935 137.213 175.534 137.062 176.148C136.912 176.757 136.699 177.386 136.425 178.036C136.151 178.686 135.806 179.305 135.39 179.893C134.979 180.482 134.522 181.014 134.019 181.49C133.516 181.966 132.97 182.408 132.381 182.818C131.791 183.232 131.179 183.603 130.544 183.931C129.909 184.258 129.289 184.542 128.686 184.783C128.083 185.028 127.329 185.317 126.424 185.65C125.515 185.988 124.768 186.402 124.183 186.893C123.598 187.379 123.186 187.865 122.949 188.352C122.707 188.833 122.48 189.441 122.27 190.178C122.06 190.915 121.895 191.793 121.777 192.811C121.658 193.824 121.592 194.95 121.578 196.188C121.56 197.426 121.582 198.772 121.646 200.225C121.71 201.673 121.804 203.08 121.927 204.447C122.051 205.818 122.19 206.985 122.346 207.947C122.506 208.909 122.72 209.845 122.99 210.756C123.26 211.672 123.369 212.176 123.319 212.268C123.273 212.365 123.216 212.455 123.148 212.536C123.084 212.613 123.011 212.682 122.928 212.744C122.846 212.8 122.757 212.846 122.661 212.882C122.57 212.918 122.476 212.941 122.38 212.951C122.284 212.961 122.186 212.959 122.085 212.943C121.989 212.928 121.898 212.9 121.811 212.859C121.72 212.818 121.635 212.764 121.557 212.698C121.475 212.631 121.404 212.557 121.345 212.475C121.281 212.388 121.226 212.296 121.18 212.199C121.139 212.102 121.109 211.999 121.091 211.892C121.068 211.784 121.059 211.677 121.064 211.569C121.064 211.457 121.077 211.349 121.105 211.247C121.132 211.14 121.331 210.963 121.701 210.717C122.076 210.472 122.414 209.958 122.716 209.175C123.017 208.392 123.314 207.271 123.607 205.813C123.899 204.355 124.148 202.607 124.354 200.571C124.555 198.539 124.681 196.275 124.731 193.778C124.781 191.286 124.749 188.861 124.635 186.502C124.521 184.143 124.359 182.183 124.148 180.623C123.938 179.057 123.815 178.003 123.778 177.46C123.737 176.918 123.584 176.358 123.319 175.779C123.054 175.196 122.94 174.843 122.976 174.72C123.013 174.597 123.063 174.48 123.127 174.367C123.191 174.255 123.264 174.155 123.346 174.068C123.433 173.976 123.527 173.896 123.627 173.83C123.728 173.769 123.833 173.717 123.943 173.676C124.057 173.641 124.174 173.62 124.292 173.615C124.407 173.61 124.521 173.623 124.635 173.653C124.749 173.679 124.859 173.72 124.964 173.776C125.069 173.832 125.167 173.902 125.259 173.983C125.35 174.065 125.43 174.16 125.499 174.267C125.572 174.37 125.629 174.482 125.67 174.605C125.716 174.723 125.75 174.846 125.773 174.974C125.791 175.107 125.793 175.237 125.78 175.365C125.771 175.498 125.663 175.805 125.458 176.286C125.252 176.767 125.106 177.325 125.019 177.959C124.932 178.599 124.866 179.397 124.82 180.354C124.774 181.311 124.747 182.378 124.738 183.555C124.724 184.731 124.722 185.944 124.731 187.193C124.745 188.441 124.758 189.667 124.772 190.869C124.786 192.072 124.772 193.215 124.731 194.3C124.694 195.39 124.58 196.383 124.388 197.278C124.201 198.179 123.908 198.959 123.511 199.619C123.113 200.279 122.618 200.791 122.023 201.154C121.434 201.512 120.771 201.742 120.036 201.845C119.304 201.942 118.498 201.965 117.616 201.914C116.729 201.863 115.809 201.75 114.853 201.576C113.894 201.402 112.916 201.187 111.92 200.931C110.923 200.676 109.962 200.363 109.034 199.995C108.111 199.632 107.265 199.192 106.498 198.675C105.725 198.158 105.092 197.549 104.599 196.848C104.105 196.147 103.852 195.211 103.838 194.039C103.82 192.862 103.882 191.951 104.023 191.307C104.16 190.657 104.35 189.938 104.592 189.15C104.839 188.362 105.131 187.484 105.469 186.517C105.808 185.545 106.194 184.527 106.628 183.462C107.057 182.408 107.556 181.311 108.122 180.17C108.684 179.034 109.278 177.952 109.904 176.923C110.526 175.895 111.163 175.014 111.817 174.283C112.475 173.551 113.174 172.95 113.914 172.479C114.655 172.013 115.393 171.714 116.128 171.581C116.86 171.448 117.561 171.43 118.233 171.527C118.9 171.619 119.565 171.791 120.228 172.042C120.89 172.297 121.528 172.648 122.14 173.093C122.752 173.543 123.349 174.093 123.929 174.743C124.509 175.388 125.11 176.125 125.732 176.954C126.353 177.783 127.007 178.727 127.692 179.786C128.378 180.845 128.748 181.436 128.803 181.559C128.858 181.682 128.899 181.81 128.926 181.943C128.949 182.076 128.96 182.206 128.96 182.334C128.956 182.472 128.937 182.608 128.905 182.741C128.873 182.874 128.828 182.999 128.768 183.117C128.714 183.235 128.643 183.345 128.556 183.447C128.474 183.544 128.382 183.631 128.282 183.708C128.181 183.78 128.074 183.839 127.96 183.885C127.845 183.931 127.726 183.961 127.603 183.977C127.484 183.987 127.365 183.984 127.247 183.969C127.128 183.949 127.011 183.913 126.897 183.862C126.783 183.81 126.678 183.744 126.582 183.662C126.481 183.585 126.392 183.493 126.314 183.386C126.237 183.283 126.198 183.232 126.198 183.232Z" fill="#10B981"/>
<path d="M149.07 148.212C149.07 148.212 148.898 148.508 148.556 149.102C148.213 149.695 147.907 150.238 147.637 150.729C147.372 151.225 147.011 151.908 146.554 152.778C146.097 153.653 145.679 154.495 145.3 155.304C144.916 156.112 144.562 156.895 144.237 157.652C143.908 158.409 143.618 159.093 143.367 159.701C143.115 160.31 142.871 160.932 142.633 161.567C142.396 162.196 142.153 162.807 141.907 163.401C141.66 163.989 141.413 164.601 141.166 165.235C140.924 165.87 140.762 166.295 140.68 166.509C140.593 166.724 140.499 166.921 140.399 167.1C140.298 167.28 140.179 167.441 140.042 167.584C139.905 167.727 139.754 167.85 139.59 167.952C139.425 168.06 139.252 168.142 139.069 168.198C138.886 168.254 138.701 168.285 138.514 168.29C138.326 168.295 138.141 168.277 137.958 168.236C137.771 168.19 137.593 168.121 137.424 168.029C137.255 167.937 137.097 167.825 136.951 167.691C136.809 167.553 136.681 167.4 136.567 167.231C136.457 167.062 136.366 166.88 136.293 166.686C136.22 166.492 136.169 166.289 136.142 166.08C136.114 165.87 136.11 165.66 136.128 165.45C136.142 165.24 136.181 165.036 136.245 164.836C136.304 164.637 136.466 164.296 136.731 163.815C136.992 163.34 137.332 162.871 137.753 162.411C138.173 161.95 138.616 161.59 139.083 161.329C139.549 161.073 140.042 160.868 140.563 160.715C141.089 160.566 141.639 160.441 142.215 160.339C142.791 160.241 143.41 160.157 144.073 160.085C144.735 160.019 145.409 159.962 146.095 159.916C146.78 159.87 147.468 159.819 148.158 159.763C148.853 159.707 149.527 159.627 150.18 159.525C150.834 159.417 151.464 159.264 152.072 159.064C152.68 158.865 153.269 158.645 153.841 158.404C154.407 158.164 154.981 157.908 155.561 157.637C156.141 157.366 156.555 157.192 156.802 157.115C157.048 157.038 157.298 157.007 157.549 157.023C157.805 157.038 158.049 157.097 158.282 157.199C158.52 157.307 158.735 157.453 158.927 157.637C159.123 157.821 159.285 158.033 159.413 158.274C159.546 158.519 159.64 158.78 159.694 159.057C159.749 159.333 159.763 159.614 159.736 159.901C159.708 160.182 159.642 160.451 159.537 160.707C159.427 160.968 159.285 161.201 159.112 161.405C158.938 161.615 158.739 161.787 158.515 161.92C158.291 162.053 158.054 162.142 157.803 162.188C157.551 162.234 157.3 162.234 157.048 162.188C156.797 162.142 156.56 162.053 156.336 161.92C156.112 161.787 155.913 161.615 155.739 161.405C155.566 161.201 155.424 160.97 155.314 160.715C155.209 160.454 155.143 160.182 155.115 159.901C155.088 159.62 155.102 159.341 155.157 159.064C155.211 158.783 155.303 158.522 155.431 158.282C155.563 158.036 155.726 157.821 155.917 157.637C156.114 157.453 156.329 157.307 156.562 157.199C156.799 157.097 157.044 157.038 157.295 157.023C157.551 157.007 157.8 157.038 158.042 157.115C158.289 157.187 158.518 157.304 158.728 157.468C158.938 157.627 159.121 157.818 159.276 158.044C159.427 158.269 159.544 158.517 159.626 158.788C159.708 159.054 159.749 159.331 159.749 159.617C159.749 159.904 159.708 160.18 159.626 160.446C159.544 160.717 159.427 160.965 159.276 161.19C159.121 161.416 158.938 161.61 158.728 161.774C158.518 161.932 158.413 162.012 158.413 162.012C158.413 162.012 158.072 162.17 157.391 162.488C156.71 162.81 156.057 163.102 155.431 163.363C154.805 163.624 154.076 163.895 153.244 164.176C152.412 164.458 151.597 164.667 150.797 164.806C150.002 164.949 149.248 165.056 148.535 165.128C147.827 165.2 147.137 165.264 146.465 165.32C145.793 165.381 145.174 165.443 144.607 165.504C144.045 165.571 143.442 165.663 142.798 165.78C142.149 165.898 141.612 166.103 141.187 166.394C140.762 166.686 140.499 166.921 140.399 167.1C140.298 167.274 140.179 167.436 140.042 167.584C139.905 167.727 139.754 167.85 139.59 167.952C139.425 168.06 139.252 168.142 139.069 168.198C138.886 168.254 138.701 168.285 138.514 168.29C138.326 168.295 138.141 168.277 137.958 168.236C137.771 168.19 137.593 168.121 137.424 168.029C137.255 167.937 137.097 167.825 136.951 167.691C136.809 167.553 136.681 167.4 136.567 167.231C136.457 167.062 136.366 166.88 136.293 166.686C136.22 166.492 136.169 166.289 136.142 166.08C136.114 165.87 136.11 165.66 136.128 165.45C136.142 165.24 136.181 165.036 136.245 164.836C136.304 164.637 136.409 164.378 136.56 164.061C136.711 163.744 136.919 163.299 137.184 162.726C137.444 162.152 137.702 161.625 137.958 161.144C138.214 160.669 138.491 160.116 138.788 159.487C139.085 158.857 139.384 158.235 139.686 157.621C139.987 157.007 140.328 156.317 140.707 155.549C141.086 154.782 141.5 153.976 141.948 153.131C142.4 152.287 142.882 151.433 143.394 150.568C143.901 149.703 144.299 149.03 144.587 148.549C144.87 148.068 145.181 147.531 145.519 146.937C145.857 146.334 146.072 145.97 146.163 145.848C146.255 145.72 146.36 145.607 146.479 145.51C146.593 145.413 146.719 145.333 146.856 145.272C146.988 145.205 147.125 145.159 147.267 145.134C147.413 145.113 147.557 145.108 147.699 145.118C147.84 145.134 147.98 145.167 148.117 145.218C148.259 145.269 148.389 145.338 148.508 145.425C148.631 145.512 148.743 145.617 148.843 145.74C148.944 145.858 149.031 145.986 149.104 146.124C149.177 146.267 149.234 146.416 149.275 146.569C149.312 146.728 149.335 146.889 149.344 147.053C149.348 147.211 149.335 147.37 149.303 147.528C149.275 147.687 149.23 147.841 149.166 147.989C149.102 148.137 149.07 148.212 149.07 148.212Z" fill="#10B981"/>
<path d="M145.477 155.681C145.477 155.681 145.559 155.837 145.724 156.149C145.884 156.456 146.117 156.878 146.423 157.415C146.729 157.947 146.827 158.833 146.718 160.071C146.608 161.309 146.311 161.992 145.826 162.12C145.347 162.253 144.652 162.179 143.743 161.898C142.829 161.611 142.274 161.411 142.077 161.299C141.881 161.181 141.707 161.033 141.556 160.854C141.401 160.675 141.277 160.472 141.186 160.247C141.09 160.022 141.031 159.787 141.008 159.541C140.98 159.29 140.992 159.045 141.042 158.804C141.088 158.564 141.168 158.336 141.282 158.121C141.396 157.906 141.538 157.72 141.707 157.561C141.871 157.397 142.056 157.269 142.262 157.177C142.468 157.085 142.682 157.031 142.906 157.016C143.126 157.006 143.343 157.031 143.558 157.093C143.772 157.159 143.969 157.262 144.147 157.4C144.33 157.538 144.49 157.707 144.627 157.906C144.759 158.101 144.862 158.316 144.935 158.551C145.004 158.786 145.04 159.03 145.045 159.28C145.045 159.526 145.009 159.766 144.935 160.002C144.867 160.237 144.766 160.455 144.634 160.654C144.501 160.854 144.344 161.023 144.161 161.161C143.983 161.299 143.786 161.401 143.571 161.468C143.357 161.539 143.139 161.568 142.92 161.552C142.696 161.542 142.481 161.491 142.276 161.399C142.07 161.307 141.883 161.181 141.714 161.023C141.545 160.864 141.403 160.677 141.289 160.462C141.174 160.252 141.092 160.025 141.042 159.779C140.992 159.539 140.98 159.296 141.008 159.05C141.031 158.799 141.088 158.561 141.179 158.336C141.27 158.111 141.392 157.909 141.542 157.73C141.698 157.551 141.871 157.402 142.063 157.285C142.26 157.167 142.468 157.088 142.687 157.047C142.906 157.006 143.126 157.006 143.345 157.047C143.564 157.083 143.674 157.1 143.674 157.1C143.674 157.1 143.807 157.28 144.072 157.638C144.346 158.001 144.414 158.748 144.277 159.879C144.136 161.01 143.948 161.307 143.715 160.769C143.473 160.232 143.258 159.7 143.071 159.173C142.888 158.646 142.733 158.216 142.605 157.883C142.481 157.551 142.397 157.31 142.351 157.162C142.305 157.019 142.276 156.87 142.262 156.717C142.248 156.568 142.251 156.42 142.269 156.272C142.292 156.118 142.328 155.97 142.379 155.826C142.429 155.683 142.495 155.55 142.577 155.427C142.655 155.299 142.746 155.187 142.852 155.09C142.957 154.987 143.071 154.903 143.194 154.836C143.318 154.77 143.446 154.719 143.578 154.683C143.715 154.647 143.85 154.632 143.983 154.637C144.12 154.642 144.254 154.662 144.387 154.698C144.52 154.739 144.645 154.798 144.764 154.875C144.883 154.946 144.993 155.036 145.093 155.143C145.198 155.246 145.287 155.361 145.36 155.489C145.438 155.617 145.477 155.681 145.477 155.681Z" fill="#10B981"/>
<path d="M151.094 143.848C151.094 143.848 151.026 144.009 150.889 144.332C150.752 144.654 150.59 145.071 150.402 145.583C150.219 146.095 149.945 146.066 149.58 145.498C149.209 144.93 149.276 144.595 149.778 144.493C150.286 144.386 150.793 144.322 151.3 144.301C151.807 144.276 152.312 144.278 152.815 144.309C153.313 144.339 153.868 144.636 154.481 145.199C155.093 145.767 155.424 146.327 155.475 146.88C155.525 147.433 155.518 147.985 155.454 148.538C155.385 149.085 155.321 149.633 155.262 150.18C155.203 150.733 154.89 150.753 154.323 150.242C153.752 149.73 153.724 149.459 154.241 149.428C154.753 149.398 155.253 149.428 155.742 149.52C156.231 149.607 156.738 149.676 157.264 149.728C157.789 149.774 158.36 149.881 158.977 150.05C159.594 150.214 160.106 150.564 160.513 151.101C160.924 151.639 161.159 152.184 161.219 152.736C161.278 153.284 161.267 153.867 161.184 154.486C161.102 155.105 160.981 155.707 160.821 156.29C160.657 156.868 160.545 157.416 160.485 157.932C160.426 158.449 160.362 158.864 160.293 159.176C160.225 159.483 160.115 159.772 159.964 160.043C159.809 160.309 159.622 160.545 159.402 160.749C159.178 160.949 158.934 161.102 158.669 161.21C158.399 161.322 158.123 161.384 157.839 161.394C157.552 161.404 157.27 161.361 156.996 161.264C156.727 161.171 156.475 161.033 156.242 160.849C156.009 160.66 155.81 160.437 155.646 160.181C155.477 159.92 155.351 159.636 155.269 159.329C155.187 159.027 155.148 158.715 155.152 158.393C155.162 158.076 155.214 157.766 155.31 157.464C155.411 157.167 155.55 156.894 155.728 156.643C155.906 156.392 156.114 156.182 156.352 156.014C156.594 155.84 156.855 155.714 157.133 155.638C157.408 155.561 157.686 155.535 157.97 155.561C158.258 155.586 158.532 155.661 158.792 155.783C159.053 155.911 159.29 156.08 159.505 156.29C159.715 156.505 159.891 156.75 160.033 157.027C160.175 157.308 160.273 157.605 160.328 157.917C160.382 158.229 160.389 158.544 160.348 158.861C160.312 159.178 160.229 159.48 160.101 159.767C159.973 160.053 159.809 160.309 159.608 160.534C159.407 160.76 159.178 160.944 158.922 161.087C158.667 161.23 158.399 161.322 158.12 161.363C157.837 161.409 157.554 161.402 157.27 161.34C156.992 161.279 156.729 161.171 156.482 161.018C156.231 160.859 156.012 160.662 155.824 160.427C155.632 160.186 155.479 159.92 155.365 159.629C155.251 159.337 155.182 159.03 155.159 158.708C155.136 158.39 155.125 158.232 155.125 158.232C155.125 158.232 155.308 157.515 155.673 156.083C156.039 154.65 156.347 154.197 156.599 154.724C156.846 155.251 156.711 155.484 156.194 155.423C155.673 155.366 155.164 155.274 154.666 155.146C154.168 155.024 153.672 154.954 153.178 154.939C152.68 154.924 152.146 154.706 151.574 154.287C151.003 153.867 150.619 153.243 150.423 152.414C150.222 151.585 150.176 150.884 150.286 150.311C150.391 149.743 150.535 149.195 150.717 148.668C150.9 148.141 151.296 148.152 151.903 148.699C152.507 149.247 152.548 149.492 152.027 149.436C151.501 149.374 150.967 149.313 150.423 149.252C149.888 149.185 149.356 149.129 148.826 149.083C148.3 149.037 147.804 148.842 147.338 148.5C146.872 148.152 146.575 147.619 146.447 146.903C146.319 146.182 146.349 145.552 146.536 145.015C146.719 144.483 146.952 143.992 147.235 143.541C147.523 143.101 147.756 142.733 147.934 142.436C148.113 142.139 148.241 141.932 148.318 141.814C148.401 141.692 148.494 141.581 148.599 141.484C148.7 141.392 148.812 141.313 148.935 141.246C149.054 141.18 149.18 141.131 149.312 141.101C149.445 141.07 149.577 141.057 149.71 141.062C149.842 141.067 149.973 141.093 150.101 141.139C150.228 141.18 150.352 141.236 150.471 141.308C150.59 141.384 150.697 141.474 150.793 141.576C150.889 141.684 150.973 141.799 151.046 141.922C151.12 142.05 151.177 142.185 151.218 142.329C151.264 142.472 151.291 142.618 151.3 142.766C151.309 142.914 151.305 143.063 151.286 143.211C151.264 143.36 151.227 143.503 151.177 143.641C151.122 143.779 151.094 143.848 151.094 143.848Z" fill="#10B981"/>
<path d="M148.142 140.865C148.142 140.865 148.404 140.691 148.93 140.343C149.465 139.99 149.979 139.642 150.472 139.299C150.961 138.961 151.455 138.606 151.953 138.232C152.455 137.859 152.983 137.459 153.536 137.035C154.089 136.615 154.66 136.17 155.25 135.699C155.839 135.234 156.433 134.747 157.032 134.241C157.631 133.729 158.286 133.182 158.999 132.598C159.712 132.02 160.469 131.414 161.268 130.779C162.072 130.145 162.886 129.495 163.708 128.83C164.526 128.165 165.402 127.466 166.334 126.734C167.266 126.003 168.223 125.266 169.206 124.524C170.193 123.782 171.18 123.05 172.167 122.329C173.154 121.612 174.123 120.932 175.073 120.287C176.024 119.642 176.949 119.036 177.85 118.468C178.754 117.9 179.664 117.342 180.578 116.795C181.492 116.247 182.392 115.72 183.278 115.214C184.165 114.707 185.017 114.219 185.835 113.748C186.653 113.277 187.448 112.809 188.221 112.343C188.993 111.878 189.749 111.415 190.49 110.954C191.225 110.488 191.924 110.036 192.587 109.595C193.245 109.155 193.871 108.728 194.465 108.314C195.064 107.904 195.617 107.513 196.124 107.139C196.627 106.771 197.091 106.426 197.516 106.103C197.94 105.781 198.838 105.195 200.209 104.346C201.576 103.501 202.343 103.066 202.513 103.041C202.677 103.02 202.842 103.028 203.006 103.064C203.171 103.1 203.324 103.164 203.465 103.256C203.612 103.348 203.74 103.465 203.849 103.609C203.963 103.747 204.053 103.903 204.117 104.077C204.18 104.246 204.219 104.425 204.233 104.614C204.242 104.798 204.226 104.983 204.185 105.167C204.144 105.346 204.08 105.515 203.993 105.673C203.902 105.827 203.79 105.963 203.657 106.08C203.525 106.198 203.381 106.287 203.225 106.349C203.07 106.415 202.908 106.449 202.739 106.449C202.574 106.454 202.412 106.428 202.252 106.372C202.092 106.316 201.944 106.234 201.807 106.126C201.674 106.014 201.56 105.881 201.464 105.727C201.368 105.579 201.295 105.415 201.244 105.236C201.199 105.057 201.178 104.873 201.183 104.683C201.187 104.499 201.219 104.317 201.279 104.138C201.338 103.964 201.42 103.806 201.525 103.662C201.631 103.514 201.754 103.391 201.896 103.294C202.037 103.192 202.188 103.12 202.348 103.079C202.513 103.033 202.677 103.018 202.842 103.033C203.006 103.054 203.166 103.1 203.321 103.171C203.472 103.248 203.609 103.35 203.733 103.478C203.856 103.601 203.959 103.744 204.041 103.908C204.123 104.072 204.18 104.246 204.212 104.43C204.24 104.614 204.242 104.798 204.219 104.983C204.196 105.167 204.149 105.343 204.075 105.512C203.998 105.676 203.899 105.824 203.781 105.957C203.662 106.09 203.527 106.198 203.376 106.28C203.225 106.362 203.15 106.403 203.15 106.403C203.15 106.403 202.561 106.735 201.382 107.4C200.198 108.066 199.373 108.529 198.907 108.79C198.441 109.051 197.934 109.332 197.385 109.634C196.837 109.941 196.247 110.273 195.617 110.632C194.986 110.99 194.324 111.366 193.629 111.76C192.934 112.154 192.208 112.566 191.449 112.996C190.686 113.431 189.907 113.868 189.112 114.308C188.321 114.748 187.515 115.191 186.692 115.636C185.869 116.086 185.024 116.565 184.156 117.071C183.283 117.573 182.396 118.1 181.496 118.652C180.601 119.205 179.714 119.765 178.837 120.333C177.964 120.901 177.068 121.51 176.15 122.16C175.227 122.81 174.285 123.503 173.326 124.24C172.366 124.972 171.413 125.721 170.467 126.489C169.517 127.251 168.6 128.014 167.718 128.776C166.832 129.544 166 130.291 165.223 131.017C164.446 131.744 163.688 132.463 162.948 133.174C162.207 133.89 161.499 134.568 160.823 135.208C160.146 135.848 159.497 136.444 158.876 136.996C158.254 137.554 157.64 138.081 157.032 138.577C156.42 139.069 155.821 139.534 155.236 139.974C154.651 140.409 154.08 140.811 153.522 141.179C152.965 141.548 152.421 141.885 151.891 142.193C151.356 142.494 150.81 142.796 150.253 143.098C149.695 143.4 149.366 143.572 149.266 143.612C149.165 143.658 149.06 143.689 148.95 143.705C148.841 143.72 148.733 143.722 148.628 143.712C148.519 143.697 148.413 143.669 148.313 143.628C148.212 143.582 148.116 143.525 148.025 143.459C147.934 143.387 147.851 143.305 147.778 143.213C147.705 143.126 147.643 143.029 147.593 142.922C147.538 142.809 147.497 142.694 147.47 142.576C147.442 142.459 147.429 142.338 147.429 142.216C147.429 142.098 147.442 141.98 147.47 141.862C147.493 141.745 147.529 141.63 147.58 141.517C147.63 141.41 147.691 141.31 147.765 141.218C147.838 141.126 147.918 141.044 148.005 140.972C148.096 140.9 148.142 140.865 148.142 140.865Z" fill="#10B981"/>
<path d="M157.294 157.097C157.294 157.097 157.591 156.884 158.185 156.46C158.779 156.035 159.293 155.661 159.727 155.339C160.166 155.012 160.776 154.554 161.557 153.965C162.343 153.372 162.953 152.919 163.387 152.607C163.826 152.295 164.299 151.962 164.806 151.609C165.314 151.256 165.862 150.882 166.451 150.488C167.036 150.089 167.653 149.685 168.302 149.276C168.956 148.861 169.614 148.449 170.276 148.04C170.939 147.631 171.645 147.203 172.394 146.758C173.144 146.318 173.969 145.847 174.869 145.346C175.769 144.85 176.711 144.317 177.693 143.749C178.68 143.187 179.676 142.606 180.682 142.007C181.692 141.408 182.69 140.82 183.677 140.242C184.66 139.664 185.626 139.108 186.577 138.576C187.532 138.044 188.462 137.532 189.367 137.041C190.276 136.55 191.158 136.074 192.012 135.614C192.862 135.148 193.719 134.68 194.583 134.209C195.442 133.743 196.315 133.26 197.201 132.758C198.088 132.252 198.945 131.738 199.772 131.216C200.604 130.694 201.406 130.164 202.178 129.627C202.95 129.09 203.725 128.539 204.502 127.977C205.278 127.419 206.048 126.869 206.812 126.326C207.575 125.784 208.276 125.275 208.916 124.799C209.551 124.323 210.154 123.86 210.726 123.41C211.292 122.96 211.827 122.53 212.33 122.12C212.828 121.711 213.673 121.087 214.866 120.248C216.054 119.408 216.726 118.984 216.881 118.973C217.036 118.963 217.187 118.981 217.333 119.027C217.484 119.073 217.624 119.145 217.752 119.242C217.879 119.339 217.989 119.457 218.081 119.595C218.177 119.733 218.25 119.884 218.3 120.048C218.346 120.212 218.368 120.381 218.368 120.555C218.368 120.729 218.346 120.897 218.3 121.061C218.25 121.225 218.177 121.376 218.081 121.514C217.989 121.647 217.879 121.762 217.752 121.859C217.624 121.957 217.484 122.028 217.333 122.074C217.187 122.12 217.036 122.141 216.881 122.136C216.726 122.125 216.577 122.087 216.435 122.021C216.294 121.959 216.164 121.872 216.045 121.76C215.926 121.647 215.828 121.517 215.75 121.368C215.668 121.22 215.611 121.061 215.579 120.892C215.547 120.723 215.54 120.555 215.558 120.386C215.572 120.212 215.611 120.045 215.675 119.887C215.743 119.733 215.83 119.593 215.935 119.465C216.04 119.342 216.161 119.24 216.298 119.158C216.435 119.076 216.579 119.022 216.73 118.997C216.881 118.966 217.034 118.966 217.189 118.997C217.34 119.022 217.484 119.076 217.621 119.158C217.758 119.24 217.879 119.342 217.985 119.465C218.09 119.593 218.174 119.733 218.238 119.887C218.307 120.045 218.348 120.212 218.362 120.386C218.38 120.555 218.373 120.723 218.341 120.892C218.304 121.061 218.247 121.22 218.17 121.368C218.087 121.517 217.989 121.647 217.875 121.76C217.756 121.872 217.626 121.959 217.484 122.021C217.338 122.087 217.265 122.12 217.265 122.12C217.265 122.12 216.806 122.425 215.887 123.034C214.969 123.648 214.235 124.131 213.687 124.484C213.138 124.837 212.556 125.211 211.939 125.605C211.322 125.999 210.682 126.403 210.02 126.818C209.352 127.227 208.637 127.69 207.874 128.207C207.106 128.729 206.327 129.271 205.537 129.834C204.741 130.397 203.946 130.944 203.151 131.477C202.351 132.014 201.529 132.551 200.684 133.088C199.834 133.631 198.963 134.165 198.072 134.693C197.181 135.22 196.306 135.721 195.447 136.197C194.592 136.668 193.742 137.138 192.897 137.609C192.051 138.08 191.185 138.571 190.299 139.083C189.412 139.594 188.507 140.129 187.584 140.687C186.666 141.245 185.729 141.833 184.774 142.452C183.823 143.071 182.859 143.711 181.881 144.371C180.903 145.031 179.946 145.686 179.009 146.336C178.068 146.986 177.181 147.615 176.35 148.224C175.513 148.833 174.739 149.393 174.026 149.905C173.313 150.412 172.639 150.882 172.004 151.317C171.373 151.752 170.752 152.185 170.139 152.614C169.531 153.049 168.937 153.479 168.357 153.904C167.777 154.334 167.228 154.728 166.712 155.086C166.196 155.444 165.72 155.764 165.286 156.045C164.852 156.327 164.219 156.733 163.387 157.266C162.556 157.798 161.923 158.202 161.489 158.478C161.05 158.744 160.536 159.092 159.946 159.522C159.357 159.952 159.003 160.2 158.884 160.267C158.765 160.328 158.642 160.374 158.514 160.405C158.381 160.435 158.253 160.448 158.13 160.443C157.997 160.438 157.867 160.418 157.739 160.382C157.616 160.341 157.495 160.285 157.376 160.213C157.262 160.136 157.159 160.049 157.067 159.952C156.972 159.85 156.887 159.737 156.814 159.614C156.745 159.486 156.688 159.353 156.642 159.215C156.601 159.077 156.574 158.934 156.56 158.785C156.551 158.647 156.556 158.504 156.574 158.355C156.597 158.212 156.633 158.071 156.684 157.933C156.734 157.8 156.798 157.672 156.876 157.55C156.953 157.432 157.042 157.327 157.143 157.235C157.243 157.143 157.294 157.097 157.294 157.097Z" fill="#10B981"/>
<path d="M205.354 102.745C205.354 102.745 205.623 103.034 206.162 103.612C206.697 104.19 207.163 104.669 207.561 105.048C207.963 105.421 208.447 105.848 209.014 106.329C209.585 106.81 210.076 107.217 210.488 107.55C210.894 107.887 211.358 108.284 211.879 108.739C212.396 109.195 212.878 109.658 213.326 110.129C213.773 110.604 214.217 111.119 214.655 111.671C215.089 112.219 215.478 112.71 215.821 113.145C216.163 113.575 216.748 114.575 217.575 116.146C218.403 117.717 218.802 118.638 218.775 118.909C218.748 119.185 218.684 119.449 218.583 119.7C218.483 119.95 218.348 120.176 218.179 120.375C218.01 120.575 217.818 120.738 217.603 120.866C217.383 120.999 217.153 121.089 216.911 121.135C216.668 121.181 216.426 121.181 216.184 121.135C215.942 121.094 215.711 121.01 215.492 120.882C215.277 120.754 215.085 120.59 214.916 120.39C214.742 120.191 214.605 119.966 214.505 119.715C214.399 119.464 214.333 119.203 214.306 118.932C214.278 118.656 214.29 118.385 214.34 118.119C214.395 117.847 214.484 117.594 214.607 117.359C214.735 117.123 214.893 116.916 215.08 116.737C215.263 116.558 215.469 116.417 215.697 116.315C215.926 116.213 216.163 116.154 216.41 116.138C216.657 116.123 216.897 116.151 217.13 116.223C217.368 116.294 217.589 116.407 217.795 116.561C218 116.714 218.176 116.901 218.323 117.121C218.473 117.336 218.588 117.574 218.665 117.835C218.748 118.096 218.789 118.364 218.789 118.641C218.789 118.917 218.75 119.185 218.672 119.446C218.594 119.707 218.483 119.948 218.336 120.168C218.185 120.388 218.01 120.575 217.808 120.728C217.603 120.882 217.383 120.997 217.15 121.074C216.913 121.15 216.671 121.181 216.424 121.166C216.182 121.15 215.944 121.091 215.711 120.989C215.482 120.892 215.275 120.754 215.087 120.575C214.9 120.396 214.742 120.188 214.614 119.953C214.486 119.718 214.397 119.467 214.347 119.201C214.292 118.93 214.265 118.794 214.265 118.794C214.265 118.794 214.144 118.638 213.901 118.326C213.655 118.009 213.36 117.607 213.017 117.121C212.674 116.63 212.318 116.126 211.948 115.609C211.578 115.087 211.148 114.511 210.659 113.882C210.17 113.252 209.702 112.687 209.254 112.186C208.802 111.689 208.395 111.252 208.034 110.873C207.677 110.489 207.22 110.011 206.663 109.438C206.105 108.86 205.628 108.366 205.23 107.956C204.833 107.542 204.353 107.061 203.791 106.514C203.224 105.966 202.895 105.633 202.804 105.516C202.708 105.393 202.628 105.26 202.564 105.117C202.5 104.968 202.452 104.817 202.42 104.664C202.383 104.505 202.367 104.347 202.372 104.188C202.372 104.029 202.39 103.871 202.427 103.712C202.468 103.559 202.523 103.41 202.591 103.267C202.66 103.129 202.742 102.998 202.838 102.875C202.934 102.758 203.041 102.655 203.16 102.568C203.284 102.476 203.411 102.402 203.544 102.346C203.681 102.295 203.82 102.259 203.962 102.238C204.104 102.223 204.245 102.226 204.387 102.246C204.529 102.272 204.666 102.313 204.798 102.369C204.935 102.43 205.061 102.507 205.175 102.599C205.294 102.696 205.354 102.745 205.354 102.745Z" fill="#10B981"/>
<path d="M203.413 101.29C203.413 101.29 203.561 101.193 203.858 100.999C204.151 100.804 204.53 100.561 204.996 100.269C205.462 99.9727 206.022 99.6196 206.676 99.2103C207.325 98.806 207.919 98.4632 208.458 98.1818C208.997 97.9003 209.6 97.5984 210.267 97.2761C210.93 96.9537 211.588 96.6288 212.242 96.3013C212.89 95.9687 213.528 95.6336 214.154 95.2959C214.785 94.953 215.381 94.6179 215.943 94.2904C216.51 93.9629 217.081 93.6405 217.657 93.3233C218.228 93.0061 218.822 92.7169 219.439 92.456C220.056 92.2001 220.611 91.9904 221.105 91.8266C221.598 91.6629 222.112 91.494 222.647 91.32C223.182 91.1461 223.725 90.9644 224.278 90.7751C224.831 90.5807 225.352 90.3683 225.841 90.138C226.326 89.9078 226.805 89.6954 227.281 89.501C227.756 89.3066 228.288 89.3296 228.878 89.5701C229.467 89.8054 230.027 90.2455 230.557 90.8902C231.087 91.535 231.524 92.2871 231.866 93.1468C232.209 94.0064 232.575 94.8379 232.963 95.6412C233.352 96.4395 233.742 97.1814 234.135 97.8671C234.528 98.5579 234.882 99.1821 235.198 99.7399C235.513 100.298 235.81 100.848 236.089 101.39C236.372 101.932 236.66 102.431 236.953 102.887C237.25 103.337 237.56 103.874 237.885 104.499C238.209 105.128 238.41 105.75 238.488 106.364C238.566 106.973 238.415 107.732 238.036 108.643C237.656 109.549 237.167 110.24 236.569 110.716C235.965 111.191 235.337 111.606 234.684 111.959C234.035 112.312 233.386 112.614 232.737 112.865C232.088 113.115 231.38 113.351 230.612 113.571C229.844 113.791 229.099 113.993 228.377 114.177C227.651 114.356 226.974 114.54 226.348 114.73C225.718 114.914 225.071 115.124 224.409 115.359C223.746 115.594 223.161 115.84 222.654 116.096C222.151 116.352 221.562 116.649 220.885 116.986C220.209 117.324 219.37 117.769 218.37 118.322C217.369 118.869 216.75 119.194 216.512 119.297C216.27 119.399 216.021 119.455 215.765 119.465C215.509 119.476 215.258 119.44 215.011 119.358C214.764 119.276 214.536 119.153 214.325 118.99C214.115 118.826 213.935 118.626 213.784 118.391C213.633 118.161 213.519 117.907 213.441 117.631C213.363 117.36 213.327 117.081 213.331 116.794C213.336 116.508 213.382 116.229 213.469 115.958C213.555 115.687 213.679 115.438 213.839 115.213C213.994 114.988 214.181 114.796 214.401 114.638C214.616 114.479 214.846 114.364 215.093 114.292C215.34 114.221 215.591 114.195 215.847 114.215C216.103 114.236 216.35 114.302 216.587 114.415C216.825 114.528 217.04 114.679 217.232 114.868C217.424 115.057 217.584 115.275 217.712 115.52C217.84 115.771 217.931 116.037 217.986 116.319C218.036 116.6 218.045 116.884 218.013 117.17C217.977 117.457 217.904 117.728 217.794 117.984C217.684 118.245 217.538 118.478 217.355 118.683C217.177 118.887 216.974 119.053 216.745 119.181C216.517 119.314 216.274 119.401 216.018 119.442C215.763 119.483 215.509 119.478 215.258 119.427C215.006 119.376 214.769 119.281 214.545 119.143C214.321 119 214.122 118.823 213.948 118.613C213.775 118.399 213.635 118.161 213.53 117.9C213.43 117.639 213.366 117.365 213.338 117.078C213.315 116.792 213.334 116.508 213.393 116.226C213.457 115.945 213.555 115.684 213.688 115.444C213.825 115.198 213.994 114.986 214.195 114.806C214.392 114.622 214.49 114.53 214.49 114.53C214.49 114.53 214.906 114.292 215.737 113.816C216.569 113.34 217.303 112.941 217.938 112.619C218.578 112.297 219.22 111.967 219.864 111.629C220.504 111.286 221.127 110.982 221.735 110.716C222.343 110.449 222.896 110.24 223.394 110.086C223.892 109.933 224.475 109.754 225.142 109.549C225.809 109.344 226.504 109.137 227.226 108.927C227.952 108.723 228.633 108.52 229.268 108.321C229.904 108.121 230.47 107.922 230.968 107.722C231.467 107.528 232.063 107.397 232.757 107.331C233.452 107.264 233.644 106.993 233.333 106.517C233.023 106.046 232.741 105.563 232.49 105.067C232.243 104.575 231.983 104.041 231.709 103.462C231.435 102.889 231.119 102.296 230.763 101.682C230.406 101.073 229.986 100.346 229.502 99.5019C229.017 98.6576 228.652 97.995 228.405 97.514C228.163 97.0279 227.946 96.3013 227.754 95.3342C227.562 94.3671 227.717 94.0038 228.22 94.2443C228.722 94.4848 228.734 94.71 228.254 94.9198C227.774 95.1244 227.221 95.3393 226.595 95.5645C225.969 95.7845 225.407 95.9636 224.909 96.1018C224.406 96.245 223.862 96.3934 223.278 96.5469C222.693 96.7004 222.071 96.8872 221.413 97.1072C220.755 97.3324 220.159 97.5831 219.624 97.8594C219.089 98.1357 218.52 98.4376 217.917 98.7651C217.314 99.0977 216.677 99.4354 216.005 99.7782C215.333 100.121 214.657 100.456 213.976 100.784C213.295 101.111 212.616 101.428 211.94 101.735C211.264 102.042 210.574 102.349 209.87 102.656C209.166 102.958 208.588 103.222 208.136 103.447C207.688 103.672 207.226 103.895 206.751 104.115C206.276 104.34 205.88 104.532 205.565 104.69C205.254 104.849 205.028 104.957 204.887 105.013C204.749 105.069 204.608 105.107 204.462 105.128C204.32 105.148 204.176 105.148 204.03 105.128C203.883 105.107 203.742 105.067 203.605 105.005C203.468 104.949 203.34 104.872 203.221 104.775C203.097 104.683 202.988 104.575 202.892 104.452C202.796 104.325 202.714 104.189 202.645 104.046C202.577 103.897 202.524 103.744 202.487 103.585C202.455 103.421 202.439 103.26 202.439 103.102C202.439 102.938 202.458 102.777 202.494 102.618C202.531 102.454 202.583 102.301 202.652 102.158C202.72 102.009 202.805 101.874 202.906 101.751C203.002 101.628 203.111 101.521 203.235 101.428C203.353 101.336 203.413 101.29 203.413 101.29Z" fill="#10B981"/>
<path d="M216.177 98.4006C216.177 98.4006 216.46 98.6897 217.027 99.268C217.598 99.8359 218.096 100.322 218.521 100.726C218.941 101.125 219.458 101.637 220.07 102.261C220.682 102.891 221.196 103.471 221.612 104.004C222.033 104.536 222.41 105.055 222.743 105.562C223.072 106.063 223.388 106.603 223.689 107.181C223.986 107.759 224.279 108.358 224.567 108.977C224.85 109.596 225.017 110.395 225.067 111.372C225.113 112.349 224.818 113.107 224.183 113.644C223.543 114.181 222.97 114.399 222.462 114.296C221.96 114.194 221.434 114.028 220.886 113.797C220.342 113.567 219.768 113.27 219.165 112.907C218.562 112.549 217.966 112.17 217.376 111.771C216.787 111.372 216.215 110.988 215.663 110.62C215.11 110.251 214.554 109.893 213.997 109.545C213.439 109.192 212.884 108.796 212.331 108.356C211.774 107.91 211.271 107.46 210.823 107.005C210.375 106.554 209.927 106.073 209.48 105.562C209.032 105.045 208.609 104.546 208.212 104.065C207.814 103.579 207.485 103.216 207.224 102.975C206.964 102.73 206.749 102.55 206.58 102.438C206.411 102.32 206.256 102.182 206.114 102.023C205.972 101.865 205.849 101.691 205.744 101.501C205.643 101.307 205.563 101.102 205.504 100.887C205.445 100.678 205.41 100.46 205.401 100.235C205.387 100.015 205.399 99.795 205.435 99.575C205.472 99.3549 205.531 99.1426 205.614 98.9379C205.696 98.7384 205.799 98.549 205.922 98.3699C206.045 98.196 206.187 98.0399 206.347 97.9018C206.502 97.7636 206.672 97.6485 206.854 97.5564C207.037 97.4694 207.227 97.4054 207.423 97.3645C207.62 97.3235 207.819 97.3108 208.02 97.3261C208.216 97.3363 208.41 97.3773 208.602 97.4489C208.794 97.5154 209.249 97.8173 209.966 98.3546C210.684 98.8867 211.232 99.3294 211.611 99.6824C211.986 100.03 212.516 100.481 213.202 101.033C213.887 101.581 214.47 102.026 214.95 102.369C215.425 102.712 215.934 102.88 216.478 102.875C217.017 102.875 217.123 103.533 216.794 104.848C216.46 106.168 216.046 106.887 215.553 107.005C215.064 107.117 214.554 107.212 214.024 107.289C213.49 107.365 212.953 107.511 212.413 107.726C211.874 107.936 211.746 107.821 212.03 107.381C212.313 106.936 212.477 106.437 212.523 105.884C212.569 105.337 212.848 105.227 213.359 105.554C213.871 105.876 214.394 106.265 214.929 106.721C215.459 107.176 215.985 107.603 216.506 108.002C217.027 108.402 217.479 108.783 217.863 109.146C218.242 109.504 218.596 109.944 218.925 110.466C219.259 110.983 219.197 111.907 218.74 113.237C218.288 114.567 217.707 115.279 216.999 115.371C216.291 115.463 215.585 115.22 214.881 114.642C214.173 114.058 213.526 113.365 212.941 112.562C212.356 111.758 211.828 110.963 211.358 110.175C210.892 109.387 210.494 108.686 210.165 108.072C209.841 107.458 209.569 106.867 209.349 106.299C209.135 105.731 209.151 104.948 209.397 103.95C209.649 102.952 210.158 102.289 210.926 101.962C211.698 101.635 212.443 101.747 213.161 102.3C213.883 102.852 214.504 103.492 215.025 104.219C215.551 104.945 216.033 105.682 216.471 106.429C216.91 107.176 217.298 107.905 217.637 108.616C217.975 109.323 218.258 109.947 218.487 110.489C218.72 111.037 218.962 111.564 219.213 112.07C219.465 112.582 219.89 112.72 220.488 112.485C221.082 112.255 221.631 112.106 222.133 112.04C222.631 111.968 223.191 112.096 223.813 112.423C224.434 112.746 224.903 113.234 225.218 113.889C225.538 114.544 225.65 115.171 225.554 115.77C225.458 116.363 225.033 117.215 224.279 118.326C223.52 119.436 223.029 120.078 222.805 120.252C222.577 120.431 222.332 120.562 222.072 120.644C221.807 120.731 221.537 120.769 221.263 120.759C220.989 120.743 220.721 120.682 220.461 120.575C220.205 120.462 219.972 120.309 219.762 120.114C219.547 119.915 219.369 119.684 219.227 119.423C219.081 119.162 218.976 118.881 218.912 118.579C218.852 118.282 218.834 117.98 218.857 117.673C218.884 117.366 218.955 117.072 219.069 116.791C219.179 116.509 219.327 116.256 219.515 116.031C219.702 115.801 219.917 115.614 220.159 115.471C220.401 115.322 220.657 115.22 220.927 115.164C221.196 115.112 221.468 115.11 221.743 115.156C222.012 115.202 222.27 115.294 222.517 115.432C222.764 115.575 222.981 115.757 223.168 115.977C223.36 116.197 223.516 116.448 223.634 116.729C223.753 117.006 223.831 117.297 223.867 117.604C223.899 117.906 223.888 118.208 223.833 118.51C223.774 118.812 223.676 119.096 223.538 119.362C223.401 119.628 223.228 119.863 223.018 120.068C222.812 120.268 222.581 120.426 222.325 120.544C222.069 120.662 221.804 120.731 221.53 120.751C221.256 120.772 220.986 120.743 220.721 120.667C220.456 120.585 220.209 120.459 219.981 120.291C219.748 120.122 219.547 119.917 219.378 119.677C219.209 119.431 219.078 119.162 218.987 118.871C218.9 118.584 218.854 118.285 218.85 117.973C218.845 117.666 218.886 117.366 218.973 117.075C219.056 116.783 219.179 116.512 219.343 116.261C219.508 116.015 219.59 115.893 219.59 115.893C219.59 115.893 219.762 115.757 220.104 115.486C220.452 115.22 220.778 115.345 221.085 115.862C221.395 116.384 221.763 116.803 222.188 117.121C222.613 117.443 222.581 117.655 222.092 117.758C221.608 117.865 221.103 117.96 220.577 118.042C220.052 118.124 219.49 118.131 218.891 118.065C218.292 117.998 217.719 117.801 217.171 117.474C216.627 117.141 216.195 116.765 215.875 116.346C215.555 115.926 215.27 115.442 215.018 114.895C214.771 114.352 214.518 113.754 214.257 113.099C213.997 112.449 213.734 111.845 213.469 111.287C213.199 110.73 212.884 110.154 212.523 109.561C212.157 108.967 211.801 108.363 211.454 107.749C211.102 107.135 211.218 106.657 211.803 106.314C212.388 105.966 212.841 105.429 213.161 104.702C213.485 103.975 213.739 103.865 213.921 104.372C214.109 104.873 214.381 105.429 214.737 106.038C215.094 106.641 215.496 107.266 215.944 107.91C216.391 108.555 216.586 109.174 216.526 109.768C216.471 110.361 216.161 111.121 215.594 112.047C215.036 112.973 214.557 113.27 214.154 112.938C213.752 112.605 213.291 112.234 212.77 111.825C212.249 111.421 211.664 110.95 211.015 110.412C210.366 109.875 209.747 109.305 209.157 108.701C208.568 108.092 208.157 107.381 207.924 106.567C207.695 105.754 207.755 105.014 208.102 104.349C208.449 103.679 208.892 103.218 209.432 102.967C209.971 102.722 210.501 102.504 211.022 102.315C211.543 102.131 212.112 101.965 212.729 101.816C213.346 101.668 213.972 101.601 214.607 101.617C215.233 101.632 215.841 101.711 216.43 101.855C217.015 102.003 217.55 102.19 218.034 102.415C218.514 102.64 218.93 102.98 219.282 103.436C219.638 103.896 219.711 104.748 219.501 105.992C219.291 107.24 218.889 107.956 218.295 108.141C217.701 108.325 217.116 108.427 216.54 108.448C215.964 108.473 215.429 108.402 214.936 108.233C214.433 108.069 213.905 107.803 213.352 107.434C212.795 107.071 212.18 106.646 211.509 106.16C210.832 105.674 210.284 105.273 209.863 104.955C209.443 104.638 208.833 104.167 208.033 103.543C207.234 102.919 206.749 102.55 206.58 102.438C206.411 102.32 206.256 102.182 206.114 102.023C205.972 101.865 205.849 101.691 205.744 101.501C205.643 101.307 205.563 101.102 205.504 100.887C205.445 100.678 205.41 100.46 205.401 100.235C205.387 100.015 205.399 99.795 205.435 99.575C205.472 99.3549 205.531 99.1426 205.614 98.9379C205.696 98.7384 205.799 98.549 205.922 98.3699C206.045 98.196 206.187 98.0399 206.347 97.9018C206.502 97.7636 206.672 97.6485 206.854 97.5564C207.037 97.4694 207.227 97.4054 207.423 97.3645C207.62 97.3235 207.819 97.3108 208.02 97.3261C208.216 97.3363 208.41 97.3773 208.602 97.4489C208.794 97.5154 209.1 97.7022 209.521 98.0092C209.946 98.3213 210.336 98.677 210.693 99.0761C211.049 99.4803 211.408 99.9229 211.769 100.404C212.135 100.89 212.509 101.371 212.893 101.847C213.282 102.323 213.718 102.804 214.202 103.29C214.687 103.776 215.151 104.183 215.594 104.51C216.046 104.838 216.57 105.191 217.164 105.569C217.753 105.948 218.336 106.329 218.912 106.713C219.483 107.102 220.024 107.47 220.536 107.818C221.043 108.161 221.466 108.576 221.804 109.062C222.138 109.553 222.092 110.159 221.667 110.881C221.238 111.602 220.915 111.664 220.701 111.065C220.481 110.466 220.219 109.824 219.912 109.138C219.611 108.453 219.266 107.772 218.877 107.097C218.484 106.421 218.046 105.782 217.561 105.178C217.072 104.574 216.634 104.07 216.245 103.666C215.857 103.267 215.363 102.801 214.765 102.269C214.161 101.737 213.812 101.412 213.716 101.294C213.615 101.177 213.531 101.046 213.462 100.903C213.394 100.76 213.339 100.611 213.298 100.458C213.261 100.299 213.241 100.14 213.236 99.9818C213.236 99.8231 213.25 99.6645 213.277 99.5059C213.309 99.3473 213.357 99.1963 213.421 99.053C213.485 98.9098 213.565 98.7767 213.661 98.6539C213.752 98.5311 213.857 98.4211 213.976 98.3239C214.091 98.2267 214.214 98.1499 214.346 98.0936C214.484 98.0322 214.623 97.9887 214.765 97.9632C214.906 97.9427 215.048 97.9401 215.19 97.9555C215.331 97.9708 215.471 98.0041 215.608 98.0553C215.745 98.1115 215.873 98.1832 215.992 98.2702C216.115 98.3572 216.177 98.4006 216.177 98.4006Z" fill="#10B981"/>
<path d="M158.918 135.887C158.918 135.887 159.046 135.79 159.302 135.595C159.558 135.401 159.884 135.112 160.282 134.728C160.689 134.344 161.116 134.004 161.564 133.707C162.012 133.405 162.564 133.198 163.223 133.085C163.876 132.978 164.461 133.139 164.977 133.569C165.494 134.004 165.8 134.495 165.896 135.043C165.996 135.59 166.019 136.171 165.964 136.785C165.914 137.394 165.811 138.013 165.656 138.642C165.501 139.272 165.281 139.842 164.998 140.354C164.719 140.866 164.456 141.393 164.21 141.935C163.963 142.477 163.801 142.467 163.723 141.904C163.645 141.342 163.401 140.817 162.989 140.331C162.574 139.845 162.665 139.845 163.264 140.331C163.867 140.812 164.253 141.321 164.422 141.858C164.587 142.396 164.763 142.923 164.95 143.439C165.137 143.961 165.313 144.499 165.478 145.051C165.642 145.609 165.841 146.328 166.074 147.208C166.307 148.083 166.446 148.674 166.492 148.981C166.538 149.288 166.538 149.595 166.492 149.902C166.446 150.209 166.36 150.501 166.232 150.777C166.099 151.053 165.932 151.299 165.731 151.514C165.53 151.729 165.304 151.9 165.053 152.028C164.801 152.161 164.536 152.243 164.258 152.274C163.983 152.31 163.709 152.294 163.435 152.228C163.165 152.161 162.912 152.049 162.674 151.89C162.437 151.726 162.226 151.527 162.044 151.291C161.865 151.051 161.724 150.787 161.619 150.501C161.518 150.209 161.459 149.91 161.44 149.603C161.427 149.291 161.456 148.984 161.529 148.682C161.607 148.385 161.724 148.106 161.879 147.845C162.034 147.589 162.222 147.367 162.441 147.177C162.665 146.988 162.907 146.845 163.168 146.748C163.433 146.645 163.705 146.594 163.983 146.594C164.262 146.594 164.532 146.645 164.792 146.748C165.057 146.845 165.299 146.988 165.519 147.177C165.743 147.367 165.932 147.589 166.088 147.845C166.243 148.101 166.357 148.38 166.43 148.682C166.508 148.984 166.538 149.288 166.52 149.595C166.506 149.907 166.449 150.209 166.348 150.501C166.243 150.787 166.101 151.051 165.923 151.291C165.74 151.527 165.53 151.724 165.293 151.882C165.055 152.046 164.801 152.161 164.532 152.228C164.258 152.294 163.983 152.31 163.709 152.274C163.435 152.243 163.17 152.161 162.914 152.028C162.663 151.9 162.437 151.729 162.235 151.514C162.034 151.299 161.868 151.053 161.735 150.777C161.607 150.506 161.543 150.37 161.543 150.37C161.543 150.37 161.461 150.007 161.296 149.28C161.136 148.554 160.986 147.929 160.844 147.408C160.707 146.881 160.556 146.359 160.392 145.842C160.227 145.32 160.079 144.783 159.946 144.23C159.813 143.672 159.932 143.629 160.302 144.1C160.677 144.57 160.618 144.545 160.124 144.023C159.64 143.501 159.386 142.833 159.363 142.02C159.336 141.206 159.443 140.543 159.686 140.032C159.919 139.515 160.193 139.008 160.508 138.512C160.823 138.01 161.15 137.532 161.488 137.077C161.826 136.611 162.124 136.644 162.379 137.176C162.635 137.698 162.544 138.087 162.105 138.343C161.671 138.604 161.315 138.809 161.036 138.957C160.757 139.111 160.556 139.218 160.433 139.279C160.305 139.341 160.172 139.382 160.035 139.402C159.903 139.428 159.77 139.435 159.638 139.425C159.5 139.41 159.366 139.379 159.233 139.333C159.105 139.287 158.984 139.223 158.87 139.141C158.751 139.059 158.644 138.962 158.548 138.85C158.456 138.737 158.376 138.614 158.308 138.481C158.239 138.348 158.184 138.21 158.143 138.067C158.107 137.918 158.086 137.767 158.082 137.614C158.072 137.465 158.082 137.315 158.109 137.161C158.136 137.013 158.18 136.869 158.239 136.731C158.299 136.593 158.372 136.463 158.459 136.34C158.545 136.222 158.644 136.117 158.753 136.025C158.863 135.933 158.918 135.887 158.918 135.887Z" fill="white"/>
<path d="M59.0045 142.203C59.0045 142.203 59.8294 141.825 61.479 141.067C63.1287 140.31 64.9086 139.507 66.8188 138.657C68.7244 137.808 70.6985 136.943 72.7412 136.063C74.7793 135.183 76.8586 134.316 78.9789 133.461C81.0993 132.601 83.1237 131.796 85.0521 131.043C86.9806 130.291 88.7056 129.623 90.2274 129.04C91.7491 128.457 93.1086 127.948 94.3059 127.513C95.5032 127.078 96.5588 126.707 97.4727 126.4C98.3821 126.088 99.1453 125.809 99.7622 125.563C100.379 125.318 101.097 125.034 101.915 124.711C102.737 124.394 103.482 124.123 104.149 123.898C104.816 123.667 105.445 123.465 106.034 123.291C106.624 123.112 107.213 122.918 107.803 122.708C108.392 122.498 109.135 122.268 110.03 122.017C110.926 121.772 111.472 121.654 111.669 121.664C111.87 121.669 112.064 121.713 112.251 121.795C112.439 121.871 112.61 121.981 112.765 122.125C112.921 122.268 113.051 122.434 113.156 122.624C113.261 122.818 113.337 123.023 113.382 123.238C113.428 123.458 113.442 123.68 113.423 123.905C113.405 124.125 113.355 124.338 113.273 124.542C113.195 124.747 113.088 124.934 112.95 125.103C112.813 125.266 112.658 125.402 112.484 125.509C112.306 125.617 112.119 125.691 111.922 125.732C111.726 125.773 111.529 125.776 111.333 125.74C111.132 125.709 110.942 125.642 110.764 125.54C110.586 125.438 110.428 125.307 110.291 125.149C110.149 124.985 110.035 124.803 109.948 124.604C109.861 124.399 109.806 124.187 109.784 123.967C109.756 123.742 109.763 123.519 109.804 123.299C109.845 123.079 109.916 122.872 110.017 122.677C110.117 122.483 110.243 122.314 110.394 122.171C110.545 122.022 110.711 121.905 110.894 121.818C111.081 121.731 111.273 121.679 111.47 121.664C111.671 121.649 111.87 121.669 112.066 121.726C112.258 121.782 112.439 121.871 112.608 121.994C112.772 122.117 112.916 122.268 113.04 122.447C113.163 122.621 113.259 122.815 113.327 123.03C113.396 123.24 113.43 123.458 113.43 123.683C113.435 123.908 113.407 124.125 113.348 124.335C113.284 124.55 113.193 124.747 113.074 124.926C112.955 125.11 112.813 125.266 112.649 125.394C112.484 125.522 112.306 125.617 112.114 125.678C111.922 125.745 111.826 125.778 111.826 125.778C111.826 125.778 111.458 125.88 110.723 126.085C109.982 126.295 109.272 126.469 108.591 126.607C107.91 126.745 107.261 126.848 106.644 126.914C106.027 126.975 105.39 127.042 104.732 127.114C104.069 127.185 103.324 127.275 102.497 127.382C101.67 127.495 100.943 127.618 100.317 127.751C99.6913 127.884 98.9282 128.099 98.0279 128.395C97.1277 128.692 96.0858 129.058 94.9022 129.493C93.7141 129.933 92.3637 130.45 90.8511 131.043C89.334 131.632 87.618 132.31 85.7033 133.077C83.784 133.84 81.7756 134.656 79.6781 135.526C77.5806 136.396 75.5196 137.283 73.4952 138.189C71.4754 139.095 69.5218 139.988 67.6345 140.868C65.7518 141.748 63.9947 142.59 62.3633 143.393C60.7273 144.196 59.8636 144.613 59.7722 144.644C59.6854 144.675 59.594 144.69 59.4981 144.69C59.4112 144.695 59.3221 144.687 59.2307 144.667C59.1348 144.647 59.0457 144.613 58.9634 144.567C58.8766 144.521 58.7989 144.465 58.7303 144.398C58.6572 144.332 58.591 144.258 58.5316 144.176C58.4767 144.089 58.431 143.999 58.3945 143.907C58.3579 143.81 58.3328 143.708 58.3191 143.6C58.3008 143.498 58.2962 143.398 58.3054 143.301C58.3145 143.193 58.3328 143.091 58.3602 142.994C58.3922 142.891 58.4333 142.797 58.4836 142.71C58.5338 142.623 58.5932 142.544 58.6618 142.472C58.7258 142.395 58.7989 142.331 58.8811 142.28C58.9634 142.229 59.0045 142.203 59.0045 142.203Z" fill="white"/>
<path d="M59.7316 139.255C59.7316 139.255 60.5656 139.007 62.2336 138.511C63.9061 138.019 65.5101 137.518 67.0455 137.006C68.581 136.495 70.0913 135.952 71.5764 135.379C73.057 134.811 74.5285 134.223 75.9908 133.614C77.4531 133.005 78.8995 132.388 80.3298 131.764C81.7647 131.14 83.2133 130.508 84.6756 129.868C86.1425 129.223 87.6391 128.581 89.1654 127.942C90.6917 127.302 92.202 126.668 93.6963 126.038C95.1861 125.409 96.6255 124.795 98.0147 124.196C99.3994 123.597 100.711 123.03 101.949 122.492C103.192 121.955 104.36 121.459 105.452 121.003C106.549 120.553 107.616 120.144 108.653 119.775C109.69 119.402 110.703 119.049 111.69 118.716C112.677 118.389 113.63 118.071 114.548 117.764C115.467 117.457 116.339 117.16 117.167 116.874C117.994 116.592 118.725 116.316 119.36 116.045C120 115.774 120.546 115.515 120.998 115.27C121.451 115.024 122.202 114.707 123.254 114.318C124.3 113.924 124.892 113.727 125.029 113.727C125.166 113.727 125.298 113.753 125.426 113.804C125.559 113.85 125.68 113.919 125.79 114.011C125.899 114.108 125.993 114.218 126.071 114.341C126.144 114.469 126.199 114.607 126.235 114.756C126.276 114.904 126.292 115.055 126.283 115.208C126.274 115.362 126.244 115.51 126.194 115.654C126.144 115.792 126.075 115.92 125.989 116.037C125.902 116.155 125.799 116.255 125.68 116.337C125.561 116.413 125.436 116.47 125.303 116.506C125.171 116.536 125.036 116.544 124.899 116.529C124.762 116.513 124.631 116.472 124.508 116.406C124.385 116.344 124.273 116.26 124.172 116.152C124.071 116.05 123.989 115.93 123.925 115.792C123.861 115.659 123.818 115.515 123.795 115.362C123.772 115.213 123.772 115.063 123.795 114.909C123.818 114.756 123.861 114.612 123.925 114.479C123.989 114.341 124.069 114.221 124.165 114.118C124.266 114.011 124.378 113.924 124.501 113.858C124.629 113.796 124.759 113.758 124.892 113.742C125.029 113.722 125.164 113.73 125.296 113.765C125.433 113.796 125.559 113.85 125.673 113.927C125.792 114.008 125.897 114.108 125.989 114.226C126.075 114.339 126.144 114.466 126.194 114.61C126.244 114.753 126.274 114.901 126.283 115.055C126.292 115.208 126.279 115.359 126.242 115.508C126.206 115.656 126.148 115.794 126.071 115.922C125.993 116.045 125.899 116.155 125.79 116.252C125.68 116.344 125.561 116.413 125.433 116.459C125.305 116.511 125.241 116.536 125.241 116.536C125.241 116.536 124.794 116.703 123.898 117.035C123.002 117.363 122.289 117.608 121.759 117.772C121.234 117.936 120.63 118.11 119.95 118.294C119.273 118.473 118.519 118.68 117.688 118.916C116.856 119.146 115.981 119.412 115.062 119.714C114.144 120.011 113.198 120.323 112.224 120.65C111.251 120.978 110.257 121.323 109.243 121.686C108.228 122.05 107.179 122.456 106.096 122.907C105.009 123.352 103.846 123.846 102.607 124.388C101.369 124.93 100.055 125.504 98.6659 126.107C97.2722 126.711 95.8304 127.328 94.3407 127.957C92.8464 128.592 91.3429 129.229 89.8303 129.868C88.3132 130.513 86.8234 131.158 85.3611 131.802C83.8942 132.452 82.4433 133.094 81.0084 133.729C79.5735 134.369 78.118 135.003 76.642 135.632C75.1705 136.262 73.6831 136.873 72.1796 137.467C70.6808 138.06 69.1567 138.628 67.6076 139.171C66.0584 139.713 64.4522 140.245 62.7888 140.767C61.1254 141.294 60.2503 141.565 60.1635 141.581C60.0766 141.596 59.9944 141.599 59.9167 141.588C59.8299 141.578 59.7453 141.558 59.6631 141.527C59.5808 141.496 59.5054 141.453 59.4369 141.397C59.3638 141.345 59.2975 141.284 59.2381 141.212C59.1787 141.141 59.1284 141.064 59.0873 140.982C59.0462 140.895 59.0142 140.806 58.9913 140.713C58.9685 140.621 58.9548 140.527 58.9502 140.429C58.9502 140.342 58.9593 140.25 58.9776 140.153C58.9959 140.061 59.0233 139.971 59.0599 139.884C59.101 139.797 59.149 139.718 59.2038 139.647C59.2587 139.57 59.3203 139.503 59.3889 139.447C59.462 139.391 59.5374 139.345 59.6151 139.309C59.6928 139.273 59.7316 139.255 59.7316 139.255Z" fill="#10B981"/>
<path d="M73.5969 162.168C73.5969 162.168 74.1361 161.823 75.2146 161.132C76.3022 160.446 77.5977 159.622 79.1012 158.66C80.6046 157.698 82.2908 156.649 84.1599 155.513C86.0335 154.372 88.019 153.196 90.1165 151.983C92.2141 150.77 94.3664 149.588 96.5736 148.437C98.7854 147.28 101.009 146.18 103.243 145.136C105.478 144.088 107.653 143.097 109.769 142.166C111.88 141.235 113.909 140.352 115.856 139.518C117.807 138.684 119.639 137.919 121.353 137.223C123.062 136.522 124.62 135.901 126.028 135.358C127.435 134.816 128.692 134.337 129.798 133.923C130.899 133.508 131.834 133.143 132.602 132.825C133.369 132.508 134.19 132.234 135.062 132.004C135.935 131.769 136.42 131.62 136.516 131.559C136.607 131.492 136.705 131.444 136.81 131.413C136.92 131.382 137.03 131.375 137.139 131.39C137.249 131.4 137.354 131.428 137.455 131.474C137.555 131.526 137.647 131.592 137.729 131.674C137.807 131.756 137.873 131.851 137.928 131.958C137.982 132.065 138.019 132.181 138.037 132.303C138.06 132.426 138.062 132.546 138.044 132.664C138.03 132.787 137.998 132.905 137.948 133.017C137.898 133.125 137.834 133.222 137.756 133.309C137.679 133.396 137.589 133.467 137.489 133.524C137.393 133.575 137.29 133.608 137.18 133.624C137.071 133.639 136.961 133.636 136.851 133.616C136.746 133.59 136.646 133.547 136.55 133.485C136.454 133.424 136.369 133.347 136.296 133.255C136.223 133.163 136.166 133.061 136.125 132.948C136.079 132.836 136.054 132.718 136.049 132.595C136.04 132.472 136.049 132.349 136.077 132.227C136.104 132.109 136.148 131.999 136.207 131.897C136.266 131.794 136.34 131.705 136.426 131.628C136.509 131.551 136.602 131.492 136.707 131.451C136.813 131.41 136.92 131.387 137.03 131.382C137.139 131.382 137.247 131.4 137.352 131.436C137.457 131.472 137.553 131.526 137.64 131.597C137.731 131.669 137.809 131.756 137.873 131.858C137.932 131.955 137.978 132.065 138.01 132.188C138.042 132.306 138.058 132.426 138.058 132.549C138.053 132.672 138.03 132.789 137.989 132.902C137.953 133.02 137.9 133.125 137.832 133.217C137.763 133.314 137.729 133.363 137.729 133.363C137.729 133.363 137.169 133.549 136.049 133.923C134.934 134.296 133.986 134.606 133.205 134.852C132.423 135.097 131.482 135.427 130.381 135.842C129.279 136.261 128.032 136.74 126.638 137.277C125.244 137.814 123.695 138.433 121.991 139.134C120.286 139.83 118.463 140.595 116.521 141.429C114.578 142.263 112.559 143.146 110.461 144.077C108.364 145.009 106.209 145.996 103.997 147.04C101.785 148.079 99.5896 149.174 97.4099 150.325C95.2255 151.471 93.0937 152.653 91.0145 153.871C88.9353 155.089 86.9703 156.271 85.1195 157.417C83.2733 158.568 81.6031 159.633 80.1088 160.61C78.619 161.592 77.3395 162.442 76.2702 163.158C75.2009 163.869 74.6274 164.245 74.5497 164.286C74.472 164.322 74.3897 164.348 74.3029 164.363C74.2161 164.384 74.1338 164.389 74.0561 164.378C73.9693 164.373 73.8848 164.355 73.8025 164.325C73.7203 164.294 73.6426 164.253 73.5695 164.202C73.4963 164.151 73.4301 164.089 73.3707 164.018C73.3113 163.951 73.261 163.877 73.2199 163.795C73.1742 163.708 73.1399 163.619 73.1171 163.526C73.0896 163.434 73.0759 163.34 73.0759 163.243C73.0714 163.156 73.0759 163.063 73.0896 162.966C73.1079 162.874 73.1353 162.785 73.1719 162.698C73.2085 162.611 73.2542 162.529 73.309 162.452C73.3638 162.375 73.4255 162.309 73.4941 162.252C73.5626 162.196 73.5969 162.168 73.5969 162.168Z" fill="#10B981"/>
</svg>
