<svg fill="none" height="449" viewBox="0 0 475 449" width="475" xmlns="http://www.w3.org/2000/svg" xmlns:xlink="http://www.w3.org/1999/xlink"><clipPath id="a"><path d="m0 0h475v449h-475z"/></clipPath><g clip-path="url(#a)" fill="#10b981"><path d="m243.129 152.193h3.328c.595 1.257.81 2.669 2.126 3.382 6.501.181 4.455-.315 11.905 7.192h15.086c2.25 1.026 2.895 4.193 5.857 3.673 2.111 2.912 7.29 2.919 7.328 7.904.006.712 1.305 1.408 2.007 2.111-1.148 3.21-3.836 5.172-6.082 7.585-.745 1.198-3.158-.899-3.229 1.331-.068 2.161-2.198.984-2.947 2.257-.523.888-2.237 1.069-3.443 1.575l-1.338-1.165c-.567 2.217-2.674 2.558-4.265 3.457-1.148.164-1.316-1.618-3.088-.883l-2.894 3.62c-1.186-.968-1.899-2.083-2.879-1.484-2.551 1.561-4.984 3.317-7.443 5.026-2.633 1.782-5.795 2.603-8.958 2.327-2.303-.299-3.994 2.465-6.649.276v4.719c-1.309 1.373-3.493-.08-4.474 2.498-.533-3.625-5.094-1.698-5.54-5.141-1.876.892-3.805 2.17-5.304-.65-.36-.619.499-.691.709-1.214-.053-1.162-1.05-.558-1.646-.785-1.215-1.22-.684-3.624 1.861-8.346-5.581-3.54-7.85-9.76-11.461-14.663.25-3.922 2.594-6.367 6.029-7.875 1.066-.314 2.153-.549 3.252-.702 2.865-.771 5.687-1.889 8.801-1.83 5.537.102 7.104-1.308 8.844-6.662.86-2.645 1.093-5.69 4.507-7.533z"/><path d="m401.336 374.65c-3.341 2.078-6.627 2.683-8.662 5.372-.734.884-1.768 1.462-2.903 1.622-3.847.842-6.4 4.487-10.54 4.766-.743.05-1.405 1.313-2.105 2.015-4.263-.401-8.239 2.126-12.555 1.235-1.114-.23-2.356.483-3.38-.441-2.763-2.495-6.199-3.338-9.72-3.747-3.203-.372-4.949-2.686-6.986-4.677-.381-1.263.735-3.471-2.246-3.135v-5.502c3.175-4.057 7.707-5.737 13.038-6.506 5.104-.84 10.12-2.15 14.985-3.912 1.142-.406 2.191-1.037 3.086-1.856s1.618-1.81 2.126-2.914c3.295-6.576 6.014-13.427 8.127-20.476 1.658-5.287 1.552-5.324 6.045-7.727 3.24.813 1.933 3.753 2.38 5.565l3.532-3.549c1.633 1.22 2.45 2.229 2.615 3.75 1.822.074 3.731 1.089 5.202-1.266 1.013 2.264-.578 5.009 2.783 6.202l2.812-3.829c1.484 1.709.176 3.486 1.169 4.823 1.129.711 1.782-.06 2.463-.814.274.178.663.289.81.542 3.87 6.763 2.88 13.361-.853 19.767-1.902 3.159-4.308 5.984-7.122 8.36-1.941 1.674-3.364 3.872-4.101 6.332z"/><path d="m327.545 286.811c-1.528.153-2.982.841-3.738-1.031-1.832 1.35-3.178 4.057-5.842 1.559-.13-.147-.293-.262-.475-.334s-.378-.1-.573-.082-.383.082-.549.187c-.165.105-.304.248-.404.417-.878 1.208-2.218.313-3.302.867-1.625 5.185-5.753 8.405-9.755 11.66-.497.407-1.268 1.143-1.843 1.148-5.284.047-10.578.5-15.852-.216-1.551-1.995-4.973.556-6.075-2.523-2.112-.112-4.164-.747-5.973-1.849-1.982-1.075-3.73-2.57-5.67-3.519-2.988-1.461-4.598-3.863-6.083-6.506-.988-1.753-1.722-3.649-2.599-5.534 1.013-1.946 1.791-4.067 3.667-5.578 1.014-.829 2.198-1.422 3.468-1.738 3.546-1.107 6.839-2.907 9.69-5.296 7.113-5.536 13.886-11.461 20.674-17.371 1.33-1.157 2.958-1.494 4.366-2.323 1.123.837 2.466 1.433 2.067 3.152 1.89 1.171 3.994-.181 5.771.847.15 1.699-1.839.028-1.874 1.698 1.474.881 3.4.029 5.164.413.801 1.275 2.422 1.83 2.936 3.514.421 1.382 2.267 3.113 1.887 3.802-.999 1.81.772 2.877.476 4.372-.296 1.496.283 3.457-.476 4.537-.877 1.25 1.08 2.702-.911 3.572 2.17 1.381 4.115 3.491 6.293 3.77 2.381.305 2.44 4.263 5.543 2.372z"/><path d="m172.852 336.134c-2.862 1.402-4.05 5.03-7.626 6.017-1.192-3.785 4.919-4.432 3.027-8.014-1.643-1.135-3.397-2.1-5.235-2.878-.701-.204-1.34-.58-1.86-1.092-.521-.513-.907-1.147-1.124-1.846-.921-2.396-2.546-4.455-4.658-5.903-.076-1.36-.066-2.724.03-4.083.387-3.014 1.13-5.812 3.505-8.096 5.907-5.681 12.472-10.143 20.381-12.547 1.909-.768 3.747-1.705 5.49-2.799.274-2.593 1.863-5.062 1.689-8.101.013-.922.341-1.811.928-2.519.588-.708 1.4-1.192 2.3-1.371 1.166-.23 2.204-1.107 3.717-1.913v7.777l4.422-4.382c7.087 4.233 12.081 9.515 13.528 17.665l-2.421.859v4.96c-3.124 2.368-3.413 6.052-4.641 9.049-1.375 3.687-3.425 7.083-6.044 10.013-2.371 2.527-5.296 4.565-6.778 7.904-.415.922-1.152 1.658-2.072 2.068-3.24 1.146-5.362 3.54-7.364 6.46-.37-1.016-.619-1.708-1.107-3.05-.794 2.564-1.266 4.468-3.778 5.719-3.066 1.525-4.151-.26-5.748-1.728-.758.823-1.383 1.644-2.547 1.016-.135-.33-.477-.749-.381-.997.712-2.177 2.005-4.115 3.739-5.604.788-.632 1.431-1.367.628-2.584z"/><path d="m272.573 82.7783c-.749-.305-.823-1.156-1.813-.7117-.341 2.8365.641 6.0756-1.924 9.0199-1.013.3731-3.273-.1769-3.899 1.8412-.506 1.6195-1.034 2.8466-2.612 3.0845-1.823-.0305-.445-2.4186-2.117-2.4003-1.635.0102-2.077 1.6338-3.174 2.3698-.548-.3456-.856-1.0095-.57-1.4629.829-1.3126 1.741-2.5346.859-4.1755-1.283-1.1102-1.898.5236-2.846.7117-.257-.1665-.439-.4256-.51-.7236s-.025-.6119.129-.8767c2.329-4.4641 3.24-9.3899 4.974-14.03-3.383-1.9872-6.874-3.7828-10.457-5.3781-3.815-1.8981-6.403-4.7784-9.672-7.625h-5.119c-.025-3.0134 3.413-3.8064 2.709-7.1553-1.76-1.22-2.212 3.2533-4.401 2.5416-.555-.3365-.745-.8397-.619-1.7893 3.247-2.0984 7.41-2.3078 11.014-4.0667 3.836-1.8747 8.263-2.0994 12.425-3.0378 4.326-.977 8.534-.0782 12.953-.8285 3.125-2.4106 2.583-6.6084 3.933-10.0081 1.407-3.5492 2.963-6.8971 5.902-9.4855 1.102-.9709 2.134-.5399 3.38-.4341.192 1.7934-2.964 2.0445-1.828 4.4062l4.54-2.2072c1.245.0742 1.138.915 1.126 1.7009 5.75 1.3146 6.743 1.9469 8.796 7.9381.515 1.5062.764 3.0914.736 4.6838-.08 2.1818-.021 4.3717-.021 6.5209.437.8825 1.408.4453 2.198 1.0004v8.9467c-4.499 1.5514-5.531 6.3592-8.117 9.881-1.133 1.5453-1.967 3.3235-5.211 3.7301 1.558-1.7344 2.951-2.7307 3.519-4.0768.55-1.3024 2.058-2.315 1.62-3.906-.344-.6405-.607-.6721-.911-.2481-1.709 2.44-3.001 5.2867-6.176 6.2657.134 2.2194-.633 1.8646-1.727.5856-1.25.8581-.462 2.1289-.629 3.1913-.125.793-.042 1.4966-1.208 1.5637-2.84.1626-3.448 2.994-5.252 4.6441z"/><path d="m162.484 166.439c.261 2.44-.133 4.03-2.182 4.794-1.59-.02-2.033-1.642-3.131-2.38-1.396 1.466-2.787 1.701-4.491.31-1.397-1.013-2.379-2.502-2.761-4.189-.304-2.898-2.103-4.501-3.941-6.133-3.379-3.058-5.983-6.883-7.594-11.154-.451-.904-.669-1.906-.633-2.916.035-1.009.322-1.994.835-2.863.776-1.718 1.969-3.213 3.47-4.348s3.262-1.872 5.121-2.146c2.582-.453 4.997-1.882 7.641-1.112.599-1.048 1.518-1.402 1.793-2.529 1.503-5.886 3.753-11.553 6.692-16.864 1.981-3.672 3.69-3.901 7.371-1.852 2.301 1.28 4.594 2.313 6.61 4.194 2.49 2.058 4.385 4.749 5.487 7.793 1.561 3.647 2.366 7.575 2.366 11.545-.018 1.848-.815 3.944 1.101 5.511.29.238.228 1.22.011 1.728-1.498 3.425-.797 7.37-2.885 10.728-2.334 3.754-4.572 7.58-8.107 10.246-1.28 1.124-2.932 1.727-4.632 1.693-2.53-.215-5.096-.056-8.141-.056z"/><path d="m99.5024 233.596c0 1.423-.4232 2.829.0719 3.335 2.4107 2.471-.7249 4.495-.3037 6.734-2.7824 2.643-3.6147 6.524-5.9151 9.444-1.2879 1.634-2.6325 3.253-5.3348 2.988-.8481.011-1.6838.206-2.4505.57s-1.4466.889-1.9934 1.54c-1.2059-.889-2.4624-1.678-4.0338-.711-.1579.972 1.4256 1.262.7918 2.695-2.1455.704-4.5411 1.475-6.9245 2.281-2.43.821-5.589 1.017-7.0764 2.692-1.7354 1.958-3.9356 3.23-5.8117 5.337-1.5609-.968-3.3289-1.548-5.1577-1.693.889-1.56 2.999-1.973 2.2852-4.504l-2.8279 2.292c-.259-.149-.4505-.392-.5342-.679-.0837-.288-.053-.596.0857-.861.5576-.511.9384-1.187 1.0868-1.93.1485-.743.0568-1.514-.2616-2.201-3.3757-.082-6.798-1.429-10.2263-3.071-1.0125-1.814 1.1077-3.314 1.135-4.874-1.4398-1.119-2.1363-.433-2.8481.382-1.9845-.686-2.6862-2.482-1.8377-3.957 1.1664-2.033 2.1019-4.259 4.6757-5.468 7.4631-3.507 14.58-7.732 22.0725-10.945 3.2937-5.619 2.6862-12.961 8.1213-17.582h3.5265c.571 1.737 1.8124 2.024 3.5863 2.541 3.1185.915 6.5296 2.419 7.7051 5.948.8029 2.41 2.7773 3.919 3.7645 6.186.38.953 1.0121 1.784 1.8279 2.403.8158.618 1.7844 1.001 2.8012 1.108z"/><path d="m252.316 424.229c-.815-.605-1.047-1.291-1.259-1.247l-5.473 5.759c-.166 1.079 2.287-.407 2.378 1.017-3.613 2.111-8.486 2.889-8.956 8.666l1.643 1.65c1.013-1.375 2.017-2.751 3.047-4.156 1.246 1.342.865 2.083.073 2.873-1.77 2.013-4.251 3.254-6.916 3.461-2.015.11-3.808 1.796-6.088.952-.303.861-.539 1.553-.784 2.258-.761.464-.81-.493-1.653-.748-.155 1.965-2.262 2.033-3.293 3.316-1.909-.785-3.366-3.038-5.367-2.711-.949.155-2.391-1.932-3.037.61l-2.782-3.59h-4.868c-2.915-1.374-3.753-3.954-4.885-6.303.37-.619.719-1.203 1.057-1.767l-2.265-2.275c.089-1.692 1.243-2.996 2.116-4.371.874-1.376 2.265-1.177 3.604-.633.072 1.034-1.665 1.627-.55 3.073 2.661-1.797 5.913-2.251 8.771-3.643 2.009-5.349 1.849-11.445 6.187-16.003.601-.74 1.035-1.602 1.269-2.528.235-.925.265-1.891.088-2.829-.218-1.112.81-1.081 1.705-1.076 1.39 1.644.132 3.731.771 5.514 3.906-1.689 5.179-4.046 5.063-8.154-.038-1.278 1.12-2.581.536-4.262-1.02-.203-.818.615-1.012 1.22-.265.505-.606.966-1.013 1.364-.209.329-.528.571-.9.683-.371.112-.771.086-1.125-.073.234-6.005 1.952-8.507 7.29-10.588 1.316 1.279-.082 3.073.887 4.523 1.184-.184 1.594-1.392 2.641-2.124.67 1.242.977 2.768 2.387 3.524 1.165.442 1.671-.617 2.618-1.34 4.119 1.716 7.392 4.067 7.534 9.314.05 1.814 2.145 3.761 1.002 5.388-1.418 2.007.701 3.308.194 5.083-.708 2.463 1.722 4.569 1.209 7.253-.32 1.132-.96 2.147-1.844 2.92z"/><path d="m380.81 134.209h3.425c1.33 1.258.022 3.035.841 4.474 2.052 1.112 2.505-1.119 3.718-1.884.277.113.542.256.79.425 1.349 1.125 2.126 2.679 3.624 3.836 4.87 3.77 5.806 9.534 2.936 15.737-1.316 2.846-2.558 6.011-4.733 8.078-1.792 1.702-1.356 3.92-2.743 5.539-1.351 1.577-3.061 2.689-4.039 4.855-1.14 2.523-4.723 3.11-6.471 5.496-3.167-.723-3.652 1.975-4.889 3.789-.68.826-1.429 1.593-2.239 2.291-1.689-.333-3.281-1.371-5.257-1.449-1.681-.068-3.272-2.184-5.07-.118-2.553-2.252-5.307.667-7.647-.173-2.573-.925-5.535-.654-7.829-2.722-.797-.718-2.597-.417-3.936-.398-.537.045-1.074-.084-1.533-.367-.458-.284-.814-.707-1.015-1.209-.772-2.16 2.172-2.226.633-3.965-.631-1.118-2.096.109-3.054-.792-.347-.884-.395-1.858-.138-2.773 1.82-.968 3.813-1.567 5.865-1.761 3.168-.102 5.771-2.237 8.687-3.343 6.039-2.103 11.533-5.535 16.081-10.044 1.551-1.652 2.817-3.553 3.746-5.624 2.056-4.318 4.159-8.613 6.308-12.886.856-1.987 2.214-3.715 3.939-5.012z"/><path d="m35.8629 124.691 2.4877 2.358c4.3538-.156 5.4119-3.998 6.3029-6.786 2.5808-8.074 5.7854-15.91 8.4928-23.9273.7776-2.3027 1.4347-2.7938 6.6471-5.2805.5893 2.7511 2.1353 3.8572 5.1637 3.9812 1.9076.0783 4.2869 1.9154 5.4169 3.6468.9264 1.4178 3.0689 2.9038 2.757 4.0278-.486 1.754 2.2883 2.881.4354 4.582-.2663.244 1.2353 1.206.9963 2.353-.3675 1.772 2.4432 3.292 1.0652 4.778-1.7112 1.846.9456 3.009.1124 4.481-.0721.189-.0721.398 0 .587.7087 2.171-3.8911 2.339-1.8438 5.394.7199 1.077-1.2454 3.009-2.1182 4.523-1.0937 1.794-2.4003 3.449-3.891 4.927-1.3233 1.394-2.6791 2.732-4.8296 2.999-1.8225-2.542-3.7534 1.633-5.8098.514-.492 3.864-5.271 3.578-6.5599 7.015-.317.945 1.14 1.263 1.2858 2.276-.0208.497-.1673.981-.4255 1.406-.2583.425-.6199.777-1.0509 1.023s-.9171.377-1.4128.383c-.4958.005-.9847-.116-1.421-.352-2.7813-1.342-5.6204-.792-8.5151-1.169-.073-2.486-1.0949-4.848-2.8542-6.598-1.0743-.964-1.4631-2.434-.8981-3.128 2.673-3.279.0901-6.123-.5397-9.048-.5711-2.623-.8353-2.566 1.0064-4.966z"/><path d="m407.401 252.982 3.893-3.909c8.519-1.379 17.031-2.634 25.819-.305 2.57-.59 3.773-3.125 4.455-5.238.891-2.768 3.192-4.536 4.001-7.285.602-2.045 3.348-1.525 4.226-3.18 1.941.801 3.267 1.546 2.649 3.854 2.743-.157 5.054-.192 6.551 2.161 1.157 1.816 4.111 1.606 4.64 4.549.371 2.067 2.01 3.903 2.99 5.674-2.632 3.894 1.129 7.081.941 10.632-.8 2.329-1.547 4.566-5.014 4.716-1.953.085-4.007 1.83-5.687 3.229-2.169 1.804-4.056 1.823-6.245-.026-.092 2.915-2.633 3.403-4.569 4.561-.441-.249-1.067-.915-1.643-.877-3.869.271-7.45-1.796-11.036-1.781-3.48.169-6.943-.596-10.031-2.216-3.064-1.784-6.632-2.147-9.558-4.282-1.235-.902-2.355-1.341-2.878-3-.775-2.449-3.623-3.9-3.504-7.277z"/></g></svg>