<svg width="475" height="449" viewBox="0 0 475 449" fill="none" xmlns="http://www.w3.org/2000/svg">
<g clip-path="url(#clip0_82_678)">
<path d="M243.129 152.193H246.457C247.052 153.45 247.267 154.862 248.583 155.575C255.084 155.756 253.038 155.26 260.488 162.767H275.574C277.824 163.793 278.469 166.96 281.431 166.44C283.542 169.352 288.721 169.359 288.759 174.344C288.765 175.056 290.064 175.752 290.766 176.455C289.618 179.665 286.93 181.627 284.684 184.04C283.939 185.238 281.526 183.141 281.455 185.371C281.387 187.532 279.257 186.355 278.508 187.628C277.985 188.516 276.271 188.697 275.065 189.203L273.727 188.038C273.16 190.255 271.053 190.596 269.462 191.495C268.314 191.659 268.146 189.877 266.374 190.612L263.48 194.232C262.294 193.264 261.581 192.149 260.601 192.748C258.05 194.309 255.617 196.065 253.158 197.774C250.525 199.556 247.363 200.377 244.2 200.101C241.897 199.802 240.206 202.566 237.551 200.377V205.096C236.242 206.469 234.058 205.016 233.077 207.594C232.544 203.969 227.983 205.896 227.537 202.453C225.661 203.345 223.732 204.623 222.233 201.803C221.873 201.184 222.732 201.112 222.942 200.589C222.889 199.427 221.892 200.031 221.296 199.804C220.081 198.584 220.612 196.18 223.157 191.458C217.576 187.918 215.307 181.698 211.696 176.795C211.946 172.873 214.29 170.428 217.725 168.92C218.791 168.606 219.878 168.371 220.977 168.218C223.842 167.447 226.664 166.329 229.778 166.388C235.315 166.49 236.882 165.08 238.622 159.726C239.482 157.081 239.715 154.036 243.129 152.193Z" fill="#10B981"/>
<path d="M401.336 374.65C397.995 376.728 394.709 377.333 392.674 380.022C391.94 380.906 390.906 381.484 389.771 381.644C385.924 382.486 383.371 386.131 379.231 386.41C378.488 386.46 377.826 387.723 377.126 388.425C372.863 388.024 368.887 390.551 364.571 389.66C363.457 389.43 362.215 390.143 361.191 389.219C358.428 386.724 354.992 385.881 351.471 385.472C348.268 385.1 346.522 382.786 344.485 380.795C344.104 379.532 345.22 377.324 342.239 377.66V372.158C345.414 368.101 349.946 366.421 355.277 365.652C360.381 364.812 365.397 363.502 370.262 361.74C371.404 361.334 372.453 360.703 373.348 359.884C374.243 359.065 374.966 358.074 375.474 356.97C378.769 350.394 381.488 343.543 383.601 336.494C385.259 331.207 385.153 331.17 389.646 328.767C392.886 329.58 391.579 332.52 392.026 334.332L395.558 330.783C397.191 332.003 398.008 333.012 398.173 334.533C399.995 334.607 401.904 335.622 403.375 333.267C404.388 335.531 402.797 338.276 406.158 339.469L408.97 335.64C410.454 337.349 409.146 339.126 410.139 340.463C411.268 341.174 411.921 340.403 412.602 339.649C412.876 339.827 413.265 339.938 413.412 340.191C417.282 346.954 416.292 353.552 412.559 359.958C410.657 363.117 408.251 365.942 405.437 368.318C403.496 369.992 402.073 372.19 401.336 374.65V374.65Z" fill="#10B981"/>
<path d="M327.545 286.811C326.017 286.964 324.563 287.652 323.807 285.78C321.975 287.13 320.629 289.837 317.965 287.339C317.835 287.192 317.672 287.077 317.49 287.005C317.308 286.933 317.112 286.905 316.917 286.923C316.722 286.941 316.534 287.005 316.368 287.11C316.203 287.215 316.064 287.358 315.964 287.527C315.086 288.735 313.746 287.84 312.662 288.394C311.037 293.579 306.909 296.799 302.907 300.054C302.41 300.461 301.639 301.197 301.064 301.202C295.78 301.249 290.486 301.702 285.212 300.986C283.661 298.991 280.239 301.542 279.137 298.463C277.025 298.351 274.973 297.716 273.164 296.614C271.182 295.539 269.434 294.044 267.494 293.095C264.506 291.634 262.896 289.232 261.411 286.589C260.423 284.836 259.689 282.94 258.812 281.055C259.825 279.109 260.603 276.988 262.479 275.477C263.493 274.648 264.677 274.055 265.947 273.739C269.493 272.632 272.786 270.832 275.637 268.443C282.75 262.907 289.523 256.982 296.311 251.072C297.641 249.915 299.269 249.578 300.677 248.749C301.8 249.586 303.143 250.182 302.744 251.901C304.634 253.072 306.738 251.72 308.515 252.748C308.665 254.447 306.676 252.776 306.641 254.446C308.115 255.327 310.041 254.475 311.805 254.859C312.606 256.134 314.227 256.689 314.741 258.373C315.162 259.755 317.008 261.486 316.628 262.175C315.629 263.985 317.4 265.052 317.104 266.547C316.808 268.043 317.387 270.004 316.628 271.084C315.751 272.334 317.708 273.786 315.717 274.656C317.887 276.037 319.832 278.147 322.01 278.426C324.391 278.731 324.45 282.689 327.553 280.798L327.545 286.811Z" fill="#10B981"/>
<path d="M172.852 336.134C169.99 337.536 168.802 341.164 165.226 342.151C164.034 338.366 170.145 337.719 168.253 334.137C166.61 333.002 164.856 332.037 163.018 331.259C162.317 331.055 161.678 330.679 161.158 330.167C160.637 329.654 160.251 329.02 160.034 328.321C159.113 325.925 157.488 323.866 155.376 322.418C155.3 321.058 155.31 319.694 155.406 318.335C155.793 315.321 156.536 312.523 158.911 310.239C164.818 304.558 171.383 300.096 179.292 297.692C181.201 296.924 183.039 295.987 184.782 294.893C185.056 292.3 186.645 289.831 186.471 286.792C186.484 285.87 186.812 284.981 187.399 284.273C187.987 283.565 188.799 283.081 189.699 282.902C190.865 282.672 191.903 281.795 193.416 280.989V288.766L197.838 284.384C204.925 288.617 209.919 293.899 211.366 302.049L208.945 302.908V307.868C205.821 310.236 205.532 313.92 204.304 316.917C202.929 320.604 200.879 324 198.26 326.93C195.889 329.457 192.964 331.495 191.482 334.834C191.067 335.756 190.33 336.492 189.41 336.902C186.17 338.048 184.048 340.442 182.046 343.362C181.676 342.346 181.427 341.654 180.939 340.312C180.145 342.876 179.673 344.78 177.161 346.031C174.095 347.556 173.01 345.771 171.413 344.303C170.655 345.126 170.03 345.947 168.866 345.319C168.731 344.989 168.389 344.57 168.485 344.322C169.197 342.145 170.49 340.207 172.224 338.718C173.012 338.086 173.655 337.351 172.852 336.134Z" fill="#10B981"/>
<path d="M272.573 82.7783C271.824 82.4733 271.75 81.6223 270.76 82.0666C270.419 84.9031 271.401 88.1422 268.836 91.0865C267.823 91.4596 265.563 90.9096 264.937 92.9277C264.431 94.5472 263.903 95.7743 262.325 96.0122C260.502 95.9817 261.88 93.5936 260.208 93.6119C258.573 93.6221 258.131 95.2457 257.034 95.9817C256.486 95.6361 256.178 94.9722 256.464 94.5188C257.293 93.2062 258.205 91.9842 257.323 90.3433C256.04 89.2331 255.425 90.8669 254.477 91.055C254.22 90.8885 254.038 90.6294 253.967 90.3314C253.896 90.0334 253.942 89.7195 254.096 89.4547C256.425 84.9906 257.336 80.0648 259.07 75.4247C255.687 73.4375 252.196 71.6419 248.613 70.0466C244.798 68.1485 242.21 65.2682 238.941 62.4216H233.822C233.797 59.4082 237.235 58.6152 236.531 55.2663C234.771 54.0463 234.319 58.5196 232.13 57.8079C231.575 57.4714 231.385 56.9682 231.511 56.0186C234.758 53.9202 238.921 53.7108 242.525 51.9519C246.361 50.0772 250.788 49.8525 254.95 48.9141C259.276 47.9371 263.484 48.8359 267.903 48.0856C271.028 45.675 270.486 41.4772 271.836 38.0775C273.243 34.5283 274.799 31.1804 277.738 28.592C278.84 27.6211 279.872 28.0521 281.118 28.1579C281.31 29.9513 278.154 30.2024 279.29 32.5641L283.83 30.3569C285.075 30.4311 284.968 31.2719 284.956 32.0578C290.706 33.3724 291.699 34.0047 293.752 39.9959C294.267 41.5021 294.516 43.0873 294.488 44.6797C294.408 46.8615 294.467 49.0514 294.467 51.2006C294.904 52.0831 295.875 51.6459 296.665 52.201V61.1477C292.166 62.6991 291.134 67.5069 288.548 71.0287C287.415 72.574 286.581 74.3522 283.337 74.7588C284.895 73.0244 286.288 72.0281 286.856 70.682C287.406 69.3796 288.914 68.367 288.476 66.776C288.132 66.1355 287.869 66.1039 287.565 66.5279C285.856 68.9679 284.564 71.8146 281.389 72.7936C281.523 75.013 280.756 74.6582 279.662 73.3792C278.412 74.2373 279.2 75.5081 279.033 76.5705C278.908 77.3635 278.991 78.0671 277.825 78.1342C274.985 78.2968 274.377 81.1282 272.573 82.7783Z" fill="#10B981"/>
<path d="M162.484 166.439C162.745 168.879 162.351 170.469 160.302 171.233C158.712 171.213 158.269 169.591 157.171 168.853C155.775 170.319 154.384 170.554 152.68 169.163C151.283 168.15 150.301 166.661 149.919 164.974C149.615 162.076 147.816 160.473 145.978 158.841C142.599 155.783 139.995 151.958 138.384 147.687C137.933 146.783 137.715 145.781 137.751 144.771C137.786 143.762 138.073 142.777 138.586 141.908C139.362 140.19 140.555 138.695 142.056 137.56C143.557 136.425 145.318 135.688 147.177 135.414C149.759 134.961 152.174 133.532 154.818 134.302C155.417 133.254 156.336 132.9 156.611 131.773C158.114 125.887 160.364 120.22 163.303 114.909C165.284 111.237 166.993 111.008 170.674 113.057C172.975 114.337 175.268 115.37 177.284 117.251C179.774 119.309 181.669 122 182.771 125.044C184.332 128.691 185.137 132.619 185.137 136.589C185.119 138.437 184.322 140.533 186.238 142.1C186.528 142.338 186.466 143.32 186.249 143.828C184.751 147.253 185.452 151.198 183.364 154.556C181.03 158.31 178.792 162.136 175.257 164.802C173.977 165.926 172.325 166.529 170.625 166.495C168.095 166.28 165.529 166.439 162.484 166.439Z" fill="#10B981"/>
<path d="M99.5024 233.596C99.5024 235.019 99.0792 236.425 99.5743 236.931C101.985 239.402 98.8494 241.426 99.2706 243.665C96.4882 246.308 95.6559 250.189 93.3555 253.109C92.0676 254.743 90.723 256.362 88.0207 256.097C87.1726 256.108 86.3369 256.303 85.5702 256.667C84.8035 257.031 84.1236 257.556 83.5768 258.207C82.3709 257.318 81.1144 256.529 79.543 257.496C79.3851 258.468 80.9686 258.758 80.3348 260.191C78.1893 260.895 75.7937 261.666 73.4103 262.472C70.9803 263.293 67.8213 263.489 66.3339 265.164C64.5985 267.122 62.3983 268.394 60.5222 270.501C58.9613 269.533 57.1933 268.953 55.3645 268.808C56.2535 267.248 58.3635 266.835 57.6497 264.304L54.8218 266.596C54.5628 266.447 54.3713 266.204 54.2876 265.917C54.2039 265.629 54.2346 265.321 54.3733 265.056C54.9309 264.545 55.3117 263.869 55.4601 263.126C55.6086 262.383 55.5169 261.612 55.1985 260.925C51.8228 260.843 48.4005 259.496 44.9722 257.854C43.9597 256.04 46.0799 254.54 46.1072 252.98C44.6674 251.861 43.9709 252.547 43.2591 253.362C41.2746 252.676 40.5729 250.88 41.4214 249.405C42.5878 247.372 43.5233 245.146 46.0971 243.937C53.5602 240.43 60.6771 236.205 68.1696 232.992C71.4633 227.373 70.8558 220.031 76.2909 215.41H79.8174C80.3884 217.147 81.6298 217.434 83.4037 217.951C86.5222 218.866 89.9333 220.37 91.1088 223.899C91.9117 226.309 93.8861 227.818 94.8733 230.085C95.2533 231.038 95.8854 231.869 96.7012 232.488C97.517 233.106 98.4856 233.489 99.5024 233.596V233.596Z" fill="#10B981"/>
<path d="M252.316 424.229C251.501 423.624 251.269 422.938 251.057 422.982L245.584 428.741C245.418 429.82 247.871 428.334 247.962 429.758C244.349 431.869 239.476 432.647 239.006 438.424L240.649 440.074C241.662 438.699 242.666 437.323 243.696 435.918C244.942 437.26 244.561 438.001 243.769 438.791C241.999 440.804 239.518 442.045 236.853 442.252C234.838 442.362 233.045 444.048 230.765 443.204C230.462 444.065 230.226 444.757 229.981 445.462C229.22 445.926 229.171 444.969 228.328 444.714C228.173 446.679 226.066 446.747 225.035 448.03C223.126 447.245 221.669 444.992 219.668 445.319C218.719 445.474 217.277 443.387 216.631 445.929L213.849 442.339H208.981C206.066 440.965 205.228 438.385 204.096 436.036C204.466 435.417 204.815 434.833 205.153 434.269L202.888 431.994C202.977 430.302 204.131 428.998 205.004 427.623C205.878 426.247 207.269 426.446 208.608 426.99C208.68 428.024 206.943 428.617 208.058 430.063C210.719 428.266 213.971 427.812 216.829 426.42C218.838 421.071 218.678 414.975 223.016 410.417C223.617 409.677 224.051 408.815 224.285 407.889C224.52 406.964 224.55 405.998 224.373 405.06C224.155 403.948 225.183 403.979 226.078 403.984C227.468 405.628 226.21 407.715 226.849 409.498C230.755 407.809 232.028 405.452 231.912 401.344C231.874 400.066 233.032 398.763 232.448 397.082C231.428 396.879 231.63 397.697 231.436 398.302C231.171 398.807 230.83 399.268 230.423 399.666C230.214 399.995 229.895 400.237 229.523 400.349C229.152 400.461 228.752 400.435 228.398 400.276C228.632 394.271 230.35 391.769 235.688 389.688C237.004 390.967 235.606 392.761 236.575 394.211C237.759 394.027 238.169 392.819 239.216 392.087C239.886 393.329 240.193 394.855 241.603 395.611C242.768 396.053 243.274 394.994 244.221 394.271C248.34 395.987 251.613 398.338 251.755 403.585C251.805 405.399 253.9 407.346 252.757 408.973C251.339 410.98 253.458 412.281 252.951 414.056C252.243 416.519 254.673 418.625 254.16 421.309C253.84 422.441 253.2 423.456 252.316 424.229V424.229Z" fill="#10B981"/>
<path d="M380.81 134.209H384.235C385.565 135.467 384.257 137.244 385.076 138.683C387.128 139.795 387.581 137.564 388.794 136.799C389.071 136.912 389.336 137.055 389.584 137.224C390.933 138.349 391.71 139.903 393.208 141.06C398.078 144.83 399.014 150.594 396.144 156.797C394.828 159.643 393.586 162.808 391.411 164.875C389.619 166.577 390.055 168.795 388.668 170.414C387.317 171.991 385.607 173.103 384.629 175.269C383.489 177.792 379.906 178.379 378.158 180.765C374.991 180.042 374.506 182.74 373.269 184.554C372.589 185.38 371.84 186.147 371.03 186.845C369.341 186.512 367.749 185.474 365.773 185.396C364.092 185.328 362.501 183.212 360.703 185.278C358.15 183.026 355.396 185.945 353.056 185.105C350.483 184.18 347.521 184.451 345.227 182.383C344.43 181.665 342.63 181.966 341.291 181.985C340.754 182.03 340.217 181.901 339.758 181.618C339.3 181.334 338.944 180.911 338.743 180.409C337.971 178.249 340.915 178.183 339.376 176.444C338.745 175.326 337.28 176.553 336.322 175.652C335.975 174.768 335.927 173.794 336.184 172.879C338.004 171.911 339.997 171.312 342.049 171.118C345.217 171.016 347.82 168.881 350.736 167.775C356.775 165.672 362.269 162.24 366.817 157.731C368.368 156.079 369.634 154.178 370.563 152.107C372.619 147.789 374.722 143.494 376.871 139.221C377.727 137.234 379.085 135.506 380.81 134.209V134.209Z" fill="#10B981"/>
<path d="M35.8629 124.691L38.3506 127.049C42.7044 126.893 43.7625 123.051 44.6535 120.263C47.2343 112.189 50.4389 104.353 53.1463 96.3357C53.9239 94.033 54.581 93.5419 59.7934 91.0552C60.3827 93.8063 61.9287 94.9124 64.9571 95.0364C66.8647 95.1147 69.244 96.9518 70.374 98.6832C71.3004 100.101 73.4429 101.587 73.131 102.711C72.645 104.465 75.4193 105.592 73.5664 107.293C73.3001 107.537 74.8017 108.499 74.5627 109.646C74.1952 111.418 77.0059 112.938 75.6279 114.424C73.9167 116.27 76.5735 117.433 75.7403 118.905C75.6682 119.094 75.6682 119.303 75.7403 119.492C76.449 121.663 71.8492 121.831 73.8965 124.886C74.6164 125.963 72.6511 127.895 71.7783 129.409C70.6846 131.203 69.378 132.858 67.8873 134.336C66.564 135.73 65.2082 137.068 63.0577 137.335C61.2352 134.793 59.3043 138.968 57.2479 137.849C56.7559 141.713 51.9769 141.427 50.688 144.864C50.371 145.809 51.828 146.127 51.9738 147.14C51.953 147.637 51.8065 148.121 51.5483 148.546C51.29 148.971 50.9284 149.323 50.4974 149.569C50.0664 149.815 49.5803 149.946 49.0846 149.952C48.5888 149.957 48.0999 149.836 47.6636 149.6C44.8823 148.258 42.0432 148.808 39.1485 148.431C39.0755 145.945 38.0536 143.583 36.2943 141.833C35.22 140.869 34.8312 139.399 35.3962 138.705C38.0692 135.426 35.4863 132.582 34.8565 129.657C34.2854 127.034 34.0212 127.091 35.8629 124.691Z" fill="#10B981"/>
<path d="M407.401 252.982L411.294 249.073C419.813 247.694 428.325 246.439 437.113 248.768C439.683 248.178 440.886 245.643 441.568 243.53C442.459 240.762 444.76 238.994 445.569 236.245C446.171 234.2 448.917 234.72 449.795 233.065C451.736 233.866 453.062 234.611 452.444 236.919C455.187 236.762 457.498 236.727 458.995 239.08C460.152 240.896 463.106 240.686 463.635 243.629C464.006 245.696 465.645 247.532 466.625 249.303C463.993 253.197 467.754 256.384 467.566 259.935C466.766 262.264 466.019 264.501 462.552 264.651C460.599 264.736 458.545 266.481 456.865 267.88C454.696 269.684 452.809 269.703 450.62 267.854C450.528 270.769 447.987 271.257 446.051 272.415C445.61 272.166 444.984 271.5 444.408 271.538C440.539 271.809 436.958 269.742 433.372 269.757C429.892 269.926 426.429 269.161 423.341 267.541C420.277 265.757 416.709 265.394 413.783 263.259C412.548 262.357 411.428 261.918 410.905 260.259C410.13 257.81 407.282 256.359 407.401 252.982Z" fill="#10B981"/>
</g>
<defs>
<clipPath id="clip0_82_678">
<rect width="475" height="449" fill="white"/>
</clipPath>
</defs>
</svg>
